solid stl_item0
  facet normal 0 0 -1
    outer loop
      vertex -4.765 9.3 0
      vertex 5.2 9.12558 0
      vertex -4.76617 9.23293 0
    endloop
  endfacet
  facet normal 0 0 -1
    outer loop
      vertex -6.573 1.7 0
      vertex -6.704 9.199 0
      vertex -4.8 7.3 0
    endloop
  endfacet
  facet normal 0 0 -1
    outer loop
      vertex -4.76617 9.23293 0
      vertex -4.76675 9.2 0
      vertex -6.704 9.199 0
    endloop
  endfacet
  facet normal 0 0 -1
    outer loop
      vertex -4.76675 9.2 0
      vertex -4.8 7.3 0
      vertex -6.704 9.199 0
    endloop
  endfacet
  facet normal 0 0 1
    outer loop
      vertex -4.574 1.735 20
      vertex -4.8 7.3 20
      vertex -6.573 1.7 20
    endloop
  endfacet
  facet normal 0 0 1
    outer loop
      vertex -6.704 9.199 20
      vertex -6.573 1.7 20
      vertex -4.8 7.3 20
    endloop
  endfacet
  facet normal 0 0 1
    outer loop
      vertex -4.76675 9.2 20
      vertex -6.704 9.199 20
      vertex -4.8 7.3 20
    endloop
  endfacet
  facet normal 0 0 1
    outer loop
      vertex 5.2 -14.67412 20
      vertex -4.65889 -14.50156 20
      vertex 5.2 -16.67374 20
    endloop
  endfacet
  facet normal 0 0 -1
    outer loop
      vertex -4.65889 -14.50156 0
      vertex 5.2 -14.67412 0
      vertex 5.2 -16.67374 0
    endloop
  endfacet
  facet normal 0 0 1
    outer loop
      vertex -6.623 -16.534 20
      vertex -4.783 -16.5 20
      vertex -4.748 -14.5 20
    endloop
  endfacet
  facet normal 0 0 1
    outer loop
      vertex -4.755 -9 20
      vertex -6.754 -9.035 20
      vertex -4.748 -14.5 20
    endloop
  endfacet
  facet normal 0 0 1
    outer loop
      vertex -6.623 -16.534 20
      vertex -4.7319 -16.50089 20
      vertex -4.783 -16.5 20
    endloop
  endfacet
  facet normal 0 0 -1
    outer loop
      vertex -6.623 -16.534 0
      vertex -6.754 -9.035 0
      vertex -4.748 -14.5 0
    endloop
  endfacet
  facet normal 0 0 -1
    outer loop
      vertex -4.783 -16.5 0
      vertex -6.623 -16.534 0
      vertex -4.748 -14.5 0
    endloop
  endfacet
  facet normal 0 0 -1
    outer loop
      vertex -4.755 -9 0
      vertex -4.748 -14.5 0
      vertex -6.754 -9.035 0
    endloop
  endfacet
  facet normal 0 0 -1
    outer loop
      vertex -4.7319 -16.50089 0
      vertex -6.623 -16.534 0
      vertex -4.783 -16.5 0
    endloop
  endfacet
  facet normal -0.01751 0.99985 0
    outer loop
      vertex -6.704 9.199 20
      vertex -4.76617 9.23293 0
      vertex -6.704 9.199 0
    endloop
  endfacet
  facet normal 0 0 -1
    outer loop
      vertex -4.755 -9 0
      vertex -4.65889 -14.50156 0
      vertex -4.748 -14.5 0
    endloop
  endfacet
  facet normal 0 0 1
    outer loop
      vertex -4.65889 -14.50156 20
      vertex -4.755 -9 20
      vertex -4.748 -14.5 20
    endloop
  endfacet
  facet normal -0.01751 0.99985 0
    outer loop
      vertex -4.755 -9 20
      vertex -6.754 -9.035 0
      vertex -6.754 -9.035 20
    endloop
  endfacet
  facet normal 0 0 -1
    outer loop
      vertex -4.783 -16.5 0
      vertex -4.748 -14.5 0
      vertex -4.7319 -16.50089 0
    endloop
  endfacet
  facet normal 0 0 -1
    outer loop
      vertex -4.748 -14.5 0
      vertex -4.65889 -14.50156 0
      vertex -4.7319 -16.50089 0
    endloop
  endfacet
  facet normal 0 0 -1
    outer loop
      vertex 5.2 -16.67374 0
      vertex -4.7319 -16.50089 0
      vertex -4.65889 -14.50156 0
    endloop
  endfacet
  facet normal 0 0 1
    outer loop
      vertex -4.783 -16.5 20
      vertex -4.7319 -16.50089 20
      vertex -4.748 -14.5 20
    endloop
  endfacet
  facet normal 0 0 1
    outer loop
      vertex -4.65889 -14.50156 20
      vertex -4.748 -14.5 20
      vertex -4.7319 -16.50089 20
    endloop
  endfacet
  facet normal 0 0 1
    outer loop
      vertex -4.65889 -14.50156 20
      vertex -4.7319 -16.50089 20
      vertex 5.2 -16.67374 20
    endloop
  endfacet
  facet normal -0.99985 -0.01747 0
    outer loop
      vertex -6.754 -9.035 0
      vertex -6.623 -16.534 0
      vertex -6.623 -16.534 20
    endloop
  endfacet
  facet normal -0.99985 -0.01747 0
    outer loop
      vertex -6.754 -9.035 0
      vertex -6.623 -16.534 20
      vertex -6.754 -9.035 20
    endloop
  endfacet
  facet normal 0 0 -1
    outer loop
      vertex -6.573 1.7 0
      vertex -4.8 7.3 0
      vertex -4.574 1.735 0
    endloop
  endfacet
  facet normal 0 0 -1
    outer loop
      vertex -4.67118 7.29776 0
      vertex -4.574 1.735 0
      vertex -4.8 7.3 0
    endloop
  endfacet
  facet normal 0 0 1
    outer loop
      vertex -4.8 7.3 20
      vertex -4.574 1.735 20
      vertex -4.67118 7.29776 20
    endloop
  endfacet
  facet normal 0.01751 -0.99985 0
    outer loop
      vertex -6.573 1.7 20
      vertex -6.573 1.7 0
      vertex -4.574 1.735 20
    endloop
  endfacet
  facet normal 0 0 -1
    outer loop
      vertex 5.2 7.24023 0
      vertex -4.67118 7.29776 0
      vertex 5.2 9.12558 0
    endloop
  endfacet
  facet normal 0 0 -1
    outer loop
      vertex 5.198 7.126 0
      vertex -4.67118 7.29776 0
      vertex 5.2 7.24023 0
    endloop
  endfacet
  facet normal 0 0 -1
    outer loop
      vertex -4.76675 9.2 0
      vertex 5.2 9.12558 0
      vertex -4.67118 7.29776 0
    endloop
  endfacet
  facet normal 0 0 -1
    outer loop
      vertex -4.8 7.3 0
      vertex -4.76675 9.2 0
      vertex -4.67118 7.29776 0
    endloop
  endfacet
  facet normal 0 0 -1
    outer loop
      vertex -4.76617 9.23293 0
      vertex 5.2 9.12558 0
      vertex -4.76675 9.2 0
    endloop
  endfacet
  facet normal 0 0 1
    outer loop
      vertex -4.76675 9.2 20
      vertex -4.8 7.3 20
      vertex -4.67118 7.29776 20
    endloop
  endfacet
  facet normal 0 0 1
    outer loop
      vertex 5.198 7.126 20
      vertex 5.2 7.24023 20
      vertex -4.67118 7.29776 20
    endloop
  endfacet
  facet normal 0 0 1
    outer loop
      vertex 5.2 7.24023 20
      vertex 5.2 9.12558 20
      vertex -4.67118 7.29776 20
    endloop
  endfacet
  facet normal 0 0 1
    outer loop
      vertex -4.76675 9.2 20
      vertex -4.67118 7.29776 20
      vertex 5.2 9.12558 20
    endloop
  endfacet
  facet normal -0.99985 -0.01747 0
    outer loop
      vertex -6.704 9.199 0
      vertex -6.573 1.7 0
      vertex -6.573 1.7 20
    endloop
  endfacet
  facet normal -0.99985 -0.01747 0
    outer loop
      vertex -6.704 9.199 0
      vertex -6.573 1.7 20
      vertex -6.704 9.199 20
    endloop
  endfacet
  facet normal 0 0 -1
    outer loop
      vertex 9.2 -16.8 0
      vertex 5.2 -14.67412 0
      vertex 9.2 9.2 0
    endloop
  endfacet
  facet normal 0 0 -1
    outer loop
      vertex 9.2 9.2 0
      vertex 5.2 7.24023 0
      vertex 5.2 9.12558 0
    endloop
  endfacet
  facet normal 0 0 -1
    outer loop
      vertex 9.2 9.2 0
      vertex 5.2 9.12558 0
      vertex 5.2 9.2 0
    endloop
  endfacet
  facet normal 0.0175 0.99985 0
    outer loop
      vertex -4.65889 -14.50156 0
      vertex -4.65889 -14.50156 20
      vertex 5.2 -14.67412 0
    endloop
  endfacet
  facet normal 0.0175 0.99985 0
    outer loop
      vertex 5.2 -14.67412 20
      vertex 5.2 -14.67412 0
      vertex -4.65889 -14.50156 20
    endloop
  endfacet
  facet normal 0 0 -1
    outer loop
      vertex 5.2 -16.8 0
      vertex 5.2 -16.67374 0
      vertex 9.2 -16.8 0
    endloop
  endfacet
  facet normal 0 0 -1
    outer loop
      vertex 5.2 -16.67374 0
      vertex 5.2 -14.67412 0
      vertex 9.2 -16.8 0
    endloop
  endfacet
  facet normal 0 0 -1
    outer loop
      vertex 5.2 7.24023 0
      vertex 9.2 9.2 0
      vertex 5.2 -14.67412 0
    endloop
  endfacet
  facet normal 0 0 1
    outer loop
      vertex -4.76617 9.23293 20
      vertex -6.704 9.199 20
      vertex -4.76675 9.2 20
    endloop
  endfacet
  facet normal 0.99985 -0.01751 0
    outer loop
      vertex 5.198 7.126 20
      vertex 5.198 7.126 0
      vertex 5.2 7.24023 0
    endloop
  endfacet
  facet normal 0.99985 -0.01751 0
    outer loop
      vertex 5.198 7.126 20
      vertex 5.2 7.24023 0
      vertex 5.2 7.24023 20
    endloop
  endfacet
  facet normal -0.01751 0.99985 0
    outer loop
      vertex -6.754 -9.035 0
      vertex -4.755 -9 20
      vertex -4.755 -9 0
    endloop
  endfacet
  facet normal 0 0.89652 -0.443
    outer loop
      vertex 5.2 -9.474 14.851
      vertex 9.2 -9.474 14.851
      vertex 9.2 -10.611 12.55
    endloop
  endfacet
  facet normal 0 0.89652 -0.443
    outer loop
      vertex 5.2 -9.474 14.851
      vertex 9.2 -10.611 12.55
      vertex 5.2 -10.611 12.55
    endloop
  endfacet
  facet normal -1 0 0
    outer loop
      vertex 5.2 -5.473 2.151
      vertex 5.2 -14.67412 0
      vertex 5.2 -7.704 3.324
    endloop
  endfacet
  facet normal -1 0 0
    outer loop
      vertex 5.2 -7.704 3.324
      vertex 5.2 -14.67412 0
      vertex 5.2 -9.474 5.149
    endloop
  endfacet
  facet normal 0.01751 -0.99985 0
    outer loop
      vertex -4.7319 -16.50089 20
      vertex -6.623 -16.534 20
      vertex -4.7319 -16.50089 0
    endloop
  endfacet
  facet normal 0.01751 -0.99985 0
    outer loop
      vertex -6.623 -16.534 0
      vertex -4.7319 -16.50089 0
      vertex -6.623 -16.534 20
    endloop
  endfacet
  facet normal 0 0.98839 -0.15194
    outer loop
      vertex 5.2 -10.611 12.55
      vertex 9.2 -10.611 12.55
      vertex 9.2 -11.003 10
    endloop
  endfacet
  facet normal 0 0.98839 -0.15194
    outer loop
      vertex 5.2 -10.611 12.55
      vertex 9.2 -11.003 10
      vertex 5.2 -11.003 10
    endloop
  endfacet
  facet normal -1 0 0
    outer loop
      vertex 5.2 -3 1.748
      vertex 5.2 -14.67412 0
      vertex 5.2 -5.473 2.151
    endloop
  endfacet
  facet normal 0.01751 -0.99985 0
    outer loop
      vertex -4.574 1.735 20
      vertex -6.573 1.7 0
      vertex -4.574 1.735 0
    endloop
  endfacet
  facet normal 1 0 0
    outer loop
      vertex 9.2 -5.473 17.849
      vertex 9.2 -16.8 20
      vertex 9.2 -7.704 16.676
    endloop
  endfacet
  facet normal 0.99985 0.01747 0
    outer loop
      vertex -4.67118 7.29776 0
      vertex -4.67118 7.29776 20
      vertex -4.574 1.735 20
    endloop
  endfacet
  facet normal 0.99985 0.01747 0
    outer loop
      vertex -4.67118 7.29776 0
      vertex -4.574 1.735 20
      vertex -4.574 1.735 0
    endloop
  endfacet
  facet normal 0 0.98839 0.15194
    outer loop
      vertex 5.2 -11.003 10
      vertex 9.2 -11.003 10
      vertex 9.2 -10.611 7.45
    endloop
  endfacet
  facet normal 0 0.98839 0.15194
    outer loop
      vertex 5.2 -11.003 10
      vertex 9.2 -10.611 7.45
      vertex 5.2 -10.611 7.45
    endloop
  endfacet
  facet normal 0 0 1
    outer loop
      vertex 5.2 9.12558 20
      vertex -4.765 9.3 20
      vertex -4.76617 9.23293 20
    endloop
  endfacet
  facet normal 0 0 1
    outer loop
      vertex 5.2 9.12558 20
      vertex -4.76617 9.23293 20
      vertex -4.76675 9.2 20
    endloop
  endfacet
  facet normal -0.0174 -0.99985 0
    outer loop
      vertex 5.198 7.126 20
      vertex -4.67118 7.29776 20
      vertex -4.67118 7.29776 0
    endloop
  endfacet
  facet normal -0.0174 -0.99985 0
    outer loop
      vertex 5.198 7.126 20
      vertex -4.67118 7.29776 0
      vertex 5.198 7.126 0
    endloop
  endfacet
  facet normal 0 0 1
    outer loop
      vertex -6.754 -9.035 20
      vertex -6.623 -16.534 20
      vertex -4.748 -14.5 20
    endloop
  endfacet
  facet normal 0.0175 0.99985 0
    outer loop
      vertex -4.765 9.3 0
      vertex -4.765 9.3 20
      vertex 5.2 9.12558 0
    endloop
  endfacet
  facet normal -1 0 0
    outer loop
      vertex 5.2 -0.527 17.849
      vertex 5.2 7.24023 20
      vertex 5.2 1.704 16.676
    endloop
  endfacet
  facet normal 0 0.89652 0.443
    outer loop
      vertex 5.2 -10.611 7.45
      vertex 9.2 -10.611 7.45
      vertex 9.2 -9.474 5.149
    endloop
  endfacet
  facet normal 0 0.89652 0.443
    outer loop
      vertex 5.2 -10.611 7.45
      vertex 9.2 -9.474 5.149
      vertex 5.2 -9.474 5.149
    endloop
  endfacet
  facet normal 0 0.71784 0.69621
    outer loop
      vertex 5.2 -9.474 5.149
      vertex 9.2 -9.474 5.149
      vertex 9.2 -7.704 3.324
    endloop
  endfacet
  facet normal 0 0.71784 0.69621
    outer loop
      vertex 5.2 -9.474 5.149
      vertex 9.2 -7.704 3.324
      vertex 5.2 -7.704 3.324
    endloop
  endfacet
  facet normal 1 0 0
    outer loop
      vertex 9.2 -16.8 20
      vertex 9.2 -5.473 17.849
      vertex 9.2 -3 18.253
    endloop
  endfacet
  facet normal 1 0 0
    outer loop
      vertex 9.2 -3 18.253
      vertex 9.2 -0.527 17.849
      vertex 9.2 9.2 20
    endloop
  endfacet
  facet normal 1 0 0
    outer loop
      vertex 9.2 -16.8 20
      vertex 9.2 -3 18.253
      vertex 9.2 9.2 20
    endloop
  endfacet
  facet normal 0 0 1
    outer loop
      vertex 9.2 9.2 20
      vertex 5.2 7.24023 20
      vertex 5.2 -14.67412 20
    endloop
  endfacet
  facet normal 0 0 1
    outer loop
      vertex 9.2 9.2 20
      vertex 5.2 -14.67412 20
      vertex 9.2 -16.8 20
    endloop
  endfacet
  facet normal 0 0 1
    outer loop
      vertex 5.2 9.12558 20
      vertex 5.2 7.24023 20
      vertex 9.2 9.2 20
    endloop
  endfacet
  facet normal 0 0 1
    outer loop
      vertex 5.2 9.2 20
      vertex 5.2 9.12558 20
      vertex 9.2 9.2 20
    endloop
  endfacet
  facet normal -0.0174 -0.99985 0
    outer loop
      vertex 5.2 -16.67374 0
      vertex 5.2 -16.67374 20
      vertex -4.7319 -16.50089 20
    endloop
  endfacet
  facet normal -0.0174 -0.99985 0
    outer loop
      vertex 5.2 -16.67374 0
      vertex -4.7319 -16.50089 20
      vertex -4.7319 -16.50089 0
    endloop
  endfacet
  facet normal 0 0.46537 0.88512
    outer loop
      vertex 9.2 -5.473 2.151
      vertex 5.2 -5.473 2.151
      vertex 5.2 -7.704 3.324
    endloop
  endfacet
  facet normal 0 0.46537 0.88512
    outer loop
      vertex 9.2 -5.473 2.151
      vertex 5.2 -7.704 3.324
      vertex 9.2 -7.704 3.324
    endloop
  endfacet
  facet normal 1 0 0
    outer loop
      vertex 9.2 -0.527 17.849
      vertex 9.2 1.704 16.676
      vertex 9.2 9.2 20
    endloop
  endfacet
  facet normal 1 0 0
    outer loop
      vertex 9.2 1.704 16.676
      vertex 9.2 3.474 14.851
      vertex 9.2 9.2 20
    endloop
  endfacet
  facet normal 1 0 0
    outer loop
      vertex 9.2 9.2 20
      vertex 9.2 4.611 12.55
      vertex 9.2 5.003 10
    endloop
  endfacet
  facet normal 1 0 0
    outer loop
      vertex 9.2 4.611 7.45
      vertex 9.2 9.2 0
      vertex 9.2 5.003 10
    endloop
  endfacet
  facet normal 1 0 0
    outer loop
      vertex 9.2 9.2 20
      vertex 9.2 5.003 10
      vertex 9.2 9.2 0
    endloop
  endfacet
  facet normal 0 0 1
    outer loop
      vertex 5.2 -16.67374 20
      vertex 9.2 -16.8 20
      vertex 5.2 -14.67412 20
    endloop
  endfacet
  facet normal 0 0 1
    outer loop
      vertex 5.2 -16.8 20
      vertex 9.2 -16.8 20
      vertex 5.2 -16.67374 20
    endloop
  endfacet
  facet normal 0.99985 0.01747 0
    outer loop
      vertex -4.755 -9 0
      vertex -4.755 -9 20
      vertex -4.65889 -14.50156 20
    endloop
  endfacet
  facet normal 0.99985 0.01747 0
    outer loop
      vertex -4.755 -9 0
      vertex -4.65889 -14.50156 20
      vertex -4.65889 -14.50156 0
    endloop
  endfacet
  facet normal 0 -1 0
    outer loop
      vertex 5.2 -16.8 20
      vertex 5.2 -16.8 0
      vertex 9.2 -16.8 0
    endloop
  endfacet
  facet normal 0 -1 0
    outer loop
      vertex 5.2 -16.8 20
      vertex 9.2 -16.8 0
      vertex 9.2 -16.8 20
    endloop
  endfacet
  facet normal -0.01751 0.99985 0
    outer loop
      vertex -4.76617 9.23293 20
      vertex -4.76617 9.23293 0
      vertex -6.704 9.199 20
    endloop
  endfacet
  facet normal 0 0.16084 0.98698
    outer loop
      vertex 5.2 -5.473 2.151
      vertex 9.2 -5.473 2.151
      vertex 9.2 -3 1.748
    endloop
  endfacet
  facet normal 0 0.16084 0.98698
    outer loop
      vertex 5.2 -5.473 2.151
      vertex 9.2 -3 1.748
      vertex 5.2 -3 1.748
    endloop
  endfacet
  facet normal 1 0 0
    outer loop
      vertex 9.2 3.474 5.149
      vertex 9.2 1.704 3.324
      vertex 9.2 9.2 0
    endloop
  endfacet
  facet normal 1 0 0
    outer loop
      vertex 9.2 -16.8 0
      vertex 9.2 9.2 0
      vertex 9.2 -3 1.748
    endloop
  endfacet
  facet normal 1 0 0
    outer loop
      vertex 9.2 -5.473 2.151
      vertex 9.2 -16.8 0
      vertex 9.2 -3 1.748
    endloop
  endfacet
  facet normal 1 0 0
    outer loop
      vertex 9.2 9.2 0
      vertex 9.2 -0.527 2.151
      vertex 9.2 -3 1.748
    endloop
  endfacet
  facet normal -0.99985 0.0175 0
    outer loop
      vertex -4.765 9.3 20
      vertex -4.765 9.3 0
      vertex -4.76617 9.23293 0
    endloop
  endfacet
  facet normal -0.99985 0.0175 0
    outer loop
      vertex -4.765 9.3 20
      vertex -4.76617 9.23293 0
      vertex -4.76617 9.23293 20
    endloop
  endfacet
  facet normal 0.0175 0.99985 0
    outer loop
      vertex 5.2 9.12558 20
      vertex 5.2 9.12558 0
      vertex -4.765 9.3 20
    endloop
  endfacet
  facet normal 1 0 0
    outer loop
      vertex 9.2 -5.473 2.151
      vertex 9.2 -7.704 3.324
      vertex 9.2 -16.8 0
    endloop
  endfacet
  facet normal 1 0 0
    outer loop
      vertex 9.2 -7.704 3.324
      vertex 9.2 -9.474 5.149
      vertex 9.2 -16.8 0
    endloop
  endfacet
  facet normal 1 0 0
    outer loop
      vertex 9.2 -16.8 0
      vertex 9.2 -10.611 7.45
      vertex 9.2 -11.003 10
    endloop
  endfacet
  facet normal 1 0 0
    outer loop
      vertex 9.2 -11.003 10
      vertex 9.2 -10.611 12.55
      vertex 9.2 -16.8 20
    endloop
  endfacet
  facet normal 1 0 0
    outer loop
      vertex 9.2 -16.8 0
      vertex 9.2 -11.003 10
      vertex 9.2 -16.8 20
    endloop
  endfacet
  facet normal -1 0 0
    outer loop
      vertex 5.2 4.611 7.45
      vertex 5.2 7.24023 0
      vertex 5.2 3.474 5.149
    endloop
  endfacet
  facet normal 0 1 0
    outer loop
      vertex 9.2 9.2 20
      vertex 9.2 9.2 0
      vertex 5.2 9.2 20
    endloop
  endfacet
  facet normal 0 -0.46537 -0.88512
    outer loop
      vertex 5.2 1.704 16.676
      vertex 9.2 1.704 16.676
      vertex 9.2 -0.527 17.849
    endloop
  endfacet
  facet normal 0 -0.46537 -0.88512
    outer loop
      vertex 5.2 1.704 16.676
      vertex 9.2 -0.527 17.849
      vertex 5.2 -0.527 17.849
    endloop
  endfacet
  facet normal 0 1 0
    outer loop
      vertex 9.2 9.2 0
      vertex 5.2 9.2 0
      vertex 5.2 9.2 20
    endloop
  endfacet
  facet normal -1 0 0
    outer loop
      vertex 5.2 5.003 10
      vertex 5.2 7.24023 0
      vertex 5.2 4.611 7.45
    endloop
  endfacet
  facet normal -1 0 0
    outer loop
      vertex 5.2 1.704 3.324
      vertex 5.2 3.474 5.149
      vertex 5.2 7.24023 0
    endloop
  endfacet
  facet normal 0 -0.16084 0.98698
    outer loop
      vertex 9.2 -0.527 2.151
      vertex 5.2 -0.527 2.151
      vertex 5.2 -3 1.748
    endloop
  endfacet
  facet normal 0 -0.16084 0.98698
    outer loop
      vertex 9.2 -0.527 2.151
      vertex 5.2 -3 1.748
      vertex 9.2 -3 1.748
    endloop
  endfacet
  facet normal 0 -0.16123 -0.98692
    outer loop
      vertex 5.2 -0.527 17.849
      vertex 9.2 -0.527 17.849
      vertex 9.2 -3 18.253
    endloop
  endfacet
  facet normal 0 -0.16123 -0.98692
    outer loop
      vertex 5.2 -0.527 17.849
      vertex 9.2 -3 18.253
      vertex 5.2 -3 18.253
    endloop
  endfacet
  facet normal 0 0.16123 -0.98692
    outer loop
      vertex 5.2 -3 18.253
      vertex 9.2 -3 18.253
      vertex 9.2 -5.473 17.849
    endloop
  endfacet
  facet normal 0 0.16123 -0.98692
    outer loop
      vertex 5.2 -3 18.253
      vertex 9.2 -5.473 17.849
      vertex 5.2 -5.473 17.849
    endloop
  endfacet
  facet normal 0 -0.46537 0.88512
    outer loop
      vertex 9.2 1.704 3.324
      vertex 5.2 1.704 3.324
      vertex 5.2 -0.527 2.151
    endloop
  endfacet
  facet normal 0 -0.46537 0.88512
    outer loop
      vertex 9.2 1.704 3.324
      vertex 5.2 -0.527 2.151
      vertex 9.2 -0.527 2.151
    endloop
  endfacet
  facet normal 0 0.46537 -0.88512
    outer loop
      vertex 5.2 -5.473 17.849
      vertex 9.2 -5.473 17.849
      vertex 9.2 -7.704 16.676
    endloop
  endfacet
  facet normal 0 0.46537 -0.88512
    outer loop
      vertex 5.2 -5.473 17.849
      vertex 9.2 -7.704 16.676
      vertex 5.2 -7.704 16.676
    endloop
  endfacet
  facet normal 0 0.71784 -0.69621
    outer loop
      vertex 9.2 -9.474 14.851
      vertex 5.2 -9.474 14.851
      vertex 9.2 -7.704 16.676
    endloop
  endfacet
  facet normal 0 0.71784 -0.69621
    outer loop
      vertex 5.2 -7.704 16.676
      vertex 9.2 -7.704 16.676
      vertex 5.2 -9.474 14.851
    endloop
  endfacet
  facet normal 0 -0.71784 0.69621
    outer loop
      vertex 9.2 3.474 5.149
      vertex 5.2 3.474 5.149
      vertex 5.2 1.704 3.324
    endloop
  endfacet
  facet normal 0 -0.71784 0.69621
    outer loop
      vertex 9.2 3.474 5.149
      vertex 5.2 1.704 3.324
      vertex 9.2 1.704 3.324
    endloop
  endfacet
  facet normal -1 0 0
    outer loop
      vertex 5.2 -10.611 12.55
      vertex 5.2 -14.67412 20
      vertex 5.2 -9.474 14.851
    endloop
  endfacet
  facet normal -1 0 0
    outer loop
      vertex 5.2 7.24023 20
      vertex 5.2 -0.527 17.849
      vertex 5.2 -3 18.253
    endloop
  endfacet
  facet normal -1 0 0
    outer loop
      vertex 5.2 -5.473 17.849
      vertex 5.2 -14.67412 20
      vertex 5.2 -3 18.253
    endloop
  endfacet
  facet normal -1 0 0
    outer loop
      vertex 5.2 -5.473 17.849
      vertex 5.2 -7.704 16.676
      vertex 5.2 -14.67412 20
    endloop
  endfacet
  facet normal -1 0 0
    outer loop
      vertex 5.2 7.24023 20
      vertex 5.2 -3 18.253
      vertex 5.2 -14.67412 20
    endloop
  endfacet
  facet normal -1 0 0
    outer loop
      vertex 5.2 -14.67412 20
      vertex 5.2 -7.704 16.676
      vertex 5.2 -9.474 14.851
    endloop
  endfacet
  facet normal 0 -0.89652 0.443
    outer loop
      vertex 9.2 4.611 7.45
      vertex 5.2 4.611 7.45
      vertex 5.2 3.474 5.149
    endloop
  endfacet
  facet normal 0 -0.89652 0.443
    outer loop
      vertex 9.2 4.611 7.45
      vertex 5.2 3.474 5.149
      vertex 9.2 3.474 5.149
    endloop
  endfacet
  facet normal -1 0 0
    outer loop
      vertex 5.2 7.24023 20
      vertex 5.2 7.24023 0
      vertex 5.2 5.003 10
    endloop
  endfacet
  facet normal -1 0 0
    outer loop
      vertex 5.2 7.24023 20
      vertex 5.2 5.003 10
      vertex 5.2 4.611 12.55
    endloop
  endfacet
  facet normal -1 0 0
    outer loop
      vertex 5.2 7.24023 20
      vertex 5.2 4.611 12.55
      vertex 5.2 3.474 14.851
    endloop
  endfacet
  facet normal -1 0 0
    outer loop
      vertex 5.2 1.704 16.676
      vertex 5.2 7.24023 20
      vertex 5.2 3.474 14.851
    endloop
  endfacet
  facet normal 0 -0.98839 0.15194
    outer loop
      vertex 9.2 5.003 10
      vertex 5.2 5.003 10
      vertex 5.2 4.611 7.45
    endloop
  endfacet
  facet normal 0 -0.98839 0.15194
    outer loop
      vertex 9.2 5.003 10
      vertex 5.2 4.611 7.45
      vertex 9.2 4.611 7.45
    endloop
  endfacet
  facet normal -1 0 0
    outer loop
      vertex 5.2 9.2 20
      vertex 5.2 9.12558 0
      vertex 5.2 9.12558 20
    endloop
  endfacet
  facet normal 1 0 0
    outer loop
      vertex 9.2 -0.527 2.151
      vertex 9.2 9.2 0
      vertex 9.2 1.704 3.324
    endloop
  endfacet
  facet normal 1 0 0
    outer loop
      vertex 9.2 3.474 5.149
      vertex 9.2 9.2 0
      vertex 9.2 4.611 7.45
    endloop
  endfacet
  facet normal 0 -0.98839 -0.15194
    outer loop
      vertex 9.2 4.611 12.55
      vertex 5.2 4.611 12.55
      vertex 5.2 5.003 10
    endloop
  endfacet
  facet normal 0 -0.98839 -0.15194
    outer loop
      vertex 9.2 4.611 12.55
      vertex 5.2 5.003 10
      vertex 9.2 5.003 10
    endloop
  endfacet
  facet normal -1 0 0
    outer loop
      vertex 5.2 -0.527 2.151
      vertex 5.2 7.24023 0
      vertex 5.2 -3 1.748
    endloop
  endfacet
  facet normal -1 0 0
    outer loop
      vertex 5.2 1.704 3.324
      vertex 5.2 7.24023 0
      vertex 5.2 -0.527 2.151
    endloop
  endfacet
  facet normal -1 0 0
    outer loop
      vertex 5.2 -14.67412 0
      vertex 5.2 -3 1.748
      vertex 5.2 7.24023 0
    endloop
  endfacet
  facet normal 0 -0.89652 -0.443
    outer loop
      vertex 9.2 3.474 14.851
      vertex 5.2 3.474 14.851
      vertex 5.2 4.611 12.55
    endloop
  endfacet
  facet normal 0 -0.89652 -0.443
    outer loop
      vertex 9.2 3.474 14.851
      vertex 5.2 4.611 12.55
      vertex 9.2 4.611 12.55
    endloop
  endfacet
  facet normal -1 0 0
    outer loop
      vertex 5.2 9.2 0
      vertex 5.2 9.12558 0
      vertex 5.2 9.2 20
    endloop
  endfacet
  facet normal 0 -0.71784 -0.69621
    outer loop
      vertex 9.2 1.704 16.676
      vertex 5.2 1.704 16.676
      vertex 5.2 3.474 14.851
    endloop
  endfacet
  facet normal 0 -0.71784 -0.69621
    outer loop
      vertex 9.2 1.704 16.676
      vertex 5.2 3.474 14.851
      vertex 9.2 3.474 14.851
    endloop
  endfacet
  facet normal -1 0 0
    outer loop
      vertex 5.2 -16.67374 20
      vertex 5.2 -16.67374 0
      vertex 5.2 -16.8 0
    endloop
  endfacet
  facet normal -1 0 0
    outer loop
      vertex 5.2 -16.67374 20
      vertex 5.2 -16.8 0
      vertex 5.2 -16.8 20
    endloop
  endfacet
  facet normal 1 0 0
    outer loop
      vertex 9.2 4.611 12.55
      vertex 9.2 9.2 20
      vertex 9.2 3.474 14.851
    endloop
  endfacet
  facet normal -1 0 0
    outer loop
      vertex 5.2 -11.003 10
      vertex 5.2 -14.67412 20
      vertex 5.2 -10.611 12.55
    endloop
  endfacet
  facet normal -1 0 0
    outer loop
      vertex 5.2 -10.611 7.45
      vertex 5.2 -14.67412 0
      vertex 5.2 -11.003 10
    endloop
  endfacet
  facet normal -1 0 0
    outer loop
      vertex 5.2 -10.611 7.45
      vertex 5.2 -9.474 5.149
      vertex 5.2 -14.67412 0
    endloop
  endfacet
  facet normal -1 0 0
    outer loop
      vertex 5.2 -14.67412 0
      vertex 5.2 -14.67412 20
      vertex 5.2 -11.003 10
    endloop
  endfacet
  facet normal 1 0 0
    outer loop
      vertex 9.2 -7.704 16.676
      vertex 9.2 -16.8 20
      vertex 9.2 -9.474 14.851
    endloop
  endfacet
  facet normal 1 0 0
    outer loop
      vertex 9.2 -10.611 12.55
      vertex 9.2 -9.474 14.851
      vertex 9.2 -16.8 20
    endloop
  endfacet
  facet normal 1 0 0
    outer loop
      vertex 9.2 -10.611 7.45
      vertex 9.2 -16.8 0
      vertex 9.2 -9.474 5.149
    endloop
  endfacet
endsolid stl_item0
