solid stl_item0
  facet normal 0 0 -1
    outer loop
      vertex 17.14677 -13.52 0
      vertex 17.14509 -13.61607 0
      vertex 10.18 -13.4986 0
    endloop
  endfacet
  facet normal 0 0 -1
    outer loop
      vertex 17.145 -13.621 0
      vertex 10.18 -13.4986 0
      vertex 17.14509 -13.61607 0
    endloop
  endfacet
  facet normal -0.01757 -0.99985 0
    outer loop
      vertex 10.18 -13.4986 0
      vertex 17.145 -13.621 0
      vertex 12.248 -13.53494 2.497
    endloop
  endfacet
  facet normal -0.01757 -0.99985 0
    outer loop
      vertex 15.253 -13.58775 15.502
      vertex 17.145 -13.621 18
      vertex 12.248 -13.53494 15.502
    endloop
  endfacet
  facet normal -0.01757 -0.99985 0
    outer loop
      vertex 10.18 -13.4986 18
      vertex 10.18 -13.4986 0
      vertex 12.248 -13.53494 15.502
    endloop
  endfacet
  facet normal 0 0 -1
    outer loop
      vertex 16.963 -11.61722 0
      vertex 10.18 -13.4986 0
      vertex 10.18 -11.55611 0
    endloop
  endfacet
  facet normal 0 0 -1
    outer loop
      vertex 10.181 -11.499 0
      vertex 16.963 -11.61722 0
      vertex 10.18 -11.55611 0
    endloop
  endfacet
  facet normal 0.06951 -0.99758 0
    outer loop
      vertex 19.098 -13.48 18
      vertex 17.14509 -13.61607 0
      vertex 19.098 -13.48 0
    endloop
  endfacet
  facet normal 0.0175 -0.99985 0
    outer loop
      vertex 16.924 -2.253 18
      vertex 18.924 -2.218 0
      vertex 18.924 -2.218 18
    endloop
  endfacet
  facet normal 0 0 -1
    outer loop
      vertex 17.18 -11.621 0
      vertex 17.14677 -13.52 0
      vertex 16.963 -11.61722 0
    endloop
  endfacet
  facet normal 0 0 -1
    outer loop
      vertex 10.18 -13.4986 0
      vertex 16.963 -11.61722 0
      vertex 17.14677 -13.52 0
    endloop
  endfacet
  facet normal -0.0175 0.99985 0
    outer loop
      vertex 18.776 6.28 18
      vertex 18.776 6.28 0
      vertex 17.0795 6.25031 18
    endloop
  endfacet
  facet normal 0.99985 0.01741 0
    outer loop
      vertex 18.776 6.28 18
      vertex 18.924 -2.218 18
      vertex 18.924 -2.218 0
    endloop
  endfacet
  facet normal 0.99985 0.01741 0
    outer loop
      vertex 18.776 6.28 18
      vertex 18.924 -2.218 0
      vertex 18.776 6.28 0
    endloop
  endfacet
  facet normal -0.07 0.99755 0
    outer loop
      vertex 18.505 -5 18
      vertex 18.505 -5 0
      vertex 16.51 -5.14 18
    endloop
  endfacet
  facet normal 0 0 -1
    outer loop
      vertex 10.18 4.39965 0
      vertex 8.18 6.48 0
      vertex 10.18 6.39927 0
    endloop
  endfacet
  facet normal 0 0 -1
    outer loop
      vertex 10.18 -11.55611 0
      vertex 8.18 -13.52 0
      vertex 10.18 4.39965 0
    endloop
  endfacet
  facet normal 0 0 -1
    outer loop
      vertex 10.18 -13.4986 0
      vertex 8.18 -13.52 0
      vertex 10.18 -11.55611 0
    endloop
  endfacet
  facet normal 0 0 -1
    outer loop
      vertex 10.18 -13.52 0
      vertex 8.18 -13.52 0
      vertex 10.18 -13.4986 0
    endloop
  endfacet
  facet normal 0 0 -1
    outer loop
      vertex 8.18 6.48 0
      vertex 10.18 4.39965 0
      vertex 8.18 -13.52 0
    endloop
  endfacet
  facet normal 0 0 -1
    outer loop
      vertex 10.18 6.48 0
      vertex 10.18 6.39927 0
      vertex 8.18 6.48 0
    endloop
  endfacet
  facet normal 0.99756 0.06976 0
    outer loop
      vertex 18.505 -5 18
      vertex 19.098 -13.48 18
      vertex 19.098 -13.48 0
    endloop
  endfacet
  facet normal 0.99756 0.06976 0
    outer loop
      vertex 18.505 -5 18
      vertex 19.098 -13.48 0
      vertex 18.505 -5 0
    endloop
  endfacet
  facet normal 0 0 1
    outer loop
      vertex 17.14677 -13.52 18
      vertex 17.14509 -13.61607 18
      vertex 19.098 -13.48 18
    endloop
  endfacet
  facet normal 0 0 1
    outer loop
      vertex 17.14509 -13.61607 18
      vertex 17.14677 -13.52 18
      vertex 10.18 -13.4986 18
    endloop
  endfacet
  facet normal -0.99985 0.01751 0
    outer loop
      vertex 10.181 -11.499 18
      vertex 10.181 -11.499 0
      vertex 10.18 -11.55611 0
    endloop
  endfacet
  facet normal -0.99985 0.01751 0
    outer loop
      vertex 10.181 -11.499 18
      vertex 10.18 -11.55611 0
      vertex 10.18 -11.55611 18
    endloop
  endfacet
  facet normal 0 0 -1
    outer loop
      vertex 17.14509 -13.61607 0
      vertex 17.14677 -13.52 0
      vertex 19.098 -13.48 0
    endloop
  endfacet
  facet normal 0 0 -1
    outer loop
      vertex 17.18 -11.621 0
      vertex 19.098 -13.48 0
      vertex 17.14677 -13.52 0
    endloop
  endfacet
  facet normal 0 0 -1
    outer loop
      vertex 18.505 -5 0
      vertex 19.098 -13.48 0
      vertex 17.18 -11.621 0
    endloop
  endfacet
  facet normal 0 0 1
    outer loop
      vertex 10.18 -13.4986 18
      vertex 17.145 -13.621 18
      vertex 17.14509 -13.61607 18
    endloop
  endfacet
  facet normal 0 0 -1
    outer loop
      vertex 17.0795 6.25031 0
      vertex 16.776 6.245 0
      vertex 17.08 6.279 0
    endloop
  endfacet
  facet normal 0 0 -1
    outer loop
      vertex 10.18 6.39927 0
      vertex 17.08 6.279 0
      vertex 16.776 6.245 0
    endloop
  endfacet
  facet normal 0 0 1
    outer loop
      vertex 17.0795 6.25031 18
      vertex 16.81017 4.28313 18
      vertex 18.776 6.28 18
    endloop
  endfacet
  facet normal 0 0 1
    outer loop
      vertex 18.776 6.28 18
      vertex 16.81017 4.28313 18
      vertex 18.924 -2.218 18
    endloop
  endfacet
  facet normal 0 0 -1
    outer loop
      vertex 16.81017 4.28313 0
      vertex 10.18 4.39965 0
      vertex 16.776 6.245 0
    endloop
  endfacet
  facet normal 0 0 -1
    outer loop
      vertex 10.18 6.39927 0
      vertex 16.776 6.245 0
      vertex 10.18 4.39965 0
    endloop
  endfacet
  facet normal 0 0 1
    outer loop
      vertex 16.51 -5.14 18
      vertex 17.18 -11.621 18
      vertex 18.505 -5 18
    endloop
  endfacet
  facet normal 0 0 1
    outer loop
      vertex 19.098 -13.48 18
      vertex 18.505 -5 18
      vertex 17.18 -11.621 18
    endloop
  endfacet
  facet normal 0 0 1
    outer loop
      vertex 17.14677 -13.52 18
      vertex 19.098 -13.48 18
      vertex 17.18 -11.621 18
    endloop
  endfacet
  facet normal 0 0 -1
    outer loop
      vertex 16.776 6.245 0
      vertex 17.0795 6.25031 0
      vertex 16.81017 4.28313 0
    endloop
  endfacet
  facet normal 0 0 -1
    outer loop
      vertex 17.0795 6.25031 0
      vertex 18.776 6.28 0
      vertex 16.81017 4.28313 0
    endloop
  endfacet
  facet normal 0 0 -1
    outer loop
      vertex 18.924 -2.218 0
      vertex 16.81017 4.28313 0
      vertex 18.776 6.28 0
    endloop
  endfacet
  facet normal 0 0 -1
    outer loop
      vertex 16.924 -2.253 0
      vertex 16.81017 4.28313 0
      vertex 18.924 -2.218 0
    endloop
  endfacet
  facet normal 0 0 -1
    outer loop
      vertex 18.505 -5 0
      vertex 17.18 -11.621 0
      vertex 16.51 -5.14 0
    endloop
  endfacet
  facet normal 0 0 -1
    outer loop
      vertex 16.963 -11.61722 0
      vertex 16.51 -5.14 0
      vertex 17.18 -11.621 0
    endloop
  endfacet
  facet normal 0 0 1
    outer loop
      vertex 10.18 4.39965 18
      vertex 16.776 6.245 18
      vertex 10.18 6.39927 18
    endloop
  endfacet
  facet normal 0 0 1
    outer loop
      vertex 17.08 6.279 18
      vertex 10.18 6.39927 18
      vertex 16.776 6.245 18
    endloop
  endfacet
  facet normal 0 0 1
    outer loop
      vertex 17.08 6.279 18
      vertex 16.776 6.245 18
      vertex 17.0795 6.25031 18
    endloop
  endfacet
  facet normal 0.0175 -0.99985 0
    outer loop
      vertex 18.924 -2.218 0
      vertex 16.924 -2.253 18
      vertex 16.924 -2.253 0
    endloop
  endfacet
  facet normal -0.01757 -0.99985 0
    outer loop
      vertex 10.18 -13.4986 18
      vertex 12.248 -13.53494 15.502
      vertex 17.145 -13.621 18
    endloop
  endfacet
  facet normal -0.01757 -0.99985 0
    outer loop
      vertex 15.253 -13.58775 2.497
      vertex 17.145 -13.621 0
      vertex 15.253 -13.58775 15.502
    endloop
  endfacet
  facet normal -0.01757 -0.99985 0
    outer loop
      vertex 15.253 -13.58775 2.497
      vertex 12.248 -13.53494 2.497
      vertex 17.145 -13.621 0
    endloop
  endfacet
  facet normal -0.01757 -0.99985 0
    outer loop
      vertex 17.145 -13.621 18
      vertex 15.253 -13.58775 15.502
      vertex 17.145 -13.621 0
    endloop
  endfacet
  facet normal 0 0 1
    outer loop
      vertex 15.253 -13.58775 2.497
      vertex 15.253 -11.58741 2.497
      vertex 12.248 -13.53494 2.497
    endloop
  endfacet
  facet normal 0 0 -1
    outer loop
      vertex 12.248 -11.53503 15.502
      vertex 15.253 -11.58741 15.502
      vertex 12.248 -13.53494 15.502
    endloop
  endfacet
  facet normal 1 0 0
    outer loop
      vertex 10.18 4.39965 18
      vertex 10.18 -11.55611 18
      vertex 10.18 -4.998 15.502
    endloop
  endfacet
  facet normal 1 0 0
    outer loop
      vertex 10.18 -8.503 15.502
      vertex 10.18 -4.998 15.502
      vertex 10.18 -11.55611 18
    endloop
  endfacet
  facet normal 1 0 0
    outer loop
      vertex 10.18 -11.55611 0
      vertex 10.18 -8.503 15.502
      vertex 10.18 -11.55611 18
    endloop
  endfacet
  facet normal 1 0 0
    outer loop
      vertex 12.248 -11.53503 15.502
      vertex 12.248 -13.53494 15.502
      vertex 12.248 -13.53494 2.497
    endloop
  endfacet
  facet normal 1 0 0
    outer loop
      vertex 12.248 -11.53503 15.502
      vertex 12.248 -13.53494 2.497
      vertex 12.248 -11.53503 2.497
    endloop
  endfacet
  facet normal 0 0 1
    outer loop
      vertex 12.248 -11.53503 2.497
      vertex 12.248 -13.53494 2.497
      vertex 15.253 -11.58741 2.497
    endloop
  endfacet
  facet normal -1 0 0
    outer loop
      vertex 15.253 -11.58741 2.497
      vertex 15.253 -13.58775 2.497
      vertex 15.253 -13.58775 15.502
    endloop
  endfacet
  facet normal 0 0 -1
    outer loop
      vertex 15.253 -13.58775 15.502
      vertex 12.248 -13.53494 15.502
      vertex 15.253 -11.58741 15.502
    endloop
  endfacet
  facet normal 0.99985 -0.0175 0
    outer loop
      vertex 17.0795 6.25031 18
      vertex 17.0795 6.25031 0
      vertex 17.08 6.279 0
    endloop
  endfacet
  facet normal 0.99985 -0.0175 0
    outer loop
      vertex 17.0795 6.25031 18
      vertex 17.08 6.279 0
      vertex 17.08 6.279 18
    endloop
  endfacet
  facet normal 0 -1 0
    outer loop
      vertex 8.18 -13.52 0
      vertex 10.18 -13.52 18
      vertex 8.18 -13.52 18
    endloop
  endfacet
  facet normal -1 0 0
    outer loop
      vertex 8.18 -4.998 15.502
      vertex 8.18 6.48 0
      vertex 8.18 -4.998 2.497
    endloop
  endfacet
  facet normal -1 0 0
    outer loop
      vertex 15.253 -13.58775 15.502
      vertex 15.253 -11.58741 15.502
      vertex 15.253 -11.58741 2.497
    endloop
  endfacet
  facet normal -1 0 0
    outer loop
      vertex 8.18 -8.503 15.502
      vertex 8.18 -8.503 2.497
      vertex 8.18 -13.52 0
    endloop
  endfacet
  facet normal -1 0 0
    outer loop
      vertex 8.18 -8.503 15.502
      vertex 8.18 -13.52 0
      vertex 8.18 -13.52 18
    endloop
  endfacet
  facet normal 1 0 0
    outer loop
      vertex 10.18 6.39927 0
      vertex 10.18 6.48 18
      vertex 10.18 6.39927 18
    endloop
  endfacet
  facet normal 0 -1 0
    outer loop
      vertex 10.18 -13.52 18
      vertex 8.18 -13.52 0
      vertex 10.18 -13.52 0
    endloop
  endfacet
  facet normal -1 0 0
    outer loop
      vertex 8.18 -8.503 2.497
      vertex 8.18 -4.998 2.497
      vertex 8.18 -13.52 0
    endloop
  endfacet
  facet normal -1 0 0
    outer loop
      vertex 8.18 6.48 0
      vertex 8.18 -13.52 0
      vertex 8.18 -4.998 2.497
    endloop
  endfacet
  facet normal 1 0 0
    outer loop
      vertex 10.18 -4.998 15.502
      vertex 10.18 -4.998 2.497
      vertex 10.18 4.39965 0
    endloop
  endfacet
  facet normal 1 0 0
    outer loop
      vertex 10.18 -4.998 15.502
      vertex 10.18 4.39965 0
      vertex 10.18 4.39965 18
    endloop
  endfacet
  facet normal -1 0 0
    outer loop
      vertex 8.18 -8.503 15.502
      vertex 8.18 -13.52 18
      vertex 8.18 -4.998 15.502
    endloop
  endfacet
  facet normal -1 0 0
    outer loop
      vertex 8.18 -13.52 18
      vertex 8.18 6.48 18
      vertex 8.18 -4.998 15.502
    endloop
  endfacet
  facet normal -1 0 0
    outer loop
      vertex 8.18 6.48 0
      vertex 8.18 -4.998 15.502
      vertex 8.18 6.48 18
    endloop
  endfacet
  facet normal 0 -1 0
    outer loop
      vertex 10.18 -4.998 15.502
      vertex 8.18 -4.998 15.502
      vertex 8.18 -4.998 2.497
    endloop
  endfacet
  facet normal 0 -1 0
    outer loop
      vertex 10.18 -4.998 15.502
      vertex 8.18 -4.998 2.497
      vertex 10.18 -4.998 2.497
    endloop
  endfacet
  facet normal 1 0 0
    outer loop
      vertex 10.18 -8.503 15.502
      vertex 10.18 -11.55611 0
      vertex 10.18 -8.503 2.497
    endloop
  endfacet
  facet normal 0 1 0
    outer loop
      vertex 8.18 -8.503 15.502
      vertex 10.18 -8.503 15.502
      vertex 10.18 -8.503 2.497
    endloop
  endfacet
  facet normal 0 1 0
    outer loop
      vertex 8.18 -8.503 15.502
      vertex 10.18 -8.503 2.497
      vertex 8.18 -8.503 2.497
    endloop
  endfacet
  facet normal 0 0 1
    outer loop
      vertex 10.18 -4.998 2.497
      vertex 8.18 -4.998 2.497
      vertex 8.18 -8.503 2.497
    endloop
  endfacet
  facet normal 0 0 1
    outer loop
      vertex 10.18 -4.998 2.497
      vertex 8.18 -8.503 2.497
      vertex 10.18 -8.503 2.497
    endloop
  endfacet
  facet normal 1 0 0
    outer loop
      vertex 10.18 6.48 18
      vertex 10.18 6.39927 0
      vertex 10.18 6.48 0
    endloop
  endfacet
  facet normal 0 0 -1
    outer loop
      vertex 10.18 -8.503 15.502
      vertex 8.18 -8.503 15.502
      vertex 8.18 -4.998 15.502
    endloop
  endfacet
  facet normal 0 0 -1
    outer loop
      vertex 10.18 -8.503 15.502
      vertex 8.18 -4.998 15.502
      vertex 10.18 -4.998 15.502
    endloop
  endfacet
  facet normal 0.01743 0.99985 0
    outer loop
      vertex 17.08 6.279 0
      vertex 10.18 6.39927 0
      vertex 10.18 6.39927 18
    endloop
  endfacet
  facet normal 0.01743 0.99985 0
    outer loop
      vertex 17.08 6.279 0
      vertex 10.18 6.39927 18
      vertex 17.08 6.279 18
    endloop
  endfacet
  facet normal 1 0 0
    outer loop
      vertex 10.18 -8.503 2.497
      vertex 10.18 -11.55611 0
      vertex 10.18 -4.998 2.497
    endloop
  endfacet
  facet normal 1 0 0
    outer loop
      vertex 10.18 4.39965 0
      vertex 10.18 -4.998 2.497
      vertex 10.18 -11.55611 0
    endloop
  endfacet
  facet normal -0.0175 0.99985 0
    outer loop
      vertex 17.0795 6.25031 18
      vertex 18.776 6.28 0
      vertex 17.0795 6.25031 0
    endloop
  endfacet
  facet normal 1 0 0
    outer loop
      vertex 10.18 -13.4986 0
      vertex 10.18 -13.4986 18
      vertex 10.18 -13.52 18
    endloop
  endfacet
  facet normal 1 0 0
    outer loop
      vertex 10.18 -13.4986 0
      vertex 10.18 -13.52 18
      vertex 10.18 -13.52 0
    endloop
  endfacet
  facet normal -0.01757 -0.99985 0
    outer loop
      vertex 10.18 4.39965 18
      vertex 10.18 4.39965 0
      vertex 16.81017 4.28313 18
    endloop
  endfacet
  facet normal -0.01757 -0.99985 0
    outer loop
      vertex 16.81017 4.28313 0
      vertex 16.81017 4.28313 18
      vertex 10.18 4.39965 0
    endloop
  endfacet
  facet normal -0.99985 -0.01741 0
    outer loop
      vertex 16.81017 4.28313 18
      vertex 16.81017 4.28313 0
      vertex 16.924 -2.253 0
    endloop
  endfacet
  facet normal -0.99985 -0.01741 0
    outer loop
      vertex 16.81017 4.28313 18
      vertex 16.924 -2.253 0
      vertex 16.924 -2.253 18
    endloop
  endfacet
  facet normal -0.07 0.99755 0
    outer loop
      vertex 16.51 -5.14 18
      vertex 18.505 -5 0
      vertex 16.51 -5.14 0
    endloop
  endfacet
  facet normal -0.99756 -0.06977 0
    outer loop
      vertex 16.51 -5.14 0
      vertex 16.963 -11.61722 0
      vertex 16.963 -11.61722 18
    endloop
  endfacet
  facet normal -0.99756 -0.06977 0
    outer loop
      vertex 16.51 -5.14 0
      vertex 16.963 -11.61722 18
      vertex 16.51 -5.14 18
    endloop
  endfacet
  facet normal 0.01743 0.99985 0
    outer loop
      vertex 12.248 -11.53503 2.497
      vertex 15.253 -11.58741 2.497
      vertex 16.963 -11.61722 0
    endloop
  endfacet
  facet normal 0.01743 0.99985 0
    outer loop
      vertex 12.248 -11.53503 15.502
      vertex 16.963 -11.61722 18
      vertex 15.253 -11.58741 15.502
    endloop
  endfacet
  facet normal 0.01743 0.99985 0
    outer loop
      vertex 12.248 -11.53503 2.497
      vertex 10.181 -11.499 0
      vertex 12.248 -11.53503 15.502
    endloop
  endfacet
  facet normal 0.01743 0.99985 0
    outer loop
      vertex 16.963 -11.61722 0
      vertex 10.181 -11.499 0
      vertex 12.248 -11.53503 2.497
    endloop
  endfacet
  facet normal 0.01743 0.99985 0
    outer loop
      vertex 10.181 -11.499 0
      vertex 10.181 -11.499 18
      vertex 12.248 -11.53503 15.502
    endloop
  endfacet
  facet normal 0.01743 0.99985 0
    outer loop
      vertex 16.963 -11.61722 18
      vertex 12.248 -11.53503 15.502
      vertex 10.181 -11.499 18
    endloop
  endfacet
  facet normal 0.01743 0.99985 0
    outer loop
      vertex 15.253 -11.58741 2.497
      vertex 15.253 -11.58741 15.502
      vertex 16.963 -11.61722 0
    endloop
  endfacet
  facet normal 0.01743 0.99985 0
    outer loop
      vertex 16.963 -11.61722 18
      vertex 16.963 -11.61722 0
      vertex 15.253 -11.58741 15.502
    endloop
  endfacet
  facet normal -0.01757 -0.99985 0
    outer loop
      vertex 12.248 -13.53494 2.497
      vertex 12.248 -13.53494 15.502
      vertex 10.18 -13.4986 0
    endloop
  endfacet
  facet normal 0 0 1
    outer loop
      vertex 16.776 6.245 18
      vertex 10.18 4.39965 18
      vertex 16.81017 4.28313 18
    endloop
  endfacet
  facet normal 0 0 1
    outer loop
      vertex 16.776 6.245 18
      vertex 16.81017 4.28313 18
      vertex 17.0795 6.25031 18
    endloop
  endfacet
  facet normal 0 0 1
    outer loop
      vertex 16.924 -2.253 18
      vertex 18.924 -2.218 18
      vertex 16.81017 4.28313 18
    endloop
  endfacet
  facet normal 0 0 1
    outer loop
      vertex 16.51 -5.14 18
      vertex 16.963 -11.61722 18
      vertex 17.18 -11.621 18
    endloop
  endfacet
  facet normal 0 0 1
    outer loop
      vertex 10.18 -13.4986 18
      vertex 17.14677 -13.52 18
      vertex 16.963 -11.61722 18
    endloop
  endfacet
  facet normal 0 0 1
    outer loop
      vertex 10.181 -11.499 18
      vertex 10.18 -11.55611 18
      vertex 16.963 -11.61722 18
    endloop
  endfacet
  facet normal 0 0 1
    outer loop
      vertex 16.963 -11.61722 18
      vertex 10.18 -11.55611 18
      vertex 10.18 -13.4986 18
    endloop
  endfacet
  facet normal 0 0 1
    outer loop
      vertex 17.18 -11.621 18
      vertex 16.963 -11.61722 18
      vertex 17.14677 -13.52 18
    endloop
  endfacet
  facet normal 0 0 1
    outer loop
      vertex 10.18 -13.52 18
      vertex 10.18 -13.4986 18
      vertex 8.18 -13.52 18
    endloop
  endfacet
  facet normal 0 0 1
    outer loop
      vertex 10.18 -13.4986 18
      vertex 10.18 -11.55611 18
      vertex 8.18 -13.52 18
    endloop
  endfacet
  facet normal 0 0 1
    outer loop
      vertex 10.18 -11.55611 18
      vertex 10.18 4.39965 18
      vertex 8.18 -13.52 18
    endloop
  endfacet
  facet normal 0 0 1
    outer loop
      vertex 8.18 6.48 18
      vertex 8.18 -13.52 18
      vertex 10.18 4.39965 18
    endloop
  endfacet
  facet normal 0 0 1
    outer loop
      vertex 8.18 6.48 18
      vertex 10.18 4.39965 18
      vertex 10.18 6.39927 18
    endloop
  endfacet
  facet normal 0 0 1
    outer loop
      vertex 8.18 6.48 18
      vertex 10.18 6.39927 18
      vertex 10.18 6.48 18
    endloop
  endfacet
  facet normal 0 1 0
    outer loop
      vertex 8.18 6.48 0
      vertex 8.18 6.48 18
      vertex 10.18 6.48 18
    endloop
  endfacet
  facet normal 0 1 0
    outer loop
      vertex 8.18 6.48 0
      vertex 10.18 6.48 18
      vertex 10.18 6.48 0
    endloop
  endfacet
  facet normal 0.06951 -0.99758 0
    outer loop
      vertex 17.14509 -13.61607 18
      vertex 17.14509 -13.61607 0
      vertex 19.098 -13.48 18
    endloop
  endfacet
  facet normal 0.99985 -0.0175 0
    outer loop
      vertex 17.145 -13.621 18
      vertex 17.145 -13.621 0
      vertex 17.14509 -13.61607 0
    endloop
  endfacet
  facet normal 0.99985 -0.0175 0
    outer loop
      vertex 17.145 -13.621 18
      vertex 17.14509 -13.61607 0
      vertex 17.14509 -13.61607 18
    endloop
  endfacet
endsolid stl_item0
