solid stl_item0
  facet normal 1 0 0
    outer loop
      vertex -4 -99 1.5
      vertex -4 -99 0
      vertex -4 101 0
    endloop
  endfacet
  facet normal 1 0 0
    outer loop
      vertex -4 -99 1.5
      vertex -4 101 0
      vertex -4 101 1.5
    endloop
  endfacet
  facet normal 0 0 1
    outer loop
      vertex -4 101 1.5
      vertex -6 101 1.5
      vertex -6 -99 1.5
    endloop
  endfacet
  facet normal 0 0 1
    outer loop
      vertex -4 101 1.5
      vertex -6 -99 1.5
      vertex -4 -99 1.5
    endloop
  endfacet
  facet normal -1 0 0
    outer loop
      vertex -6 101 1.5
      vertex -6 101 0
      vertex -6 -99 0
    endloop
  endfacet
  facet normal -1 0 0
    outer loop
      vertex -6 101 1.5
      vertex -6 -99 0
      vertex -6 -99 1.5
    endloop
  endfacet
  facet normal 0 0 -1
    outer loop
      vertex -4 -99 0
      vertex -6 -99 0
      vertex -6 101 0
    endloop
  endfacet
  facet normal 0 0 -1
    outer loop
      vertex -4 -99 0
      vertex -6 101 0
      vertex -4 101 0
    endloop
  endfacet
  facet normal 0 1 0
    outer loop
      vertex -4 101 1.5
      vertex -4 101 0
      vertex -6 101 0
    endloop
  endfacet
  facet normal 0 1 0
    outer loop
      vertex -4 101 1.5
      vertex -6 101 0
      vertex -6 101 1.5
    endloop
  endfacet
  facet normal 0 -1 0
    outer loop
      vertex -6 -99 1.5
      vertex -6 -99 0
      vertex -4 -99 0
    endloop
  endfacet
  facet normal 0 -1 0
    outer loop
      vertex -6 -99 1.5
      vertex -4 -99 0
      vertex -4 -99 1.5
    endloop
  endfacet
endsolid stl_item0
