solid stl_item0
  facet normal 0 0 -1
    outer loop
      vertex 17.255 -17.75 0
      vertex 17.393 -17.621 0
      vertex 19.25 -17.58 0
    endloop
  endfacet
  facet normal 0 0 -1
    outer loop
      vertex 19.25 -17.58 0
      vertex 17.393 -17.621 0
      vertex 17.39487 -17.52 0
    endloop
  endfacet
  facet normal 0 0 -1
    outer loop
      vertex 17.255 -17.75 0
      vertex 17.24746 -17.6186 0
      vertex 17.393 -17.621 0
    endloop
  endfacet
  facet normal 0 0 -1
    outer loop
      vertex 17.393 -17.621 0
      vertex 17.24746 -17.6186 0
      vertex 17.39487 -17.52 0
    endloop
  endfacet
  facet normal 0 0 -1
    outer loop
      vertex 17.674 -4.22 0
      vertex 17.53433 5.6483 0
      vertex 19.674 -4.177 0
    endloop
  endfacet
  facet normal 0 0 1
    outer loop
      vertex 17.546 6.279 20
      vertex 10.18 6.39943 20
      vertex 17.526 6.237 20
    endloop
  endfacet
  facet normal 0 0 1
    outer loop
      vertex 10.18 4.39979 20
      vertex 17.53433 5.6483 20
      vertex 10.18 6.39943 20
    endloop
  endfacet
  facet normal 0 0 1
    outer loop
      vertex 17.546 6.279 20
      vertex 17.526 6.237 20
      vertex 17.54523 6.23741 20
    endloop
  endfacet
  facet normal 0.9999 0.01415 0
    outer loop
      vertex 19.526 6.28 20
      vertex 19.674 -4.177 20
      vertex 19.674 -4.177 0
    endloop
  endfacet
  facet normal 0.9999 0.01415 0
    outer loop
      vertex 19.526 6.28 20
      vertex 19.674 -4.177 0
      vertex 19.526 6.28 0
    endloop
  endfacet
  facet normal 0 0 -1
    outer loop
      vertex 17.39487 -17.52 0
      vertex 17.43 -15.621 0
      vertex 19.25 -17.58 0
    endloop
  endfacet
  facet normal 0 0 -1
    outer loop
      vertex 18.657 -7.25 0
      vertex 19.25 -17.58 0
      vertex 17.43 -15.621 0
    endloop
  endfacet
  facet normal 0 0 1
    outer loop
      vertex 17.526 6.237 20
      vertex 10.18 6.39943 20
      vertex 17.53433 5.6483 20
    endloop
  endfacet
  facet normal 0 0 1
    outer loop
      vertex 17.509 4.279 20
      vertex 17.53433 5.6483 20
      vertex 10.18 4.39979 20
    endloop
  endfacet
  facet normal 0 0 1
    outer loop
      vertex 17.526 6.237 20
      vertex 17.53433 5.6483 20
      vertex 17.54523 6.23741 20
    endloop
  endfacet
  facet normal 0 0 1
    outer loop
      vertex 19.526 6.28 20
      vertex 17.54523 6.23741 20
      vertex 17.53433 5.6483 20
    endloop
  endfacet
  facet normal 0 0 1
    outer loop
      vertex 19.526 6.28 20
      vertex 17.53433 5.6483 20
      vertex 19.674 -4.177 20
    endloop
  endfacet
  facet normal 0 0 1
    outer loop
      vertex 16.662 -7.42 20
      vertex 17.1325 -15.61614 20
      vertex 17.43 -15.621 20
    endloop
  endfacet
  facet normal 0 0 -1
    outer loop
      vertex 17.54523 6.23741 0
      vertex 17.526 6.237 0
      vertex 17.546 6.279 0
    endloop
  endfacet
  facet normal 0 0 -1
    outer loop
      vertex 10.18 6.39943 0
      vertex 17.546 6.279 0
      vertex 17.526 6.237 0
    endloop
  endfacet
  facet normal 1 0 0
    outer loop
      vertex 10.18 2.502 9.659
      vertex 10.18 4.39979 20
      vertex 10.18 2.37 12.173
    endloop
  endfacet
  facet normal 0 0 1
    outer loop
      vertex 10.18 -15.50248 20
      vertex 10.18 -17.50212 20
      vertex 17.1325 -15.61614 20
    endloop
  endfacet
  facet normal 0 0 1
    outer loop
      vertex 10.18 -17.50212 20
      vertex 17.24746 -17.6186 20
      vertex 17.1325 -15.61614 20
    endloop
  endfacet
  facet normal 0 0 1
    outer loop
      vertex 17.43 -15.621 20
      vertex 17.1325 -15.61614 20
      vertex 17.39487 -17.52 20
    endloop
  endfacet
  facet normal 0 0 -1
    outer loop
      vertex 10.18 6.39943 0
      vertex 17.526 6.237 0
      vertex 17.53433 5.6483 0
    endloop
  endfacet
  facet normal 0 0 -1
    outer loop
      vertex 17.509 4.279 0
      vertex 10.18 4.39979 0
      vertex 17.53433 5.6483 0
    endloop
  endfacet
  facet normal 0 0 -1
    outer loop
      vertex 10.18 6.39943 0
      vertex 17.53433 5.6483 0
      vertex 10.18 4.39979 0
    endloop
  endfacet
  facet normal 0 0 -1
    outer loop
      vertex 17.526 6.237 0
      vertex 17.54523 6.23741 0
      vertex 17.53433 5.6483 0
    endloop
  endfacet
  facet normal 0 0 -1
    outer loop
      vertex 17.54523 6.23741 0
      vertex 19.526 6.28 0
      vertex 17.53433 5.6483 0
    endloop
  endfacet
  facet normal 0 0 -1
    outer loop
      vertex 19.526 6.28 0
      vertex 19.674 -4.177 0
      vertex 17.53433 5.6483 0
    endloop
  endfacet
  facet normal 0 0 1
    outer loop
      vertex 5.18 -17.52 20
      vertex 10.18 4.39979 20
      vertex 5.18 6.48 20
    endloop
  endfacet
  facet normal 0 0 1
    outer loop
      vertex 5.18 6.48 20
      vertex 10.18 4.39979 20
      vertex 10.18 6.39943 20
    endloop
  endfacet
  facet normal 0 0 1
    outer loop
      vertex 5.18 6.48 20
      vertex 10.18 6.39943 20
      vertex 10.18 6.48 20
    endloop
  endfacet
  facet normal 0 0 1
    outer loop
      vertex 10.18 -17.52 20
      vertex 10.18 -17.50212 20
      vertex 5.18 -17.52 20
    endloop
  endfacet
  facet normal 0 0 1
    outer loop
      vertex 10.18 -15.50248 20
      vertex 5.18 -17.52 20
      vertex 10.18 -17.50212 20
    endloop
  endfacet
  facet normal 0 0 1
    outer loop
      vertex 10.18 4.39979 20
      vertex 5.18 -17.52 20
      vertex 10.18 -15.50248 20
    endloop
  endfacet
  facet normal -0.08491 0.99639 0
    outer loop
      vertex 18.657 -7.25 20
      vertex 18.657 -7.25 0
      vertex 16.662 -7.42 20
    endloop
  endfacet
  facet normal 0.99836 0.05731 0
    outer loop
      vertex 19.25 -17.58 0
      vertex 18.657 -7.25 0
      vertex 18.657 -7.25 20
    endloop
  endfacet
  facet normal 0 1 0
    outer loop
      vertex 10.18 6.48 0
      vertex 5.18 6.48 0
      vertex 10.18 6.48 20
    endloop
  endfacet
  facet normal 0 1 0
    outer loop
      vertex 5.18 6.48 20
      vertex 10.18 6.48 20
      vertex 5.18 6.48 0
    endloop
  endfacet
  facet normal -0.01648 -0.99986 0
    outer loop
      vertex 10.18 4.39979 20
      vertex 10.18 4.39979 0
      vertex 17.509 4.279 20
    endloop
  endfacet
  facet normal 0.08491 -0.99639 0
    outer loop
      vertex 17.255 -17.75 20
      vertex 17.255 -17.75 0
      vertex 19.25 -17.58 0
    endloop
  endfacet
  facet normal 0.08491 -0.99639 0
    outer loop
      vertex 17.255 -17.75 20
      vertex 19.25 -17.58 0
      vertex 19.25 -17.58 20
    endloop
  endfacet
  facet normal 0.99983 -0.0185 0
    outer loop
      vertex 17.54523 6.23741 20
      vertex 17.54523 6.23741 0
      vertex 17.546 6.279 0
    endloop
  endfacet
  facet normal 0.99983 -0.0185 0
    outer loop
      vertex 17.54523 6.23741 20
      vertex 17.546 6.279 0
      vertex 17.546 6.279 20
    endloop
  endfacet
  facet normal 0.99836 0.05731 0
    outer loop
      vertex 19.25 -17.58 0
      vertex 18.657 -7.25 20
      vertex 19.25 -17.58 20
    endloop
  endfacet
  facet normal 0.01635 0.99987 0
    outer loop
      vertex 10.18 6.39943 0
      vertex 10.18 6.39943 20
      vertex 17.546 6.279 0
    endloop
  endfacet
  facet normal 0.01635 0.99987 0
    outer loop
      vertex 17.546 6.279 0
      vertex 10.18 6.39943 20
      vertex 17.546 6.279 20
    endloop
  endfacet
  facet normal 1 0 0
    outer loop
      vertex 10.18 -1.477 3.532
      vertex 10.18 4.39979 0
      vertex 10.18 0.479 5.116
    endloop
  endfacet
  facet normal -0.99836 -0.05731 0
    outer loop
      vertex 17.24746 -17.6186 20
      vertex 17.24746 -17.6186 0
      vertex 17.255 -17.75 0
    endloop
  endfacet
  facet normal -0.99836 -0.05731 0
    outer loop
      vertex 17.24746 -17.6186 20
      vertex 17.255 -17.75 0
      vertex 17.255 -17.75 20
    endloop
  endfacet
  facet normal -0.0215 0.99977 0
    outer loop
      vertex 17.54523 6.23741 0
      vertex 17.54523 6.23741 20
      vertex 19.526 6.28 0
    endloop
  endfacet
  facet normal -0.0215 0.99977 0
    outer loop
      vertex 19.526 6.28 20
      vertex 19.526 6.28 0
      vertex 17.54523 6.23741 20
    endloop
  endfacet
  facet normal -0.01648 -0.99986 0
    outer loop
      vertex 10.18 -17.50212 20
      vertex 17.24746 -17.6186 0
      vertex 17.24746 -17.6186 20
    endloop
  endfacet
  facet normal 0 -1 0
    outer loop
      vertex 5.18 -17.52 20
      vertex 5.18 -17.52 0
      vertex 10.18 -17.52 20
    endloop
  endfacet
  facet normal 0.99983 -0.0185 0
    outer loop
      vertex 17.509 4.279 20
      vertex 17.509 4.279 0
      vertex 17.53433 5.6483 0
    endloop
  endfacet
  facet normal 0.99983 -0.0185 0
    outer loop
      vertex 17.509 4.279 20
      vertex 17.53433 5.6483 0
      vertex 17.53433 5.6483 20
    endloop
  endfacet
  facet normal 0 -1 0
    outer loop
      vertex 10.18 -17.52 20
      vertex 5.18 -17.52 0
      vertex 10.18 -17.52 0
    endloop
  endfacet
  facet normal -0.01648 -0.99986 0
    outer loop
      vertex 17.509 4.279 20
      vertex 10.18 4.39979 0
      vertex 17.509 4.279 0
    endloop
  endfacet
  facet normal 0.0215 -0.99977 0
    outer loop
      vertex 17.674 -4.22 20
      vertex 17.674 -4.22 0
      vertex 19.674 -4.177 0
    endloop
  endfacet
  facet normal 0.0215 -0.99977 0
    outer loop
      vertex 17.674 -4.22 20
      vertex 19.674 -4.177 0
      vertex 19.674 -4.177 20
    endloop
  endfacet
  facet normal -0.9999 -0.01415 0
    outer loop
      vertex 17.674 -4.22 0
      vertex 17.674 -4.22 20
      vertex 17.53433 5.6483 0
    endloop
  endfacet
  facet normal -0.9999 -0.01415 0
    outer loop
      vertex 17.53433 5.6483 20
      vertex 17.53433 5.6483 0
      vertex 17.674 -4.22 20
    endloop
  endfacet
  facet normal -0.08491 0.99639 0
    outer loop
      vertex 16.662 -7.42 20
      vertex 18.657 -7.25 0
      vertex 16.662 -7.42 0
    endloop
  endfacet
  facet normal 0 0 -1
    outer loop
      vertex 18.657 -7.25 0
      vertex 17.43 -15.621 0
      vertex 16.662 -7.42 0
    endloop
  endfacet
  facet normal 0 0 -1
    outer loop
      vertex 17.1325 -15.61614 0
      vertex 16.662 -7.42 0
      vertex 17.43 -15.621 0
    endloop
  endfacet
  facet normal 1 0 0
    outer loop
      vertex 10.18 -13.502 11.341
      vertex 10.18 -12.85 13.773
      vertex 10.18 -15.50248 20
    endloop
  endfacet
  facet normal 1 0 0
    outer loop
      vertex 10.18 -13.37 8.827
      vertex 10.18 -13.502 11.341
      vertex 10.18 -15.50248 0
    endloop
  endfacet
  facet normal -0.99836 -0.05731 0
    outer loop
      vertex 16.662 -7.42 0
      vertex 17.1325 -15.61614 0
      vertex 17.1325 -15.61614 20
    endloop
  endfacet
  facet normal -0.99836 -0.05731 0
    outer loop
      vertex 16.662 -7.42 0
      vertex 17.1325 -15.61614 20
      vertex 16.662 -7.42 20
    endloop
  endfacet
  facet normal 0 0.54467 0.83865
    outer loop
      vertex 5.18 -10.884 4.521
      vertex 10.18 -10.884 4.521
      vertex 10.18 -8.773 3.15
    endloop
  endfacet
  facet normal 0 0.54467 0.83865
    outer loop
      vertex 5.18 -10.884 4.521
      vertex 10.18 -8.773 3.15
      vertex 5.18 -8.773 3.15
    endloop
  endfacet
  facet normal 1 0 0
    outer loop
      vertex 10.18 -17.50212 0
      vertex 10.18 -17.50212 20
      vertex 10.18 -17.52 20
    endloop
  endfacet
  facet normal 1 0 0
    outer loop
      vertex 10.18 -17.50212 0
      vertex 10.18 -17.52 20
      vertex 10.18 -17.52 0
    endloop
  endfacet
  facet normal 0.01635 0.99987 0
    outer loop
      vertex 17.1325 -15.61614 20
      vertex 17.1325 -15.61614 0
      vertex 10.18 -15.50248 0
    endloop
  endfacet
  facet normal 0.01635 0.99987 0
    outer loop
      vertex 17.1325 -15.61614 20
      vertex 10.18 -15.50248 0
      vertex 10.18 -15.50248 20
    endloop
  endfacet
  facet normal -0.01648 -0.99986 0
    outer loop
      vertex 17.24746 -17.6186 0
      vertex 10.18 -17.50212 20
      vertex 10.18 -17.50212 0
    endloop
  endfacet
  facet normal 0 0.77713 0.62934
    outer loop
      vertex 5.18 -12.468 6.477
      vertex 10.18 -12.468 6.477
      vertex 10.18 -10.884 4.521
    endloop
  endfacet
  facet normal 0 0.77713 0.62934
    outer loop
      vertex 5.18 -12.468 6.477
      vertex 10.18 -10.884 4.521
      vertex 5.18 -10.884 4.521
    endloop
  endfacet
  facet normal 0 0.93359 0.35834
    outer loop
      vertex 5.18 -13.37 8.827
      vertex 10.18 -13.37 8.827
      vertex 10.18 -12.468 6.477
    endloop
  endfacet
  facet normal 0 0.93359 0.35834
    outer loop
      vertex 5.18 -13.37 8.827
      vertex 10.18 -12.468 6.477
      vertex 5.18 -12.468 6.477
    endloop
  endfacet
  facet normal -1 0 0
    outer loop
      vertex 5.18 1.468 14.523
      vertex 5.18 6.48 20
      vertex 5.18 2.37 12.173
    endloop
  endfacet
  facet normal -1 0 0
    outer loop
      vertex 5.18 -2.227 17.85
      vertex 5.18 6.48 20
      vertex 5.18 -0.116 16.479
    endloop
  endfacet
  facet normal -1 0 0
    outer loop
      vertex 5.18 1.468 14.523
      vertex 5.18 -0.116 16.479
      vertex 5.18 6.48 20
    endloop
  endfacet
  facet normal 0 0.99862 0.05243
    outer loop
      vertex 5.18 -13.502 11.341
      vertex 10.18 -13.502 11.341
      vertex 10.18 -13.37 8.827
    endloop
  endfacet
  facet normal 0 0.99862 0.05243
    outer loop
      vertex 5.18 -13.502 11.341
      vertex 10.18 -13.37 8.827
      vertex 5.18 -13.37 8.827
    endloop
  endfacet
  facet normal 0 0 -1
    outer loop
      vertex 17.43 -15.621 0
      vertex 17.39487 -17.52 0
      vertex 17.1325 -15.61614 0
    endloop
  endfacet
  facet normal 0 0 -1
    outer loop
      vertex 17.39487 -17.52 0
      vertex 17.24746 -17.6186 0
      vertex 17.1325 -15.61614 0
    endloop
  endfacet
  facet normal 0 0 -1
    outer loop
      vertex 17.24746 -17.6186 0
      vertex 10.18 -17.50212 0
      vertex 17.1325 -15.61614 0
    endloop
  endfacet
  facet normal 0 0 -1
    outer loop
      vertex 10.18 -15.50248 0
      vertex 17.1325 -15.61614 0
      vertex 10.18 -17.50212 0
    endloop
  endfacet
  facet normal 1 0 0
    outer loop
      vertex 10.18 -8.773 3.15
      vertex 10.18 -15.50248 0
      vertex 10.18 -6.341 2.498
    endloop
  endfacet
  facet normal 0 0.96589 -0.25895
    outer loop
      vertex 5.18 -12.85 13.773
      vertex 10.18 -12.85 13.773
      vertex 10.18 -13.502 11.341
    endloop
  endfacet
  facet normal 0 0.96589 -0.25895
    outer loop
      vertex 5.18 -12.85 13.773
      vertex 10.18 -13.502 11.341
      vertex 5.18 -13.502 11.341
    endloop
  endfacet
  facet normal 0 0 -1
    outer loop
      vertex 10.18 6.39943 0
      vertex 10.18 4.39979 0
      vertex 5.18 6.48 0
    endloop
  endfacet
  facet normal 0 0 -1
    outer loop
      vertex 5.18 6.48 0
      vertex 10.18 4.39979 0
      vertex 5.18 -17.52 0
    endloop
  endfacet
  facet normal 0 0 -1
    outer loop
      vertex 10.18 6.48 0
      vertex 10.18 6.39943 0
      vertex 5.18 6.48 0
    endloop
  endfacet
  facet normal 0 0 -1
    outer loop
      vertex 10.18 -17.50212 0
      vertex 5.18 -17.52 0
      vertex 10.18 -15.50248 0
    endloop
  endfacet
  facet normal 0 0 -1
    outer loop
      vertex 10.18 -17.52 0
      vertex 5.18 -17.52 0
      vertex 10.18 -17.50212 0
    endloop
  endfacet
  facet normal 0 0 -1
    outer loop
      vertex 10.18 -15.50248 0
      vertex 5.18 -17.52 0
      vertex 10.18 4.39979 0
    endloop
  endfacet
  facet normal -1 0 0
    outer loop
      vertex 5.18 6.48 0
      vertex 5.18 0.479 5.116
      vertex 5.18 1.85 7.227
    endloop
  endfacet
  facet normal 0 0.83865 -0.54467
    outer loop
      vertex 5.18 -11.479 15.884
      vertex 10.18 -11.479 15.884
      vertex 10.18 -12.85 13.773
    endloop
  endfacet
  facet normal 0 0.83865 -0.54467
    outer loop
      vertex 5.18 -11.479 15.884
      vertex 10.18 -12.85 13.773
      vertex 5.18 -12.85 13.773
    endloop
  endfacet
  facet normal 0 0 1
    outer loop
      vertex 17.255 -17.75 20
      vertex 19.25 -17.58 20
      vertex 17.393 -17.621 20
    endloop
  endfacet
  facet normal 0 0 1
    outer loop
      vertex 18.657 -7.25 20
      vertex 17.43 -15.621 20
      vertex 19.25 -17.58 20
    endloop
  endfacet
  facet normal 0 0 1
    outer loop
      vertex 17.393 -17.621 20
      vertex 19.25 -17.58 20
      vertex 17.39487 -17.52 20
    endloop
  endfacet
  facet normal 0 0 1
    outer loop
      vertex 17.24746 -17.6186 20
      vertex 17.255 -17.75 20
      vertex 17.393 -17.621 20
    endloop
  endfacet
  facet normal -1 0 0
    outer loop
      vertex 5.18 -1.477 3.532
      vertex 5.18 0.479 5.116
      vertex 5.18 6.48 0
    endloop
  endfacet
  facet normal -1 0 0
    outer loop
      vertex 5.18 -1.477 3.532
      vertex 5.18 6.48 0
      vertex 5.18 -3.827 2.63
    endloop
  endfacet
  facet normal 0 0 1
    outer loop
      vertex 17.393 -17.621 20
      vertex 17.39487 -17.52 20
      vertex 17.24746 -17.6186 20
    endloop
  endfacet
  facet normal 0 0 1
    outer loop
      vertex 17.39487 -17.52 20
      vertex 17.1325 -15.61614 20
      vertex 17.24746 -17.6186 20
    endloop
  endfacet
  facet normal 0 0 1
    outer loop
      vertex 17.674 -4.22 20
      vertex 19.674 -4.177 20
      vertex 17.53433 5.6483 20
    endloop
  endfacet
  facet normal 0 0.35834 -0.93359
    outer loop
      vertex 10.18 -9.523 17.468
      vertex 5.18 -9.523 17.468
      vertex 10.18 -7.173 18.37
    endloop
  endfacet
  facet normal 0 0.35834 -0.93359
    outer loop
      vertex 5.18 -7.173 18.37
      vertex 10.18 -7.173 18.37
      vertex 5.18 -9.523 17.468
    endloop
  endfacet
  facet normal -1 0 0
    outer loop
      vertex 5.18 -17.52 20
      vertex 5.18 6.48 20
      vertex 5.18 -4.659 18.502
    endloop
  endfacet
  facet normal -1 0 0
    outer loop
      vertex 5.18 -7.173 18.37
      vertex 5.18 -17.52 20
      vertex 5.18 -4.659 18.502
    endloop
  endfacet
  facet normal -1 0 0
    outer loop
      vertex 5.18 -7.173 18.37
      vertex 5.18 -9.523 17.468
      vertex 5.18 -17.52 20
    endloop
  endfacet
  facet normal 0 0 1
    outer loop
      vertex 16.662 -7.42 20
      vertex 17.43 -15.621 20
      vertex 18.657 -7.25 20
    endloop
  endfacet
  facet normal 0 0 1
    outer loop
      vertex 17.39487 -17.52 20
      vertex 19.25 -17.58 20
      vertex 17.43 -15.621 20
    endloop
  endfacet
  facet normal 0 0.05243 -0.99862
    outer loop
      vertex 5.18 -4.659 18.502
      vertex 10.18 -4.659 18.502
      vertex 10.18 -7.173 18.37
    endloop
  endfacet
  facet normal 0 0.05243 -0.99862
    outer loop
      vertex 5.18 -4.659 18.502
      vertex 10.18 -7.173 18.37
      vertex 5.18 -7.173 18.37
    endloop
  endfacet
  facet normal -1 0 0
    outer loop
      vertex 5.18 2.502 9.659
      vertex 5.18 6.48 0
      vertex 5.18 1.85 7.227
    endloop
  endfacet
  facet normal -1 0 0
    outer loop
      vertex 5.18 6.48 20
      vertex 5.18 6.48 0
      vertex 5.18 2.502 9.659
    endloop
  endfacet
  facet normal -1 0 0
    outer loop
      vertex 5.18 2.502 9.659
      vertex 5.18 2.37 12.173
      vertex 5.18 6.48 20
    endloop
  endfacet
  facet normal -1 0 0
    outer loop
      vertex 5.18 -2.227 17.85
      vertex 5.18 -4.659 18.502
      vertex 5.18 6.48 20
    endloop
  endfacet
  facet normal -1 0 0
    outer loop
      vertex 5.18 -10.884 4.521
      vertex 5.18 -8.773 3.15
      vertex 5.18 -17.52 0
    endloop
  endfacet
  facet normal -1 0 0
    outer loop
      vertex 5.18 -8.773 3.15
      vertex 5.18 -6.341 2.498
      vertex 5.18 -17.52 0
    endloop
  endfacet
  facet normal -1 0 0
    outer loop
      vertex 5.18 6.48 0
      vertex 5.18 -17.52 0
      vertex 5.18 -6.341 2.498
    endloop
  endfacet
  facet normal -1 0 0
    outer loop
      vertex 5.18 -6.341 2.498
      vertex 5.18 -3.827 2.63
      vertex 5.18 6.48 0
    endloop
  endfacet
  facet normal 0 -0.25895 -0.96589
    outer loop
      vertex 5.18 -4.659 18.502
      vertex 5.18 -2.227 17.85
      vertex 10.18 -2.227 17.85
    endloop
  endfacet
  facet normal 0 -0.25895 -0.96589
    outer loop
      vertex 10.18 -4.659 18.502
      vertex 5.18 -4.659 18.502
      vertex 10.18 -2.227 17.85
    endloop
  endfacet
  facet normal 1 0 0
    outer loop
      vertex 10.18 -10.884 4.521
      vertex 10.18 -15.50248 0
      vertex 10.18 -8.773 3.15
    endloop
  endfacet
  facet normal -1 0 0
    outer loop
      vertex 5.18 -12.85 13.773
      vertex 5.18 -13.502 11.341
      vertex 5.18 -17.52 20
    endloop
  endfacet
  facet normal -1 0 0
    outer loop
      vertex 5.18 -17.52 0
      vertex 5.18 -17.52 20
      vertex 5.18 -13.502 11.341
    endloop
  endfacet
  facet normal -1 0 0
    outer loop
      vertex 5.18 -13.502 11.341
      vertex 5.18 -13.37 8.827
      vertex 5.18 -17.52 0
    endloop
  endfacet
  facet normal 0 -0.54467 -0.83865
    outer loop
      vertex 5.18 -0.116 16.479
      vertex 10.18 -0.116 16.479
      vertex 10.18 -2.227 17.85
    endloop
  endfacet
  facet normal 0 -0.54467 -0.83865
    outer loop
      vertex 5.18 -0.116 16.479
      vertex 10.18 -2.227 17.85
      vertex 5.18 -2.227 17.85
    endloop
  endfacet
  facet normal -1 0 0
    outer loop
      vertex 5.18 -10.884 4.521
      vertex 5.18 -17.52 0
      vertex 5.18 -12.468 6.477
    endloop
  endfacet
  facet normal -1 0 0
    outer loop
      vertex 5.18 -13.37 8.827
      vertex 5.18 -12.468 6.477
      vertex 5.18 -17.52 0
    endloop
  endfacet
  facet normal 1 0 0
    outer loop
      vertex 10.18 -12.468 6.477
      vertex 10.18 -15.50248 0
      vertex 10.18 -10.884 4.521
    endloop
  endfacet
  facet normal 0 -0.77713 -0.62934
    outer loop
      vertex 10.18 -0.116 16.479
      vertex 5.18 1.468 14.523
      vertex 10.18 1.468 14.523
    endloop
  endfacet
  facet normal 1 0 0
    outer loop
      vertex 10.18 -15.50248 0
      vertex 10.18 -12.468 6.477
      vertex 10.18 -13.37 8.827
    endloop
  endfacet
  facet normal 1 0 0
    outer loop
      vertex 10.18 -15.50248 20
      vertex 10.18 -15.50248 0
      vertex 10.18 -13.502 11.341
    endloop
  endfacet
  facet normal 0 -0.77713 -0.62934
    outer loop
      vertex 10.18 -0.116 16.479
      vertex 5.18 -0.116 16.479
      vertex 5.18 1.468 14.523
    endloop
  endfacet
  facet normal -1 0 0
    outer loop
      vertex 5.18 -17.52 20
      vertex 5.18 -11.479 15.884
      vertex 5.18 -12.85 13.773
    endloop
  endfacet
  facet normal 0 -0.93359 -0.35834
    outer loop
      vertex 10.18 1.468 14.523
      vertex 5.18 1.468 14.523
      vertex 5.18 2.37 12.173
    endloop
  endfacet
  facet normal 0 -0.93359 -0.35834
    outer loop
      vertex 10.18 1.468 14.523
      vertex 5.18 2.37 12.173
      vertex 10.18 2.37 12.173
    endloop
  endfacet
  facet normal -1 0 0
    outer loop
      vertex 5.18 -17.52 20
      vertex 5.18 -9.523 17.468
      vertex 5.18 -11.479 15.884
    endloop
  endfacet
  facet normal 0 0.62934 -0.77713
    outer loop
      vertex 10.18 -11.479 15.884
      vertex 5.18 -11.479 15.884
      vertex 10.18 -9.523 17.468
    endloop
  endfacet
  facet normal 0 0.62934 -0.77713
    outer loop
      vertex 5.18 -9.523 17.468
      vertex 10.18 -9.523 17.468
      vertex 5.18 -11.479 15.884
    endloop
  endfacet
  facet normal 1 0 0
    outer loop
      vertex 10.18 -11.479 15.884
      vertex 10.18 -15.50248 20
      vertex 10.18 -12.85 13.773
    endloop
  endfacet
  facet normal 1 0 0
    outer loop
      vertex 10.18 4.39979 20
      vertex 10.18 -15.50248 20
      vertex 10.18 -4.659 18.502
    endloop
  endfacet
  facet normal 0 -0.99862 -0.05243
    outer loop
      vertex 10.18 2.37 12.173
      vertex 5.18 2.37 12.173
      vertex 5.18 2.502 9.659
    endloop
  endfacet
  facet normal 0 -0.99862 -0.05243
    outer loop
      vertex 10.18 2.37 12.173
      vertex 5.18 2.502 9.659
      vertex 10.18 2.502 9.659
    endloop
  endfacet
  facet normal 0 -0.96589 0.25895
    outer loop
      vertex 10.18 2.502 9.659
      vertex 5.18 2.502 9.659
      vertex 5.18 1.85 7.227
    endloop
  endfacet
  facet normal 0 -0.96589 0.25895
    outer loop
      vertex 10.18 2.502 9.659
      vertex 5.18 1.85 7.227
      vertex 10.18 1.85 7.227
    endloop
  endfacet
  facet normal 0 -0.83865 0.54467
    outer loop
      vertex 10.18 1.85 7.227
      vertex 5.18 1.85 7.227
      vertex 5.18 0.479 5.116
    endloop
  endfacet
  facet normal 0 -0.83865 0.54467
    outer loop
      vertex 10.18 1.85 7.227
      vertex 5.18 0.479 5.116
      vertex 10.18 0.479 5.116
    endloop
  endfacet
  facet normal 0 -0.62934 0.77713
    outer loop
      vertex 10.18 0.479 5.116
      vertex 5.18 0.479 5.116
      vertex 5.18 -1.477 3.532
    endloop
  endfacet
  facet normal 0 -0.62934 0.77713
    outer loop
      vertex 10.18 0.479 5.116
      vertex 5.18 -1.477 3.532
      vertex 10.18 -1.477 3.532
    endloop
  endfacet
  facet normal 1 0 0
    outer loop
      vertex 10.18 2.37 12.173
      vertex 10.18 4.39979 20
      vertex 10.18 1.468 14.523
    endloop
  endfacet
  facet normal 0 -0.35834 0.93359
    outer loop
      vertex 10.18 -1.477 3.532
      vertex 5.18 -1.477 3.532
      vertex 5.18 -3.827 2.63
    endloop
  endfacet
  facet normal 0 -0.35834 0.93359
    outer loop
      vertex 10.18 -1.477 3.532
      vertex 5.18 -3.827 2.63
      vertex 10.18 -3.827 2.63
    endloop
  endfacet
  facet normal 1 0 0
    outer loop
      vertex 10.18 -15.50248 20
      vertex 10.18 -11.479 15.884
      vertex 10.18 -9.523 17.468
    endloop
  endfacet
  facet normal 1 0 0
    outer loop
      vertex 10.18 -7.173 18.37
      vertex 10.18 -15.50248 20
      vertex 10.18 -9.523 17.468
    endloop
  endfacet
  facet normal 1 0 0
    outer loop
      vertex 10.18 4.39979 20
      vertex 10.18 -2.227 17.85
      vertex 10.18 -0.116 16.479
    endloop
  endfacet
  facet normal 0 -0.05243 0.99862
    outer loop
      vertex 5.18 -6.341 2.498
      vertex 10.18 -3.827 2.63
      vertex 5.18 -3.827 2.63
    endloop
  endfacet
  facet normal 0 -0.05243 0.99862
    outer loop
      vertex 10.18 -6.341 2.498
      vertex 10.18 -3.827 2.63
      vertex 5.18 -6.341 2.498
    endloop
  endfacet
  facet normal 1 0 0
    outer loop
      vertex 10.18 -2.227 17.85
      vertex 10.18 4.39979 20
      vertex 10.18 -4.659 18.502
    endloop
  endfacet
  facet normal 1 0 0
    outer loop
      vertex 10.18 -7.173 18.37
      vertex 10.18 -4.659 18.502
      vertex 10.18 -15.50248 20
    endloop
  endfacet
  facet normal 0 0.25895 0.96589
    outer loop
      vertex 10.18 -6.341 2.498
      vertex 5.18 -6.341 2.498
      vertex 10.18 -8.773 3.15
    endloop
  endfacet
  facet normal 0 0.25895 0.96589
    outer loop
      vertex 5.18 -8.773 3.15
      vertex 10.18 -8.773 3.15
      vertex 5.18 -6.341 2.498
    endloop
  endfacet
  facet normal 1 0 0
    outer loop
      vertex 10.18 -0.116 16.479
      vertex 10.18 1.468 14.523
      vertex 10.18 4.39979 20
    endloop
  endfacet
  facet normal 1 0 0
    outer loop
      vertex 10.18 4.39979 0
      vertex 10.18 2.502 9.659
      vertex 10.18 1.85 7.227
    endloop
  endfacet
  facet normal 1 0 0
    outer loop
      vertex 10.18 1.85 7.227
      vertex 10.18 0.479 5.116
      vertex 10.18 4.39979 0
    endloop
  endfacet
  facet normal 1 0 0
    outer loop
      vertex 10.18 -3.827 2.63
      vertex 10.18 4.39979 0
      vertex 10.18 -1.477 3.532
    endloop
  endfacet
  facet normal 1 0 0
    outer loop
      vertex 10.18 4.39979 20
      vertex 10.18 2.502 9.659
      vertex 10.18 4.39979 0
    endloop
  endfacet
  facet normal 1 0 0
    outer loop
      vertex 10.18 6.39943 0
      vertex 10.18 6.48 0
      vertex 10.18 6.39943 20
    endloop
  endfacet
  facet normal 1 0 0
    outer loop
      vertex 10.18 6.48 20
      vertex 10.18 6.39943 20
      vertex 10.18 6.48 0
    endloop
  endfacet
  facet normal 1 0 0
    outer loop
      vertex 10.18 -15.50248 0
      vertex 10.18 4.39979 0
      vertex 10.18 -6.341 2.498
    endloop
  endfacet
  facet normal 1 0 0
    outer loop
      vertex 10.18 -3.827 2.63
      vertex 10.18 -6.341 2.498
      vertex 10.18 4.39979 0
    endloop
  endfacet
endsolid stl_item0
