  0
SECTION
  2
BLOCKS
  0
ENDSEC
  0
SECTION
  2
ENTITIES
  0
LINE
  8
0
 10
57
 20
15
 11
57.0127
 21
15
  0
LINE
  8
0
 10
57.0127
 20
15
 11
57.0244
 21
15.1976
  0
LINE
  8
0
 10
57.0244
 20
15.1976
 11
57.038
 21
15.3716
  0
LINE
  8
0
 10
57.038
 20
15.3716
 11
57.0548
 21
15.5453
  0
LINE
  8
0
 10
57.0548
 20
15.5453
 11
57.0745
 21
15.7187
  0
LINE
  8
0
 10
57.0745
 20
15.7187
 11
57.0973
 21
15.8917
  0
LINE
  8
0
 10
57.0973
 20
15.8917
 11
57.1231
 21
16.0643
  0
LINE
  8
0
 10
57.1231
 20
16.0643
 11
57.1519
 21
16.2365
  0
LINE
  8
0
 10
57.1519
 20
16.2365
 11
57.1837
 21
16.4081
  0
LINE
  8
0
 10
57.1837
 20
16.4081
 11
57.2185
 21
16.5791
  0
LINE
  8
0
 10
57.2185
 20
16.5791
 11
57.2563
 21
16.7495
  0
LINE
  8
0
 10
57.2563
 20
16.7495
 11
57.297
 21
16.9192
  0
LINE
  8
0
 10
57.297
 20
16.9192
 11
57.3407
 21
17.0882
  0
LINE
  8
0
 10
57.3407
 20
17.0882
 11
57.3874
 21
17.2564
  0
LINE
  8
0
 10
57.3874
 20
17.2564
 11
57.437
 21
17.4237
  0
LINE
  8
0
 10
57.437
 20
17.4237
 11
57.4894
 21
17.5902
  0
LINE
  8
0
 10
57.4894
 20
17.5902
 11
57.5448
 21
17.7557
  0
LINE
  8
0
 10
57.5448
 20
17.7557
 11
57.6031
 21
17.9202
  0
LINE
  8
0
 10
57.6031
 20
17.9202
 11
57.6642
 21
18.0837
  0
LINE
  8
0
 10
57.6642
 20
18.0837
 11
57.7281
 21
18.2461
  0
LINE
  8
0
 10
57.7281
 20
18.2461
 11
57.7949
 21
18.4073
  0
LINE
  8
0
 10
57.7949
 20
18.4073
 11
57.8645
 21
18.5674
  0
LINE
  8
0
 10
57.8645
 20
18.5674
 11
57.9369
 21
18.7262
  0
LINE
  8
0
 10
57.9369
 20
18.7262
 11
58.0121
 21
18.8837
  0
LINE
  8
0
 10
58.0121
 20
18.8837
 11
58.0899
 21
19.0399
  0
LINE
  8
0
 10
58.0899
 20
19.0399
 11
58.1705
 21
19.1947
  0
LINE
  8
0
 10
58.1705
 20
19.1947
 11
58.2538
 21
19.3481
  0
LINE
  8
0
 10
58.2538
 20
19.3481
 11
58.3397
 21
19.5
  0
LINE
  8
0
 10
58.3397
 20
19.5
 11
58.4283
 21
19.6504
  0
LINE
  8
0
 10
58.4283
 20
19.6504
 11
58.5195
 21
19.7992
  0
LINE
  8
0
 10
58.5195
 20
19.7992
 11
58.6133
 21
19.9464
  0
LINE
  8
0
 10
58.6133
 20
19.9464
 11
58.7096
 21
20.0919
  0
LINE
  8
0
 10
58.7096
 20
20.0919
 11
58.8085
 21
20.2358
  0
LINE
  8
0
 10
58.8085
 20
20.2358
 11
58.9098
 21
20.3778
  0
LINE
  8
0
 10
58.9098
 20
20.3778
 11
59.0136
 21
20.5181
  0
LINE
  8
0
 10
59.0136
 20
20.5181
 11
59.1199
 21
20.6566
  0
LINE
  8
0
 10
59.1199
 20
20.6566
 11
59.2285
 21
20.7932
  0
LINE
  8
0
 10
59.2285
 20
20.7932
 11
59.3396
 21
20.9279
  0
LINE
  8
0
 10
59.3396
 20
20.9279
 11
59.4529
 21
21.0606
  0
LINE
  8
0
 10
59.4529
 20
21.0606
 11
59.5685
 21
21.1913
  0
LINE
  8
0
 10
59.5685
 20
21.1913
 11
59.6865
 21
21.32
  0
LINE
  8
0
 10
59.6865
 20
21.32
 11
59.8066
 21
21.4466
  0
LINE
  8
0
 10
59.8066
 20
21.4466
 11
59.9289
 21
21.5711
  0
LINE
  8
0
 10
59.9289
 20
21.5711
 11
60.0534
 21
21.6934
  0
LINE
  8
0
 10
60.0534
 20
21.6934
 11
60.18
 21
21.8135
  0
LINE
  8
0
 10
60.18
 20
21.8135
 11
60.3087
 21
21.9314
  0
LINE
  8
0
 10
60.3087
 20
21.9314
 11
60.4394
 21
22.0471
  0
LINE
  8
0
 10
60.4394
 20
22.0471
 11
60.5721
 21
22.1604
  0
LINE
  8
0
 10
60.5721
 20
22.1604
 11
60.7068
 21
22.2715
  0
LINE
  8
0
 10
60.7068
 20
22.2715
 11
60.8434
 21
22.3801
  0
LINE
  8
0
 10
60.8434
 20
22.3801
 11
60.9818
 21
22.4863
  0
LINE
  8
0
 10
60.9818
 20
22.4863
 11
61.1221
 21
22.5902
  0
LINE
  8
0
 10
61.1221
 20
22.5902
 11
61.2642
 21
22.6915
  0
LINE
  8
0
 10
61.2642
 20
22.6915
 11
61.4081
 21
22.7904
  0
LINE
  8
0
 10
61.4081
 20
22.7904
 11
61.5536
 21
22.8867
  0
LINE
  8
0
 10
61.5536
 20
22.8867
 11
61.7008
 21
22.9805
  0
LINE
  8
0
 10
61.7008
 20
22.9805
 11
61.8496
 21
23.0717
  0
LINE
  8
0
 10
61.8496
 20
23.0717
 11
62
 21
23.1602
  0
LINE
  8
0
 10
62
 20
23.1602
 11
62.1519
 21
23.2462
  0
LINE
  8
0
 10
62.1519
 20
23.2462
 11
62.3053
 21
23.3295
  0
LINE
  8
0
 10
62.3053
 20
23.3295
 11
62.4601
 21
23.4101
  0
LINE
  8
0
 10
62.4601
 20
23.4101
 11
62.6163
 21
23.4879
  0
LINE
  8
0
 10
62.6163
 20
23.4879
 11
62.7738
 21
23.5631
  0
LINE
  8
0
 10
62.7738
 20
23.5631
 11
62.9326
 21
23.6355
  0
LINE
  8
0
 10
62.9326
 20
23.6355
 11
63.0927
 21
23.705
  0
LINE
  8
0
 10
63.0927
 20
23.705
 11
63.2539
 21
23.7718
  0
LINE
  8
0
 10
63.2539
 20
23.7718
 11
63.4163
 21
23.8358
  0
LINE
  8
0
 10
63.4163
 20
23.8358
 11
63.5798
 21
23.8969
  0
LINE
  8
0
 10
63.5798
 20
23.8969
 11
63.7443
 21
23.9552
  0
LINE
  8
0
 10
63.7443
 20
23.9552
 11
63.9098
 21
24.0106
  0
LINE
  8
0
 10
63.9098
 20
24.0106
 11
64.0763
 21
24.063
  0
LINE
  8
0
 10
64.0763
 20
24.063
 11
64.2436
 21
24.1126
  0
LINE
  8
0
 10
64.2436
 20
24.1126
 11
64.4118
 21
24.1593
  0
LINE
  8
0
 10
64.4118
 20
24.1593
 11
64.5
 21
24.1821
  0
LINE
  8
0
 10
64.5
 20
24.1821
 11
64.5
 21
26
  0
LINE
  8
0
 10
64.5
 20
26
 11
69.5
 21
26
  0
LINE
  8
0
 10
69.5
 20
26
 11
69.5
 21
24.1821
  0
LINE
  8
0
 10
69.5
 20
24.1821
 11
69.5882
 21
24.1593
  0
LINE
  8
0
 10
69.5882
 20
24.1593
 11
69.7564
 21
24.1126
  0
LINE
  8
0
 10
69.7564
 20
24.1126
 11
69.9237
 21
24.063
  0
LINE
  8
0
 10
69.9237
 20
24.063
 11
70.0902
 21
24.0106
  0
LINE
  8
0
 10
70.0902
 20
24.0106
 11
70.2557
 21
23.9552
  0
LINE
  8
0
 10
70.2557
 20
23.9552
 11
70.4202
 21
23.8969
  0
LINE
  8
0
 10
70.4202
 20
23.8969
 11
70.5837
 21
23.8358
  0
LINE
  8
0
 10
70.5837
 20
23.8358
 11
70.7461
 21
23.7718
  0
LINE
  8
0
 10
70.7461
 20
23.7718
 11
70.9073
 21
23.705
  0
LINE
  8
0
 10
70.9073
 20
23.705
 11
71.0674
 21
23.6355
  0
LINE
  8
0
 10
71.0674
 20
23.6355
 11
71.2262
 21
23.5631
  0
LINE
  8
0
 10
71.2262
 20
23.5631
 11
71.3837
 21
23.4879
  0
LINE
  8
0
 10
71.3837
 20
23.4879
 11
71.5399
 21
23.4101
  0
LINE
  8
0
 10
71.5399
 20
23.4101
 11
71.6947
 21
23.3295
  0
LINE
  8
0
 10
71.6947
 20
23.3295
 11
71.8481
 21
23.2462
  0
LINE
  8
0
 10
71.8481
 20
23.2462
 11
72
 21
23.1602
  0
LINE
  8
0
 10
72
 20
23.1602
 11
72.1504
 21
23.0717
  0
LINE
  8
0
 10
72.1504
 20
23.0717
 11
72.2992
 21
22.9805
  0
LINE
  8
0
 10
72.2992
 20
22.9805
 11
72.4464
 21
22.8867
  0
LINE
  8
0
 10
72.4464
 20
22.8867
 11
72.5919
 21
22.7904
  0
LINE
  8
0
 10
72.5919
 20
22.7904
 11
72.7358
 21
22.6915
  0
LINE
  8
0
 10
72.7358
 20
22.6915
 11
72.8778
 21
22.5902
  0
LINE
  8
0
 10
72.8778
 20
22.5902
 11
73.0181
 21
22.4863
  0
LINE
  8
0
 10
73.0181
 20
22.4863
 11
73.1566
 21
22.3801
  0
LINE
  8
0
 10
73.1566
 20
22.3801
 11
73.2932
 21
22.2715
  0
LINE
  8
0
 10
73.2932
 20
22.2715
 11
73.4279
 21
22.1604
  0
LINE
  8
0
 10
73.4279
 20
22.1604
 11
73.5606
 21
22.0471
  0
LINE
  8
0
 10
73.5606
 20
22.0471
 11
73.6913
 21
21.9314
  0
LINE
  8
0
 10
73.6913
 20
21.9314
 11
73.82
 21
21.8135
  0
LINE
  8
0
 10
73.82
 20
21.8135
 11
73.9466
 21
21.6934
  0
LINE
  8
0
 10
73.9466
 20
21.6934
 11
74.0711
 21
21.5711
  0
LINE
  8
0
 10
74.0711
 20
21.5711
 11
74.1934
 21
21.4466
  0
LINE
  8
0
 10
74.1934
 20
21.4466
 11
74.3135
 21
21.32
  0
LINE
  8
0
 10
74.3135
 20
21.32
 11
74.4314
 21
21.1913
  0
LINE
  8
0
 10
74.4314
 20
21.1913
 11
74.5471
 21
21.0606
  0
LINE
  8
0
 10
74.5471
 20
21.0606
 11
74.6604
 21
20.9279
  0
LINE
  8
0
 10
74.6604
 20
20.9279
 11
74.7715
 21
20.7932
  0
LINE
  8
0
 10
74.7715
 20
20.7932
 11
74.8801
 21
20.6566
  0
LINE
  8
0
 10
74.8801
 20
20.6566
 11
74.9863
 21
20.5181
  0
LINE
  8
0
 10
74.9863
 20
20.5181
 11
75.0902
 21
20.3778
  0
LINE
  8
0
 10
75.0902
 20
20.3778
 11
75.1915
 21
20.2358
  0
LINE
  8
0
 10
75.1915
 20
20.2358
 11
75.2904
 21
20.0919
  0
LINE
  8
0
 10
75.2904
 20
20.0919
 11
75.3867
 21
19.9464
  0
LINE
  8
0
 10
75.3867
 20
19.9464
 11
75.4805
 21
19.7992
  0
LINE
  8
0
 10
75.4805
 20
19.7992
 11
75.5717
 21
19.6504
  0
LINE
  8
0
 10
75.5717
 20
19.6504
 11
75.6602
 21
19.5
  0
LINE
  8
0
 10
75.6602
 20
19.5
 11
75.7462
 21
19.3481
  0
LINE
  8
0
 10
75.7462
 20
19.3481
 11
75.8295
 21
19.1947
  0
LINE
  8
0
 10
75.8295
 20
19.1947
 11
75.9101
 21
19.0399
  0
LINE
  8
0
 10
75.9101
 20
19.0399
 11
75.9879
 21
18.8837
  0
LINE
  8
0
 10
75.9879
 20
18.8837
 11
76.0631
 21
18.7262
  0
LINE
  8
0
 10
76.0631
 20
18.7262
 11
76.1355
 21
18.5674
  0
LINE
  8
0
 10
76.1355
 20
18.5674
 11
76.205
 21
18.4073
  0
LINE
  8
0
 10
76.205
 20
18.4073
 11
76.2718
 21
18.2461
  0
LINE
  8
0
 10
76.2718
 20
18.2461
 11
76.3358
 21
18.0837
  0
LINE
  8
0
 10
76.3358
 20
18.0837
 11
76.3969
 21
17.9202
  0
LINE
  8
0
 10
76.3969
 20
17.9202
 11
76.4552
 21
17.7557
  0
LINE
  8
0
 10
76.4552
 20
17.7557
 11
76.5106
 21
17.5902
  0
LINE
  8
0
 10
76.5106
 20
17.5902
 11
76.563
 21
17.4237
  0
LINE
  8
0
 10
76.563
 20
17.4237
 11
76.6126
 21
17.2564
  0
LINE
  8
0
 10
76.6126
 20
17.2564
 11
76.6593
 21
17.0882
  0
LINE
  8
0
 10
76.6593
 20
17.0882
 11
76.703
 21
16.9192
  0
LINE
  8
0
 10
76.703
 20
16.9192
 11
76.7437
 21
16.7495
  0
LINE
  8
0
 10
76.7437
 20
16.7495
 11
76.7815
 21
16.5791
  0
LINE
  8
0
 10
76.7815
 20
16.5791
 11
76.8163
 21
16.4081
  0
LINE
  8
0
 10
76.8163
 20
16.4081
 11
76.8481
 21
16.2365
  0
LINE
  8
0
 10
76.8481
 20
16.2365
 11
76.8769
 21
16.0643
  0
LINE
  8
0
 10
76.8769
 20
16.0643
 11
76.9027
 21
15.8917
  0
LINE
  8
0
 10
76.9027
 20
15.8917
 11
76.9255
 21
15.7187
  0
LINE
  8
0
 10
76.9255
 20
15.7187
 11
76.9452
 21
15.5453
  0
LINE
  8
0
 10
76.9452
 20
15.5453
 11
76.9619
 21
15.3716
  0
LINE
  8
0
 10
76.9619
 20
15.3716
 11
76.9756
 21
15.1976
  0
LINE
  8
0
 10
76.9756
 20
15.1976
 11
76.9873
 21
15
  0
LINE
  8
0
 10
76.9873
 20
15
 11
77
 21
15
  0
LINE
  8
0
 10
77
 20
15
 11
81.9997
 21
0.000762939
  0
LINE
  8
0
 10
81.9997
 20
0.000762939
 11
130.087
 21
0.000762939
  0
LINE
  8
0
 10
130.087
 20
0.000762939
 11
130.262
 21
0.00686646
  0
LINE
  8
0
 10
130.262
 20
0.00686646
 11
130.436
 21
0.0190277
  0
LINE
  8
0
 10
130.436
 20
0.0190277
 11
130.609
 21
0.0372772
  0
LINE
  8
0
 10
130.609
 20
0.0372772
 11
130.782
 21
0.0615692
  0
LINE
  8
0
 10
130.782
 20
0.0615692
 11
130.954
 21
0.0918732
  0
LINE
  8
0
 10
130.954
 20
0.0918732
 11
131.125
 21
0.128159
  0
LINE
  8
0
 10
131.125
 20
0.128159
 11
131.294
 21
0.17038
  0
LINE
  8
0
 10
131.294
 20
0.17038
 11
131.462
 21
0.218491
  0
LINE
  8
0
 10
131.462
 20
0.218491
 11
131.628
 21
0.272415
  0
LINE
  8
0
 10
131.628
 20
0.272415
 11
131.792
 21
0.332108
  0
LINE
  8
0
 10
131.792
 20
0.332108
 11
131.954
 21
0.397476
  0
LINE
  8
0
 10
131.954
 20
0.397476
 11
132.113
 21
0.468475
  0
LINE
  8
0
 10
132.113
 20
0.468475
 11
132.27
 21
0.544968
  0
LINE
  8
0
 10
132.27
 20
0.544968
 11
132.424
 21
0.626907
  0
LINE
  8
0
 10
132.424
 20
0.626907
 11
132.575
 21
0.714172
  0
LINE
  8
0
 10
132.575
 20
0.714172
 11
132.723
 21
0.806656
  0
LINE
  8
0
 10
132.723
 20
0.806656
 11
132.868
 21
0.904251
  0
LINE
  8
0
 10
132.868
 20
0.904251
 11
133.009
 21
1.00684
  0
LINE
  8
0
 10
133.009
 20
1.00684
 11
133.147
 21
1.11427
  0
LINE
  8
0
 10
133.147
 20
1.11427
 11
133.28
 21
1.22646
  0
LINE
  8
0
 10
133.28
 20
1.22646
 11
133.41
 21
1.34325
  0
LINE
  8
0
 10
133.41
 20
1.34325
 11
133.536
 21
1.46448
  0
LINE
  8
0
 10
133.536
 20
1.46448
 11
133.657
 21
1.59001
  0
LINE
  8
0
 10
133.657
 20
1.59001
 11
133.774
 21
1.71971
  0
LINE
  8
0
 10
133.774
 20
1.71971
 11
133.886
 21
1.85341
  0
LINE
  8
0
 10
133.886
 20
1.85341
 11
133.993
 21
1.99094
  0
LINE
  8
0
 10
133.993
 20
1.99094
 11
134.096
 21
2.13213
  0
LINE
  8
0
 10
134.096
 20
2.13213
 11
134.193
 21
2.27681
  0
LINE
  8
0
 10
134.193
 20
2.27681
 11
134.286
 21
2.42482
  0
LINE
  8
0
 10
134.286
 20
2.42482
 11
134.373
 21
2.57596
  0
LINE
  8
0
 10
134.373
 20
2.57596
 11
134.455
 21
2.73006
  0
LINE
  8
0
 10
134.455
 20
2.73006
 11
134.532
 21
2.88692
  0
LINE
  8
0
 10
134.532
 20
2.88692
 11
134.603
 21
3.04636
  0
LINE
  8
0
 10
134.603
 20
3.04636
 11
134.668
 21
3.20816
  0
LINE
  8
0
 10
134.668
 20
3.20816
 11
134.728
 21
3.37216
  0
LINE
  8
0
 10
134.728
 20
3.37216
 11
134.782
 21
3.53815
  0
LINE
  8
0
 10
134.782
 20
3.53815
 11
134.83
 21
3.70592
  0
LINE
  8
0
 10
134.83
 20
3.70592
 11
134.872
 21
3.87526
  0
LINE
  8
0
 10
134.872
 20
3.87526
 11
134.908
 21
4.04596
  0
LINE
  8
0
 10
134.908
 20
4.04596
 11
134.938
 21
4.21783
  0
LINE
  8
0
 10
134.938
 20
4.21783
 11
134.963
 21
4.39066
  0
LINE
  8
0
 10
134.963
 20
4.39066
 11
134.981
 21
4.56422
  0
LINE
  8
0
 10
134.981
 20
4.56422
 11
134.993
 21
4.73833
  0
LINE
  8
0
 10
134.993
 20
4.73833
 11
134.999
 21
4.91275
  0
LINE
  8
0
 10
134.999
 20
4.91275
 11
134.999
 21
35.0872
  0
LINE
  8
0
 10
134.999
 20
35.0872
 11
134.997
 21
35.1745
  0
LINE
  8
0
 10
134.997
 20
35.1745
 11
134.988
 21
35.3488
  0
LINE
  8
0
 10
134.988
 20
35.3488
 11
134.973
 21
35.5226
  0
LINE
  8
0
 10
134.973
 20
35.5226
 11
134.951
 21
35.6959
  0
LINE
  8
0
 10
134.951
 20
35.6959
 11
134.924
 21
35.8682
  0
LINE
  8
0
 10
134.924
 20
35.8682
 11
134.891
 21
36.0396
  0
LINE
  8
0
 10
134.891
 20
36.0396
 11
134.851
 21
36.2096
  0
LINE
  8
0
 10
134.851
 20
36.2096
 11
134.806
 21
36.3782
  0
LINE
  8
0
 10
134.806
 20
36.3782
 11
134.755
 21
36.5451
  0
LINE
  8
0
 10
134.755
 20
36.5451
 11
134.698
 21
36.7101
  0
LINE
  8
0
 10
134.698
 20
36.7101
 11
134.636
 21
36.873
  0
LINE
  8
0
 10
134.636
 20
36.873
 11
134.568
 21
37.0337
  0
LINE
  8
0
 10
134.568
 20
37.0337
 11
134.494
 21
37.1918
  0
LINE
  8
0
 10
134.494
 20
37.1918
 11
134.415
 21
37.3474
  0
LINE
  8
0
 10
134.415
 20
37.3474
 11
134.33
 21
37.5
  0
LINE
  8
0
 10
134.33
 20
37.5
 11
134.24
 21
37.6496
  0
LINE
  8
0
 10
134.24
 20
37.6496
 11
134.145
 21
37.796
  0
LINE
  8
0
 10
134.145
 20
37.796
 11
134.045
 21
37.9389
  0
LINE
  8
0
 10
134.045
 20
37.9389
 11
133.94
 21
38.0783
  0
LINE
  8
0
 10
133.94
 20
38.0783
 11
133.83
 21
38.2139
  0
LINE
  8
0
 10
133.83
 20
38.2139
 11
133.716
 21
38.3456
  0
LINE
  8
0
 10
133.716
 20
38.3456
 11
133.597
 21
38.4733
  0
LINE
  8
0
 10
133.597
 20
38.4733
 11
133.473
 21
38.5967
  0
LINE
  8
0
 10
133.473
 20
38.5967
 11
133.346
 21
38.7157
  0
LINE
  8
0
 10
133.346
 20
38.7157
 11
133.214
 21
38.8302
  0
LINE
  8
0
 10
133.214
 20
38.8302
 11
133.078
 21
38.94
  0
LINE
  8
0
 10
133.078
 20
38.94
 11
132.939
 21
39.0451
  0
LINE
  8
0
 10
132.939
 20
39.0451
 11
132.796
 21
39.1452
  0
LINE
  8
0
 10
132.796
 20
39.1452
 11
132.65
 21
39.2402
  0
LINE
  8
0
 10
132.65
 20
39.2402
 11
132.5
 21
39.3301
  0
LINE
  8
0
 10
132.5
 20
39.3301
 11
132.347
 21
39.4147
  0
LINE
  8
0
 10
132.347
 20
39.4147
 11
132.192
 21
39.494
  0
LINE
  8
0
 10
132.192
 20
39.494
 11
132.034
 21
39.5677
  0
LINE
  8
0
 10
132.034
 20
39.5677
 11
131.873
 21
39.6359
  0
LINE
  8
0
 10
131.873
 20
39.6359
 11
131.71
 21
39.6985
  0
LINE
  8
0
 10
131.71
 20
39.6985
 11
131.545
 21
39.7553
  0
LINE
  8
0
 10
131.545
 20
39.7553
 11
131.378
 21
39.8063
  0
LINE
  8
0
 10
131.378
 20
39.8063
 11
131.21
 21
39.8515
  0
LINE
  8
0
 10
131.21
 20
39.8515
 11
131.04
 21
39.8907
  0
LINE
  8
0
 10
131.04
 20
39.8907
 11
130.868
 21
39.924
  0
LINE
  8
0
 10
130.868
 20
39.924
 11
130.696
 21
39.9513
  0
LINE
  8
0
 10
130.696
 20
39.9513
 11
130.523
 21
39.9726
  0
LINE
  8
0
 10
130.523
 20
39.9726
 11
130.349
 21
39.9878
  0
LINE
  8
0
 10
130.349
 20
39.9878
 11
130.174
 21
39.9969
  0
LINE
  8
0
 10
130.174
 20
39.9969
 11
130
 21
40
  0
LINE
  8
0
 10
130
 20
40
 11
82
 21
39.9997
  0
LINE
  8
0
 10
82
 20
39.9997
 11
82
 21
41.4
  0
LINE
  8
0
 10
82
 20
41.4
 11
77
 21
41.4
  0
LINE
  8
0
 10
77
 20
41.4
 11
77
 21
39.9997
  0
LINE
  8
0
 10
77
 20
39.9997
 11
72
 21
39.9996
  0
LINE
  8
0
 10
72
 20
39.9996
 11
71.9992
 21
35.9127
  0
LINE
  8
0
 10
71.9992
 20
35.9127
 11
71.9931
 21
35.7383
  0
LINE
  8
0
 10
71.9931
 20
35.7383
 11
71.981
 21
35.5642
  0
LINE
  8
0
 10
71.981
 20
35.5642
 11
71.9627
 21
35.3906
  0
LINE
  8
0
 10
71.9627
 20
35.3906
 11
71.9384
 21
35.2178
  0
LINE
  8
0
 10
71.9384
 20
35.2178
 11
71.9081
 21
35.0459
  0
LINE
  8
0
 10
71.9081
 20
35.0459
 11
71.8718
 21
34.8752
  0
LINE
  8
0
 10
71.8718
 20
34.8752
 11
71.8296
 21
34.7059
  0
LINE
  8
0
 10
71.8296
 20
34.7059
 11
71.7815
 21
34.5381
  0
LINE
  8
0
 10
71.7815
 20
34.5381
 11
71.7276
 21
34.3721
  0
LINE
  8
0
 10
71.7276
 20
34.3721
 11
71.6679
 21
34.2081
  0
LINE
  8
0
 10
71.6679
 20
34.2081
 11
71.6025
 21
34.0463
  0
LINE
  8
0
 10
71.6025
 20
34.0463
 11
71.5315
 21
33.8869
  0
LINE
  8
0
 10
71.5315
 20
33.8869
 11
71.455
 21
33.73
  0
LINE
  8
0
 10
71.455
 20
33.73
 11
71.3731
 21
33.5759
  0
LINE
  8
0
 10
71.3731
 20
33.5759
 11
71.2858
 21
33.4248
  0
LINE
  8
0
 10
71.2858
 20
33.4248
 11
71.1933
 21
33.2768
  0
LINE
  8
0
 10
71.1933
 20
33.2768
 11
71.0957
 21
33.1321
  0
LINE
  8
0
 10
71.0957
 20
33.1321
 11
70.9932
 21
32.9909
  0
LINE
  8
0
 10
70.9932
 20
32.9909
 11
70.8857
 21
32.8534
  0
LINE
  8
0
 10
70.8857
 20
32.8534
 11
70.7735
 21
32.7197
  0
LINE
  8
0
 10
70.7735
 20
32.7197
 11
70.6568
 21
32.59
  0
LINE
  8
0
 10
70.6568
 20
32.59
 11
70.5355
 21
32.4645
  0
LINE
  8
0
 10
70.5355
 20
32.4645
 11
70.41
 21
32.3432
  0
LINE
  8
0
 10
70.41
 20
32.3432
 11
70.2803
 21
32.2264
  0
LINE
  8
0
 10
70.2803
 20
32.2264
 11
70.1466
 21
32.1143
  0
LINE
  8
0
 10
70.1466
 20
32.1143
 11
70.0091
 21
32.0068
  0
LINE
  8
0
 10
70.0091
 20
32.0068
 11
69.8679
 21
31.9042
  0
LINE
  8
0
 10
69.8679
 20
31.9042
 11
69.7232
 21
31.8066
  0
LINE
  8
0
 10
69.7232
 20
31.8066
 11
69.5752
 21
31.7142
  0
LINE
  8
0
 10
69.5752
 20
31.7142
 11
69.424
 21
31.6269
  0
LINE
  8
0
 10
69.424
 20
31.6269
 11
69.2699
 21
31.545
  0
LINE
  8
0
 10
69.2699
 20
31.545
 11
69.1131
 21
31.4685
  0
LINE
  8
0
 10
69.1131
 20
31.4685
 11
68.9536
 21
31.3975
  0
LINE
  8
0
 10
68.9536
 20
31.3975
 11
68.7918
 21
31.3321
  0
LINE
  8
0
 10
68.7918
 20
31.3321
 11
68.6278
 21
31.2724
  0
LINE
  8
0
 10
68.6278
 20
31.2724
 11
68.4619
 21
31.2185
  0
LINE
  8
0
 10
68.4619
 20
31.2185
 11
68.2941
 21
31.1704
  0
LINE
  8
0
 10
68.2941
 20
31.1704
 11
68.1247
 21
31.1281
  0
LINE
  8
0
 10
68.1247
 20
31.1281
 11
67.954
 21
31.0919
  0
LINE
  8
0
 10
67.954
 20
31.0919
 11
67.7822
 21
31.0616
  0
LINE
  8
0
 10
67.7822
 20
31.0616
 11
67.6093
 21
31.0373
  0
LINE
  8
0
 10
67.6093
 20
31.0373
 11
67.4358
 21
31.019
  0
LINE
  8
0
 10
67.4358
 20
31.019
 11
67.2617
 21
31.0069
  0
LINE
  8
0
 10
67.2617
 20
31.0069
 11
67.0872
 21
31.0007
  0
LINE
  8
0
 10
67.0872
 20
31.0007
 11
66.9127
 21
31.0007
  0
LINE
  8
0
 10
66.9127
 20
31.0007
 11
66.7383
 21
31.0069
  0
LINE
  8
0
 10
66.7383
 20
31.0069
 11
66.5642
 21
31.019
  0
LINE
  8
0
 10
66.5642
 20
31.019
 11
66.3906
 21
31.0373
  0
LINE
  8
0
 10
66.3906
 20
31.0373
 11
66.2178
 21
31.0616
  0
LINE
  8
0
 10
66.2178
 20
31.0616
 11
66.0459
 21
31.0919
  0
LINE
  8
0
 10
66.0459
 20
31.0919
 11
65.8752
 21
31.1281
  0
LINE
  8
0
 10
65.8752
 20
31.1281
 11
65.7059
 21
31.1704
  0
LINE
  8
0
 10
65.7059
 20
31.1704
 11
65.5381
 21
31.2185
  0
LINE
  8
0
 10
65.5381
 20
31.2185
 11
65.3721
 21
31.2724
  0
LINE
  8
0
 10
65.3721
 20
31.2724
 11
65.2081
 21
31.3321
  0
LINE
  8
0
 10
65.2081
 20
31.3321
 11
65.0463
 21
31.3975
  0
LINE
  8
0
 10
65.0463
 20
31.3975
 11
64.8869
 21
31.4685
  0
LINE
  8
0
 10
64.8869
 20
31.4685
 11
64.73
 21
31.545
  0
LINE
  8
0
 10
64.73
 20
31.545
 11
64.5759
 21
31.6269
  0
LINE
  8
0
 10
64.5759
 20
31.6269
 11
64.4248
 21
31.7142
  0
LINE
  8
0
 10
64.4248
 20
31.7142
 11
64.2768
 21
31.8066
  0
LINE
  8
0
 10
64.2768
 20
31.8066
 11
64.1321
 21
31.9042
  0
LINE
  8
0
 10
64.1321
 20
31.9042
 11
63.9909
 21
32.0068
  0
LINE
  8
0
 10
63.9909
 20
32.0068
 11
63.8534
 21
32.1143
  0
LINE
  8
0
 10
63.8534
 20
32.1143
 11
63.7197
 21
32.2264
  0
LINE
  8
0
 10
63.7197
 20
32.2264
 11
63.59
 21
32.3432
  0
LINE
  8
0
 10
63.59
 20
32.3432
 11
63.4645
 21
32.4645
  0
LINE
  8
0
 10
63.4645
 20
32.4645
 11
63.3432
 21
32.59
  0
LINE
  8
0
 10
63.3432
 20
32.59
 11
63.2264
 21
32.7197
  0
LINE
  8
0
 10
63.2264
 20
32.7197
 11
63.1143
 21
32.8534
  0
LINE
  8
0
 10
63.1143
 20
32.8534
 11
63.0068
 21
32.9909
  0
LINE
  8
0
 10
63.0068
 20
32.9909
 11
62.9042
 21
33.1321
  0
LINE
  8
0
 10
62.9042
 20
33.1321
 11
62.8066
 21
33.2768
  0
LINE
  8
0
 10
62.8066
 20
33.2768
 11
62.7142
 21
33.4248
  0
LINE
  8
0
 10
62.7142
 20
33.4248
 11
62.6269
 21
33.5759
  0
LINE
  8
0
 10
62.6269
 20
33.5759
 11
62.545
 21
33.73
  0
LINE
  8
0
 10
62.545
 20
33.73
 11
62.4685
 21
33.8869
  0
LINE
  8
0
 10
62.4685
 20
33.8869
 11
62.3975
 21
34.0463
  0
LINE
  8
0
 10
62.3975
 20
34.0463
 11
62.3321
 21
34.2081
  0
LINE
  8
0
 10
62.3321
 20
34.2081
 11
62.2724
 21
34.3721
  0
LINE
  8
0
 10
62.2724
 20
34.3721
 11
62.2185
 21
34.5381
  0
LINE
  8
0
 10
62.2185
 20
34.5381
 11
62.1704
 21
34.7059
  0
LINE
  8
0
 10
62.1704
 20
34.7059
 11
62.1281
 21
34.8752
  0
LINE
  8
0
 10
62.1281
 20
34.8752
 11
62.0919
 21
35.0459
  0
LINE
  8
0
 10
62.0919
 20
35.0459
 11
62.0616
 21
35.2178
  0
LINE
  8
0
 10
62.0616
 20
35.2178
 11
62.0373
 21
35.3906
  0
LINE
  8
0
 10
62.0373
 20
35.3906
 11
62.019
 21
35.5642
  0
LINE
  8
0
 10
62.019
 20
35.5642
 11
62.0069
 21
35.7383
  0
LINE
  8
0
 10
62.0069
 20
35.7383
 11
62.0007
 21
35.9127
  0
LINE
  8
0
 10
62.0007
 20
35.9127
 11
62
 21
39.9996
  0
LINE
  8
0
 10
62
 20
39.9996
 11
57
 21
39.9996
  0
LINE
  8
0
 10
57
 20
39.9996
 11
57
 21
41.4
  0
LINE
  8
0
 10
57
 20
41.4
 11
52
 21
41.4
  0
LINE
  8
0
 10
52
 20
41.4
 11
52
 21
39.9995
  0
LINE
  8
0
 10
52
 20
39.9995
 11
4.91275
 21
39.9992
  0
LINE
  8
0
 10
4.91275
 20
39.9992
 11
4.73833
 21
39.9931
  0
LINE
  8
0
 10
4.73833
 20
39.9931
 11
4.56422
 21
39.981
  0
LINE
  8
0
 10
4.56422
 20
39.981
 11
4.39066
 21
39.9627
  0
LINE
  8
0
 10
4.39066
 20
39.9627
 11
4.21783
 21
39.9384
  0
LINE
  8
0
 10
4.21783
 20
39.9384
 11
4.04596
 21
39.9081
  0
LINE
  8
0
 10
4.04596
 20
39.9081
 11
3.87526
 21
39.8718
  0
LINE
  8
0
 10
3.87526
 20
39.8718
 11
3.70592
 21
39.8296
  0
LINE
  8
0
 10
3.70592
 20
39.8296
 11
3.53815
 21
39.7815
  0
LINE
  8
0
 10
3.53815
 20
39.7815
 11
3.37216
 21
39.7276
  0
LINE
  8
0
 10
3.37216
 20
39.7276
 11
3.20816
 21
39.6679
  0
LINE
  8
0
 10
3.20816
 20
39.6679
 11
3.04636
 21
39.6025
  0
LINE
  8
0
 10
3.04636
 20
39.6025
 11
2.88692
 21
39.5315
  0
LINE
  8
0
 10
2.88692
 20
39.5315
 11
2.73006
 21
39.455
  0
LINE
  8
0
 10
2.73006
 20
39.455
 11
2.57596
 21
39.3731
  0
LINE
  8
0
 10
2.57596
 20
39.3731
 11
2.42482
 21
39.2858
  0
LINE
  8
0
 10
2.42482
 20
39.2858
 11
2.27681
 21
39.1933
  0
LINE
  8
0
 10
2.27681
 20
39.1933
 11
2.13213
 21
39.0957
  0
LINE
  8
0
 10
2.13213
 20
39.0957
 11
1.99094
 21
38.9932
  0
LINE
  8
0
 10
1.99094
 20
38.9932
 11
1.85341
 21
38.8857
  0
LINE
  8
0
 10
1.85341
 20
38.8857
 11
1.71971
 21
38.7735
  0
LINE
  8
0
 10
1.71971
 20
38.7735
 11
1.59001
 21
38.6568
  0
LINE
  8
0
 10
1.59001
 20
38.6568
 11
1.46448
 21
38.5355
  0
LINE
  8
0
 10
1.46448
 20
38.5355
 11
1.34325
 21
38.41
  0
LINE
  8
0
 10
1.34325
 20
38.41
 11
1.22646
 21
38.2803
  0
LINE
  8
0
 10
1.22646
 20
38.2803
 11
1.11427
 21
38.1466
  0
LINE
  8
0
 10
1.11427
 20
38.1466
 11
1.00684
 21
38.0091
  0
LINE
  8
0
 10
1.00684
 20
38.0091
 11
0.904251
 21
37.8679
  0
LINE
  8
0
 10
0.904251
 20
37.8679
 11
0.806656
 21
37.7232
  0
LINE
  8
0
 10
0.806656
 20
37.7232
 11
0.714172
 21
37.5752
  0
LINE
  8
0
 10
0.714172
 20
37.5752
 11
0.626907
 21
37.424
  0
LINE
  8
0
 10
0.626907
 20
37.424
 11
0.544968
 21
37.2699
  0
LINE
  8
0
 10
0.544968
 20
37.2699
 11
0.468475
 21
37.1131
  0
LINE
  8
0
 10
0.468475
 20
37.1131
 11
0.397476
 21
36.9536
  0
LINE
  8
0
 10
0.397476
 20
36.9536
 11
0.332108
 21
36.7918
  0
LINE
  8
0
 10
0.332108
 20
36.7918
 11
0.272415
 21
36.6278
  0
LINE
  8
0
 10
0.272415
 20
36.6278
 11
0.218491
 21
36.4619
  0
LINE
  8
0
 10
0.218491
 20
36.4619
 11
0.17038
 21
36.2941
  0
LINE
  8
0
 10
0.17038
 20
36.2941
 11
0.128159
 21
36.1247
  0
LINE
  8
0
 10
0.128159
 20
36.1247
 11
0.0918732
 21
35.954
  0
LINE
  8
0
 10
0.0918732
 20
35.954
 11
0.0615692
 21
35.7822
  0
LINE
  8
0
 10
0.0615692
 20
35.7822
 11
0.0372772
 21
35.6093
  0
LINE
  8
0
 10
0.0372772
 20
35.6093
 11
0.0190277
 21
35.4358
  0
LINE
  8
0
 10
0.0190277
 20
35.4358
 11
0.00686646
 21
35.2617
  0
LINE
  8
0
 10
0.00686646
 20
35.2617
 11
0.000762939
 21
35.0872
  0
LINE
  8
0
 10
0.000762939
 20
35.0872
 11
0.000762939
 21
4.91275
  0
LINE
  8
0
 10
0.000762939
 20
4.91275
 11
0.00686646
 21
4.73833
  0
LINE
  8
0
 10
0.00686646
 20
4.73833
 11
0.0190277
 21
4.56422
  0
LINE
  8
0
 10
0.0190277
 20
4.56422
 11
0.0372772
 21
4.39066
  0
LINE
  8
0
 10
0.0372772
 20
4.39066
 11
0.0615692
 21
4.21783
  0
LINE
  8
0
 10
0.0615692
 20
4.21783
 11
0.0918732
 21
4.04596
  0
LINE
  8
0
 10
0.0918732
 20
4.04596
 11
0.128159
 21
3.87526
  0
LINE
  8
0
 10
0.128159
 20
3.87526
 11
0.17038
 21
3.70592
  0
LINE
  8
0
 10
0.17038
 20
3.70592
 11
0.218491
 21
3.53815
  0
LINE
  8
0
 10
0.218491
 20
3.53815
 11
0.272415
 21
3.37216
  0
LINE
  8
0
 10
0.272415
 20
3.37216
 11
0.332108
 21
3.20816
  0
LINE
  8
0
 10
0.332108
 20
3.20816
 11
0.397476
 21
3.04636
  0
LINE
  8
0
 10
0.397476
 20
3.04636
 11
0.468475
 21
2.88692
  0
LINE
  8
0
 10
0.468475
 20
2.88692
 11
0.544968
 21
2.73006
  0
LINE
  8
0
 10
0.544968
 20
2.73006
 11
0.626907
 21
2.57596
  0
LINE
  8
0
 10
0.626907
 20
2.57596
 11
0.714172
 21
2.42482
  0
LINE
  8
0
 10
0.714172
 20
2.42482
 11
0.806656
 21
2.27681
  0
LINE
  8
0
 10
0.806656
 20
2.27681
 11
0.904251
 21
2.13213
  0
LINE
  8
0
 10
0.904251
 20
2.13213
 11
1.00684
 21
1.99094
  0
LINE
  8
0
 10
1.00684
 20
1.99094
 11
1.11427
 21
1.85341
  0
LINE
  8
0
 10
1.11427
 20
1.85341
 11
1.22646
 21
1.71971
  0
LINE
  8
0
 10
1.22646
 20
1.71971
 11
1.34325
 21
1.59001
  0
LINE
  8
0
 10
1.34325
 20
1.59001
 11
1.46448
 21
1.46448
  0
LINE
  8
0
 10
1.46448
 20
1.46448
 11
1.59001
 21
1.34325
  0
LINE
  8
0
 10
1.59001
 20
1.34325
 11
1.71971
 21
1.22646
  0
LINE
  8
0
 10
1.71971
 20
1.22646
 11
1.85341
 21
1.11427
  0
LINE
  8
0
 10
1.85341
 20
1.11427
 11
1.99094
 21
1.00684
  0
LINE
  8
0
 10
1.99094
 20
1.00684
 11
2.13213
 21
0.904251
  0
LINE
  8
0
 10
2.13213
 20
0.904251
 11
2.27681
 21
0.806656
  0
LINE
  8
0
 10
2.27681
 20
0.806656
 11
2.42482
 21
0.714172
  0
LINE
  8
0
 10
2.42482
 20
0.714172
 11
2.57596
 21
0.626907
  0
LINE
  8
0
 10
2.57596
 20
0.626907
 11
2.73006
 21
0.544968
  0
LINE
  8
0
 10
2.73006
 20
0.544968
 11
2.88692
 21
0.468475
  0
LINE
  8
0
 10
2.88692
 20
0.468475
 11
3.04636
 21
0.397476
  0
LINE
  8
0
 10
3.04636
 20
0.397476
 11
3.20816
 21
0.332108
  0
LINE
  8
0
 10
3.20816
 20
0.332108
 11
3.37216
 21
0.272415
  0
LINE
  8
0
 10
3.37216
 20
0.272415
 11
3.53815
 21
0.218491
  0
LINE
  8
0
 10
3.53815
 20
0.218491
 11
3.70592
 21
0.17038
  0
LINE
  8
0
 10
3.70592
 20
0.17038
 11
3.87526
 21
0.128159
  0
LINE
  8
0
 10
3.87526
 20
0.128159
 11
4.04596
 21
0.0918732
  0
LINE
  8
0
 10
4.04596
 20
0.0918732
 11
4.21783
 21
0.0615692
  0
LINE
  8
0
 10
4.21783
 20
0.0615692
 11
4.39066
 21
0.0372772
  0
LINE
  8
0
 10
4.39066
 20
0.0372772
 11
4.56422
 21
0.0190277
  0
LINE
  8
0
 10
4.56422
 20
0.0190277
 11
4.73833
 21
0.00686646
  0
LINE
  8
0
 10
4.73833
 20
0.00686646
 11
4.91275
 21
0.000762939
  0
LINE
  8
0
 10
4.91275
 20
0.000762939
 11
52.0003
 21
0.000762939
  0
LINE
  8
0
 10
52.0003
 20
0.000762939
 11
57
 21
15
  0
LINE
  8
0
 10
2
 20
25.5
 11
2
 21
29.5
  0
LINE
  8
0
 10
2
 20
29.5
 11
3.5
 21
29.5
  0
LINE
  8
0
 10
3.5
 20
29.5
 11
3.5
 21
25.5
  0
LINE
  8
0
 10
3.5
 20
25.5
 11
2
 21
25.5
  0
LINE
  8
0
 10
131.5
 20
25.5
 11
131.5
 21
29.5
  0
LINE
  8
0
 10
131.5
 20
29.5
 11
133
 21
29.5
  0
LINE
  8
0
 10
133
 20
29.5
 11
133
 21
25.5
  0
LINE
  8
0
 10
133
 20
25.5
 11
131.5
 21
25.5
  0
LINE
  8
0
 10
2
 20
10.5
 11
2
 21
14.5
  0
LINE
  8
0
 10
2
 20
14.5
 11
3.5
 21
14.5
  0
LINE
  8
0
 10
3.5
 20
14.5
 11
3.5
 21
10.5
  0
LINE
  8
0
 10
3.5
 20
10.5
 11
2
 21
10.5
  0
LINE
  8
0
 10
131.5
 20
10.5
 11
131.5
 21
14.5
  0
LINE
  8
0
 10
131.5
 20
14.5
 11
133
 21
14.5
  0
LINE
  8
0
 10
133
 20
14.5
 11
133
 21
10.5
  0
LINE
  8
0
 10
133
 20
10.5
 11
131.5
 21
10.5
  0
LINE
  8
0
 10
-2.94768
 20
2.50137
 11
-2.82635
 21
2.5152
  0
LINE
  8
0
 10
-2.82635
 20
2.5152
 11
-2.70764
 21
2.5437
  0
LINE
  8
0
 10
-2.70764
 20
2.5437
 11
-2.59328
 21
2.58646
  0
LINE
  8
0
 10
-2.59328
 20
2.58646
 11
-2.48497
 21
2.64284
  0
LINE
  8
0
 10
-2.48497
 20
2.64284
 11
-2.38435
 21
2.71199
  0
LINE
  8
0
 10
-2.38435
 20
2.71199
 11
-2.29291
 21
2.79291
  0
LINE
  8
0
 10
-2.29291
 20
2.79291
 11
-2.21199
 21
2.88435
  0
LINE
  8
0
 10
-2.21199
 20
2.88435
 11
-2.14284
 21
2.98497
  0
LINE
  8
0
 10
-2.14284
 20
2.98497
 11
-2.08646
 21
3.09328
  0
LINE
  8
0
 10
-2.08646
 20
3.09328
 11
-2.0437
 21
3.20764
  0
LINE
  8
0
 10
-2.0437
 20
3.20764
 11
-2.0152
 21
3.32635
  0
LINE
  8
0
 10
-2.0152
 20
3.32635
 11
-2.00137
 21
3.44768
  0
LINE
  8
0
 10
-2.00137
 20
3.44768
 11
-2
 21
3.5
  0
LINE
  8
0
 10
-2
 20
3.5
 11
-2
 21
36.5
  0
LINE
  8
0
 10
-2
 20
36.5
 11
-2.00746
 21
36.6219
  0
LINE
  8
0
 10
-2.00746
 20
36.6219
 11
-2.02971
 21
36.7419
  0
LINE
  8
0
 10
-2.02971
 20
36.7419
 11
-2.06642
 21
36.8584
  0
LINE
  8
0
 10
-2.06642
 20
36.8584
 11
-2.11707
 21
36.9695
  0
LINE
  8
0
 10
-2.11707
 20
36.9695
 11
-2.18086
 21
37.0736
  0
LINE
  8
0
 10
-2.18086
 20
37.0736
 11
-2.25687
 21
37.1691
  0
LINE
  8
0
 10
-2.25687
 20
37.1691
 11
-2.34395
 21
37.2547
  0
LINE
  8
0
 10
-2.34395
 20
37.2547
 11
-2.44081
 21
37.329
  0
LINE
  8
0
 10
-2.44081
 20
37.329
 11
-2.54602
 21
37.391
  0
LINE
  8
0
 10
-2.54602
 20
37.391
 11
-2.65799
 21
37.4397
  0
LINE
  8
0
 10
-2.65799
 20
37.4397
 11
-2.77505
 21
37.4744
  0
LINE
  8
0
 10
-2.77505
 20
37.4744
 11
-2.89548
 21
37.4945
  0
LINE
  8
0
 10
-2.89548
 20
37.4945
 11
-3
 21
37.5
  0
LINE
  8
0
 10
-3
 20
37.5
 11
-11.0523
 21
37.4986
  0
LINE
  8
0
 10
-11.0523
 20
37.4986
 11
-11.1736
 21
37.4848
  0
LINE
  8
0
 10
-11.1736
 20
37.4848
 11
-11.2924
 21
37.4563
  0
LINE
  8
0
 10
-11.2924
 20
37.4563
 11
-11.4067
 21
37.4135
  0
LINE
  8
0
 10
-11.4067
 20
37.4135
 11
-11.515
 21
37.3572
  0
LINE
  8
0
 10
-11.515
 20
37.3572
 11
-11.6156
 21
37.288
  0
LINE
  8
0
 10
-11.6156
 20
37.288
 11
-11.7071
 21
37.2071
  0
LINE
  8
0
 10
-11.7071
 20
37.2071
 11
-11.788
 21
37.1156
  0
LINE
  8
0
 10
-11.788
 20
37.1156
 11
-11.8572
 21
37.015
  0
LINE
  8
0
 10
-11.8572
 20
37.015
 11
-11.9135
 21
36.9067
  0
LINE
  8
0
 10
-11.9135
 20
36.9067
 11
-11.9563
 21
36.7924
  0
LINE
  8
0
 10
-11.9563
 20
36.7924
 11
-11.9848
 21
36.6736
  0
LINE
  8
0
 10
-11.9848
 20
36.6736
 11
-11.9986
 21
36.5523
  0
LINE
  8
0
 10
-11.9986
 20
36.5523
 11
-12
 21
36.5
  0
LINE
  8
0
 10
-12
 20
36.5
 11
-11.9997
 21
30
  0
LINE
  8
0
 10
-11.9997
 20
30
 11
-14
 21
30
  0
LINE
  8
0
 10
-14
 20
30
 11
-14
 21
25
  0
LINE
  8
0
 10
-14
 20
25
 11
-11.9995
 21
25
  0
LINE
  8
0
 10
-11.9995
 20
25
 11
-11.9991
 21
15
  0
LINE
  8
0
 10
-11.9991
 20
15
 11
-14
 21
15
  0
LINE
  8
0
 10
-14
 20
15
 11
-14
 21
10
  0
LINE
  8
0
 10
-14
 20
10
 11
-11.9989
 21
10
  0
LINE
  8
0
 10
-11.9989
 20
10
 11
-11.9986
 21
3.44768
  0
LINE
  8
0
 10
-11.9986
 20
3.44768
 11
-11.9848
 21
3.32635
  0
LINE
  8
0
 10
-11.9848
 20
3.32635
 11
-11.9563
 21
3.20764
  0
LINE
  8
0
 10
-11.9563
 20
3.20764
 11
-11.9135
 21
3.09328
  0
LINE
  8
0
 10
-11.9135
 20
3.09328
 11
-11.8572
 21
2.98497
  0
LINE
  8
0
 10
-11.8572
 20
2.98497
 11
-11.788
 21
2.88435
  0
LINE
  8
0
 10
-11.788
 20
2.88435
 11
-11.7071
 21
2.79291
  0
LINE
  8
0
 10
-11.7071
 20
2.79291
 11
-11.6156
 21
2.71199
  0
LINE
  8
0
 10
-11.6156
 20
2.71199
 11
-11.515
 21
2.64284
  0
LINE
  8
0
 10
-11.515
 20
2.64284
 11
-11.4067
 21
2.58646
  0
LINE
  8
0
 10
-11.4067
 20
2.58646
 11
-11.2924
 21
2.5437
  0
LINE
  8
0
 10
-11.2924
 20
2.5437
 11
-11.1736
 21
2.5152
  0
LINE
  8
0
 10
-11.1736
 20
2.5152
 11
-11.0523
 21
2.50137
  0
LINE
  8
0
 10
-11.0523
 20
2.50137
 11
-11
 21
2.5
  0
LINE
  8
0
 10
-11
 20
2.5
 11
-2.94768
 21
2.50137
  0
LINE
  8
0
 10
146.052
 20
2.50137
 11
146.174
 21
2.5152
  0
LINE
  8
0
 10
146.174
 20
2.5152
 11
146.292
 21
2.5437
  0
LINE
  8
0
 10
146.292
 20
2.5437
 11
146.407
 21
2.58646
  0
LINE
  8
0
 10
146.407
 20
2.58646
 11
146.515
 21
2.64284
  0
LINE
  8
0
 10
146.515
 20
2.64284
 11
146.616
 21
2.71199
  0
LINE
  8
0
 10
146.616
 20
2.71199
 11
146.707
 21
2.79291
  0
LINE
  8
0
 10
146.707
 20
2.79291
 11
146.788
 21
2.88435
  0
LINE
  8
0
 10
146.788
 20
2.88435
 11
146.857
 21
2.98497
  0
LINE
  8
0
 10
146.857
 20
2.98497
 11
146.914
 21
3.09328
  0
LINE
  8
0
 10
146.914
 20
3.09328
 11
146.956
 21
3.20764
  0
LINE
  8
0
 10
146.956
 20
3.20764
 11
146.985
 21
3.32635
  0
LINE
  8
0
 10
146.985
 20
3.32635
 11
146.999
 21
3.44768
  0
LINE
  8
0
 10
146.999
 20
3.44768
 11
147
 21
3.5
  0
LINE
  8
0
 10
147
 20
3.5
 11
147
 21
10
  0
LINE
  8
0
 10
147
 20
10
 11
149
 21
10
  0
LINE
  8
0
 10
149
 20
10
 11
149
 21
15
  0
LINE
  8
0
 10
149
 20
15
 11
147
 21
15
  0
LINE
  8
0
 10
147
 20
15
 11
147
 21
25
  0
LINE
  8
0
 10
147
 20
25
 11
149
 21
25
  0
LINE
  8
0
 10
149
 20
25
 11
149
 21
30
  0
LINE
  8
0
 10
149
 20
30
 11
147
 21
30
  0
LINE
  8
0
 10
147
 20
30
 11
147
 21
36.5
  0
LINE
  8
0
 10
147
 20
36.5
 11
146.993
 21
36.6219
  0
LINE
  8
0
 10
146.993
 20
36.6219
 11
146.97
 21
36.7419
  0
LINE
  8
0
 10
146.97
 20
36.7419
 11
146.934
 21
36.8584
  0
LINE
  8
0
 10
146.934
 20
36.8584
 11
146.883
 21
36.9695
  0
LINE
  8
0
 10
146.883
 20
36.9695
 11
146.819
 21
37.0736
  0
LINE
  8
0
 10
146.819
 20
37.0736
 11
146.743
 21
37.1691
  0
LINE
  8
0
 10
146.743
 20
37.1691
 11
146.656
 21
37.2547
  0
LINE
  8
0
 10
146.656
 20
37.2547
 11
146.559
 21
37.329
  0
LINE
  8
0
 10
146.559
 20
37.329
 11
146.454
 21
37.391
  0
LINE
  8
0
 10
146.454
 20
37.391
 11
146.342
 21
37.4397
  0
LINE
  8
0
 10
146.342
 20
37.4397
 11
146.225
 21
37.4744
  0
LINE
  8
0
 10
146.225
 20
37.4744
 11
146.105
 21
37.4945
  0
LINE
  8
0
 10
146.105
 20
37.4945
 11
146
 21
37.5
  0
LINE
  8
0
 10
146
 20
37.5
 11
137.948
 21
37.4986
  0
LINE
  8
0
 10
137.948
 20
37.4986
 11
137.826
 21
37.4848
  0
LINE
  8
0
 10
137.826
 20
37.4848
 11
137.708
 21
37.4563
  0
LINE
  8
0
 10
137.708
 20
37.4563
 11
137.593
 21
37.4135
  0
LINE
  8
0
 10
137.593
 20
37.4135
 11
137.485
 21
37.3572
  0
LINE
  8
0
 10
137.485
 20
37.3572
 11
137.384
 21
37.288
  0
LINE
  8
0
 10
137.384
 20
37.288
 11
137.293
 21
37.2071
  0
LINE
  8
0
 10
137.293
 20
37.2071
 11
137.212
 21
37.1156
  0
LINE
  8
0
 10
137.212
 20
37.1156
 11
137.143
 21
37.015
  0
LINE
  8
0
 10
137.143
 20
37.015
 11
137.086
 21
36.9067
  0
LINE
  8
0
 10
137.086
 20
36.9067
 11
137.044
 21
36.7924
  0
LINE
  8
0
 10
137.044
 20
36.7924
 11
137.015
 21
36.6736
  0
LINE
  8
0
 10
137.015
 20
36.6736
 11
137.001
 21
36.5523
  0
LINE
  8
0
 10
137.001
 20
36.5523
 11
137
 21
36.5
  0
LINE
  8
0
 10
137
 20
36.5
 11
137.001
 21
3.44768
  0
LINE
  8
0
 10
137.001
 20
3.44768
 11
137.015
 21
3.32635
  0
LINE
  8
0
 10
137.015
 20
3.32635
 11
137.044
 21
3.20764
  0
LINE
  8
0
 10
137.044
 20
3.20764
 11
137.086
 21
3.09328
  0
LINE
  8
0
 10
137.086
 20
3.09328
 11
137.143
 21
2.98497
  0
LINE
  8
0
 10
137.143
 20
2.98497
 11
137.212
 21
2.88435
  0
LINE
  8
0
 10
137.212
 20
2.88435
 11
137.293
 21
2.79291
  0
LINE
  8
0
 10
137.293
 20
2.79291
 11
137.384
 21
2.71199
  0
LINE
  8
0
 10
137.384
 20
2.71199
 11
137.485
 21
2.64284
  0
LINE
  8
0
 10
137.485
 20
2.64284
 11
137.593
 21
2.58646
  0
LINE
  8
0
 10
137.593
 20
2.58646
 11
137.708
 21
2.5437
  0
LINE
  8
0
 10
137.708
 20
2.5437
 11
137.826
 21
2.5152
  0
LINE
  8
0
 10
137.826
 20
2.5152
 11
137.948
 21
2.50137
  0
LINE
  8
0
 10
137.948
 20
2.50137
 11
138
 21
2.5
  0
LINE
  8
0
 10
138
 20
2.5
 11
146.052
 21
2.50137
  0
ENDSEC
  0
SECTION
  2
OBJECTS
  0
DICTIONARY
  0
ENDSEC
  0
EOF
