<?xml version="1.0" encoding="UTF-8" standalone="no"?>
<!-- Created with Inkscape (http://www.inkscape.org/) -->

<svg
   xmlns:dc="http://purl.org/dc/elements/1.1/"
   xmlns:cc="http://creativecommons.org/ns#"
   xmlns:rdf="http://www.w3.org/1999/02/22-rdf-syntax-ns#"
   xmlns:svg="http://www.w3.org/2000/svg"
   xmlns="http://www.w3.org/2000/svg"
   version="1.1"
   width="400"
   height="280"
   id="svg2"
   xml:space="preserve"><metadata
     id="metadata8"><rdf:RDF><cc:Work
         rdf:about=""><dc:format>image/svg+xml</dc:format><dc:type
           rdf:resource="http://purl.org/dc/dcmitype/StillImage" /><dc:title></dc:title></cc:Work></rdf:RDF></metadata><defs
     id="defs6" /><g
     transform="matrix(1.25,0,0,-1.25,0,280)"
     id="g10"><g
       transform="translate(-247.43006,-612.80147)"
       id="g4649"><path
         d="m 320.0905,671.1495 0,41.53559 c 0,10.05834 -8.73745,18.12836 -18.95449,18.12836 l -25.54959,0 c -10.21704,0 -18.95916,-8.07002 -18.95916,-18.12836 l 0,-41.53559 c 0,-10.05834 8.07934,-18.46441 18.30105,-18.46441 l 26.86581,0 c 10.05367,0 18.29638,8.40607 18.29638,18.46441 m -12.19603,1.64761 c 0,-5.11085 -4.12136,-9.06418 -9.06418,-9.06418 l -21.10152,0 c -4.94282,0 -8.90081,3.95333 -8.90081,9.06418 l 0,37.90899 c 0,4.94749 3.95799,9.06417 9.06417,9.06417 l 20.93816,0 c 4.94282,0 9.06418,-4.11668 9.06418,-9.06417 l 0,-37.90899 z"
         id="path48"
         style="fill:#4b4b4d;fill-opacity:1;fill-rule:nonzero;stroke:none" /><path
         d="m 320.0905,671.1495 0,41.53559 c 0,10.05834 -8.73745,18.12836 -18.95449,18.12836 l -25.54959,0 c -10.21704,0 -18.95916,-8.07002 -18.95916,-18.12836 l 0,-41.53559 c 0,-10.05834 8.07934,-18.46441 18.30105,-18.46441 l 26.86581,0 c 10.05367,0 18.29638,8.40607 18.29638,18.46441 z m -12.19603,1.64761 c 0,-5.11085 -4.12136,-9.06418 -9.06418,-9.06418 l -21.10152,0 c -4.94282,0 -8.90081,3.95333 -8.90081,9.06418 l 0,37.90899 c 0,4.94749 3.95799,9.06417 9.06417,9.06417 l 20.93816,0 c 4.94282,0 9.06418,-4.11668 9.06418,-9.06417 l 0,-37.90899 z"
         id="path60"
         style="fill:#4b4b4d;fill-opacity:1;stroke:#4b4b4d;stroke-width:2.39439917;stroke-linecap:butt;stroke-linejoin:miter;stroke-miterlimit:3.86400008;stroke-opacity:1;stroke-dasharray:none" /><path
         d="m 391.0842,724.38778 0,1.81096 c 0,2.80514 -2.31038,4.61611 -4.94749,4.61611 l -48.62544,0 c -2.6371,0 -4.6161,-1.97433 -4.6161,-4.44808 l 0,-68.73745 c 0,-2.80047 2.14236,-4.94283 4.94749,-4.94283 l 2.30572,0 c 2.64177,0 4.94749,2.14236 4.94749,4.94283 l 0,28.35472 38.59043,0 c 2.63711,0 4.94282,1.81097 4.94282,4.61144 l 0,1.81097 c 0,2.80513 -2.30571,4.62077 -4.94282,4.62077 l -38.59043,0 0,22.74445 41.04084,0 c 2.63711,0 4.94749,1.81564 4.94749,4.61611"
         id="path72"
         style="fill:#4b4b4d;fill-opacity:1;fill-rule:nonzero;stroke:none" /><path
         d="m 391.0842,724.38778 0,1.81096 c 0,2.80514 -2.31038,4.61611 -4.94749,4.61611 l -48.62544,0 c -2.6371,0 -4.6161,-1.97433 -4.6161,-4.44808 l 0,-68.73745 c 0,-2.80047 2.14236,-4.94283 4.94749,-4.94283 l 2.30572,0 c 2.64177,0 4.94749,2.14236 4.94749,4.94283 l 0,28.35472 38.59043,0 c 2.63711,0 4.94282,1.81097 4.94282,4.61144 l 0,1.81097 c 0,2.80513 -2.30571,4.62077 -4.94282,4.62077 l -38.59043,0 0,22.74445 41.04084,0 c 2.63711,0 4.94749,1.81564 4.94749,4.61611 z"
         id="path76"
         style="fill:#4b4b4d;fill-opacity:1;stroke:#4b4b4d;stroke-width:2.39439917;stroke-linecap:butt;stroke-linejoin:miter;stroke-miterlimit:3.86400008;stroke-opacity:1;stroke-dasharray:none" /><path
         d="m 484.5045,657.56444 0,68.33605 c 0,2.78647 -2.31038,4.91482 -4.94749,4.91482 l -2.30571,0 c -2.80047,0 -4.94283,-2.12835 -4.94283,-4.91482 l 0,-68.33605 c 0,-2.7818 2.14236,-4.91482 4.94283,-4.91482 l 2.30571,0 c 2.63711,0 4.94749,2.13302 4.94749,4.91482"
         id="path80"
         style="fill:#4b4b4d;fill-opacity:1;fill-rule:nonzero;stroke:none" /><path
         d="m 484.5045,657.56444 0,68.33605 c 0,2.78647 -2.31038,4.91482 -4.94749,4.91482 l -2.30571,0 c -2.80047,0 -4.94283,-2.12835 -4.94283,-4.91482 l 0,-68.33605 c 0,-2.7818 2.14236,-4.91482 4.94283,-4.91482 l 2.30571,0 c 2.63711,0 4.94749,2.13302 4.94749,4.91482 z"
         id="path84"
         style="fill:#4b4b4d;fill-opacity:1;stroke:#4b4b4d;stroke-width:2.39439917;stroke-linecap:butt;stroke-linejoin:miter;stroke-miterlimit:3.86400008;stroke-opacity:1;stroke-dasharray:none" /><path
         d="m 558.21139,671.1495 0,11.04318 c 0,9.88564 -6.87048,15.74329 -14.6231,15.74329 l -26.53909,0 c -5.92766,0 -9.11086,3.54259 -9.11086,7.33255 l 0,6.09569 c 0,4.94749 3.29989,8.40606 9.39557,8.40606 l 33.43291,0 c 2.6371,0 4.94282,1.81564 4.94282,4.61611 l 0,1.81563 c 0,2.80047 -2.30572,4.61144 -5.11085,4.61144 l -36.07001,0 c -12.19137,0 -18.78647,-10.3804 -18.78647,-17.14353 l 0,-10.21703 c 0,-9.89032 8.06535,-17.33956 16.14002,-17.33956 3.67328,-0.098 23.00117,0.0513 27.03384,0 5.60094,0 7.09919,-3.4259 7.09919,-6.3944 l 0,-6.5951 c 0,-3.62194 -1.48425,-9.3909 -7.08518,-9.3909 l -38.40841,0 c -2.80513,0 -4.94282,-1.81563 -4.94282,-4.6161 l 0,-1.81564 c 0,-2.80513 2.13769,-4.6161 4.94282,-4.6161 l 40.71412,0 c 10.22171,0 16.9755,6.92182 16.9755,18.46441"
         id="path88"
         style="fill:#4b4b4d;fill-opacity:1;fill-rule:nonzero;stroke:none" /><path
         d="m 558.21139,671.1495 0,11.04318 c 0,9.88564 -6.87048,15.74329 -14.6231,15.74329 l -26.53909,0 c -5.92766,0 -9.11086,3.54259 -9.11086,7.33255 l 0,6.09569 c 0,4.94749 3.29989,8.40606 9.39557,8.40606 l 33.43291,0 c 2.6371,0 4.94282,1.81564 4.94282,4.61611 l 0,1.81563 c 0,2.80047 -2.30572,4.61144 -5.11085,4.61144 l -36.07001,0 c -12.19137,0 -18.78647,-10.3804 -18.78647,-17.14353 l 0,-10.21703 c 0,-9.89032 8.06535,-17.33956 16.14002,-17.33956 3.67328,-0.098 23.00117,0.0513 27.03384,0 5.60094,0 7.09919,-3.4259 7.09919,-6.3944 l 0,-6.5951 c 0,-3.62194 -1.48425,-9.3909 -7.08518,-9.3909 l -38.40841,0 c -2.80513,0 -4.94282,-1.81563 -4.94282,-4.6161 l 0,-1.81564 c 0,-2.80513 2.13769,-4.6161 4.94282,-4.6161 l 40.71412,0 c 10.22171,0 16.9755,6.92182 16.9755,18.46441 z"
         id="path100"
         style="fill:#4b4b4d;fill-opacity:1;stroke:#4b4b4d;stroke-width:2.39439917;stroke-linecap:butt;stroke-linejoin:miter;stroke-miterlimit:3.86400008;stroke-opacity:1;stroke-dasharray:none" /><path
         d="m 460.76028,724.38778 0,1.81563 c 0,2.80047 -2.31038,4.61144 -4.94282,4.61144 l -48.62544,0 c -2.63711,0 -4.6161,-1.97433 -4.6161,-4.44808 l 0,-68.73745 c 0,-2.80047 2.14235,-4.94283 4.94282,-4.94283 l 2.31038,0 c 2.63711,0 4.94283,2.14236 4.94283,4.94283 l 0,28.35472 38.5951,0 c 2.63244,0 4.93815,1.81097 4.93815,4.61144 l 0,1.81097 c 0,2.80513 -2.30571,4.62077 -4.93815,4.62077 l -38.5951,0 0,22.74445 41.04551,0 c 2.63244,0 4.94282,1.81564 4.94282,4.61611"
         id="path112"
         style="fill:#4b4b4d;fill-opacity:1;fill-rule:nonzero;stroke:none" /><path
         d="m 460.76028,724.38778 0,1.81563 c 0,2.80047 -2.31038,4.61144 -4.94282,4.61144 l -48.62544,0 c -2.63711,0 -4.6161,-1.97433 -4.6161,-4.44808 l 0,-68.73745 c 0,-2.80047 2.14235,-4.94283 4.94282,-4.94283 l 2.31038,0 c 2.63711,0 4.94283,2.14236 4.94283,4.94283 l 0,28.35472 38.5951,0 c 2.63244,0 4.93815,1.81097 4.93815,4.61144 l 0,1.81097 c 0,2.80513 -2.30571,4.62077 -4.93815,4.62077 l -38.5951,0 0,22.74445 41.04551,0 c 2.63244,0 4.94282,1.81564 4.94282,4.61611 z"
         id="path116"
         style="fill:#4b4b4d;fill-opacity:1;stroke:#4b4b4d;stroke-width:2.39439917;stroke-linecap:butt;stroke-linejoin:miter;stroke-miterlimit:3.86400008;stroke-opacity:1;stroke-dasharray:none" /><path
         d="m 258.46856,621.68906 0,14.17503 c 0,0.57876 -0.47608,1.02684 -1.01283,1.02684 l -0.47608,0 c -0.5741,0 -1.01284,-0.44808 -1.01284,-1.02684 l 0,-14.17503 c 0,-0.58343 0.43874,-1.02684 1.01284,-1.02684 l 0.47608,0 c 0.53675,0 1.01283,0.44341 1.01283,1.02684"
         id="path120"
         style="fill:#4b4b4d;fill-opacity:1;fill-rule:nonzero;stroke:none" /><path
         d="m 275.77078,621.58264 0,14.28238 c 0,0.57876 -0.47608,1.02684 -1.01283,1.02684 l -0.47608,0 c -0.5741,0 -1.01284,-0.44808 -1.01284,-1.02684 l 0,-10.88915 -7.67795,11.26255 c -0.2007,0.27538 -0.43874,0.65344 -1.0455,0.65344 l -0.5741,0 c -0.57409,0 -0.94749,-0.48075 -0.94749,-0.96149 l 0,-14.24038 c 0,-0.5881 0.43874,-1.02684 1.01284,-1.02684 l 0.47607,0 c 0.53676,0 1.01284,0.43874 1.01284,1.02684 l 0,10.7818 7.3699,-10.81914 c 0.27071,-0.41073 0.74679,-1.09685 1.45624,-1.09685 l 0.50408,0 c 0.54143,0 0.91482,0.44808 0.91482,1.02684"
         id="path124"
         style="fill:#4b4b4d;fill-opacity:1;fill-rule:nonzero;stroke:none" /><path
         d="m 291.92341,624.49559 0,2.29639 c 0,2.05367 -1.41891,3.07584 -3.00584,3.07584 l -5.44691,0 c -1.2182,0 -1.86231,0.92882 -1.86231,1.71295 l 0,1.26955 c 0,1.02684 0.68145,1.74562 1.92766,1.74562 l 6.12369,0 c 0.53675,0 1.01283,0.37807 1.01283,0.95683 l 0,0.37806 c 0,0.58343 -0.47608,0.9615 -1.04551,0.9615 l -6.66044,0 c -2.50175,0 -3.85998,-2.16103 -3.85998,-3.56126 l 0,-2.12369 c 0,-2.05368 1.66161,-3.45858 3.31856,-3.45858 l 5.54492,0 c 1.14819,0 1.45158,-0.85414 1.45158,-1.47491 l 0,-1.36756 c 0,-0.75146 -0.30339,-1.95099 -1.45158,-1.95099 l -7.87865,0 c -0.57876,0 -1.0175,-0.37807 -1.0175,-0.95683 l 0,-0.37806 c 0,-0.58343 0.43874,-0.95683 1.0175,-0.95683 l 8.35006,0 c 2.09569,0 3.48192,1.43757 3.48192,3.83197"
         id="path128"
         style="fill:#4b4b4d;fill-opacity:1;fill-rule:nonzero;stroke:none" /><path
         d="m 306.2884,635.5537 0,0.37807 c 0,0.58343 -0.47608,0.96149 -1.05017,0.96149 l -11.39324,0 c -0.54142,0 -1.01283,-0.37806 -1.01283,-0.96149 l 0,-0.37807 c 0,-0.57876 0.47141,-0.95682 1.04551,-0.95682 l 4.4294,0 0,-12.90549 c 0,-0.5881 0.44341,-1.02684 1.0175,-1.02684 l 0.47142,0 c 0.54142,0 1.01283,0.43874 1.01283,1.02684 l 0,12.90549 4.46675,0 c 0.53675,0 1.01283,0.37806 1.01283,0.95682"
         id="path132"
         style="fill:#4b4b4d;fill-opacity:1;fill-rule:nonzero;stroke:none" /><path
         d="m 311.62002,621.68906 0,14.17503 c 0,0.57876 -0.47141,1.02684 -1.01283,1.02684 l -0.47141,0 c -0.57877,0 -1.01751,-0.44808 -1.01751,-1.02684 l 0,-14.17503 c 0,-0.58343 0.43874,-1.02684 1.01751,-1.02684 l 0.47141,0 c 0.54142,0 1.01283,0.44341 1.01283,1.02684"
         id="path136"
         style="fill:#4b4b4d;fill-opacity:1;fill-rule:nonzero;stroke:none" /><path
         d="m 327.90894,635.5537 0,0.37807 c 0,0.58343 -0.47141,0.96149 -1.05018,0.96149 l -11.39323,0 c -0.54142,0 -1.0175,-0.37806 -1.0175,-0.96149 l 0,-0.37807 c 0,-0.57876 0.47608,-0.95682 1.05017,-0.95682 l 4.42941,0 0,-12.90549 c 0,-0.5881 0.43874,-1.02684 1.01283,-1.02684 l 0.47608,0 c 0.53676,0 1.01284,0.43874 1.01284,1.02684 l 0,12.90549 4.46674,0 c 0.54143,0 1.01284,0.37806 1.01284,0.95682"
         id="path140"
         style="fill:#4b4b4d;fill-opacity:1;fill-rule:nonzero;stroke:none" /><path
         d="m 343.11407,621.48462 0,14.3804 c 0,0.57876 -0.47608,1.02684 -1.01283,1.02684 l -0.47608,0 c -0.5741,0 -1.01284,-0.44808 -1.01284,-1.02684 l 0,-10.85647 c 0,-1.12953 -0.91482,-2.05368 -2.03034,-2.05368 l -4.02333,0 c -1.11552,0 -2.02567,0.92415 -2.02567,2.05368 l 0,10.85647 c 0,0.57876 -0.47608,1.02684 -1.01751,1.02684 l -0.47608,0 c -0.57409,0 -1.01283,-0.44808 -1.01283,-1.02684 l 0,-11.26721 c 0,-2.53442 1.99766,-4.04201 4.36406,-4.04201 l 0.50408,0 c 2.60444,0 4.13069,1.50759 5.24154,1.50759 0.27538,0 0.47608,-0.0327 0.61144,-0.30805 l 0.33605,-0.61144 c 0.16803,-0.31272 0.50876,-0.48075 0.74679,-0.48075 l 0.5741,0 c 0.40607,0 0.70945,0.3734 0.70945,0.82147"
         id="path144"
         style="fill:#4b4b4d;fill-opacity:1;fill-rule:nonzero;stroke:none" /><path
         d="m 358.68513,635.5537 0,0.37807 c 0,0.58343 -0.47141,0.96149 -1.05017,0.96149 l -11.39323,0 c -0.54143,0 -1.01284,-0.37806 -1.01284,-0.96149 l 0,-0.37807 c 0,-0.57876 0.47141,-0.95682 1.04551,-0.95682 l 4.43407,0 0,-12.90549 c 0,-0.5881 0.43874,-1.02684 1.01284,-1.02684 l 0.47141,0 c 0.54142,0 1.0175,0.43874 1.0175,1.02684 l 0,12.90549 4.46208,0 c 0.54142,0 1.01283,0.37806 1.01283,0.95682"
         id="path148"
         style="fill:#4b4b4d;fill-opacity:1;fill-rule:nonzero;stroke:none" /><path
         d="m 380.03589,635.5537 0,0.37807 c 0,0.58343 -0.47141,0.96149 -1.01283,0.96149 l -9.979,0 c -0.53676,0 -0.94749,-0.41074 -0.94749,-0.92882 l 0,-14.27305 c 0,-0.5881 0.43874,-1.02684 1.0175,-1.02684 l 0.47141,0 c 0.54143,0 1.01751,0.43874 1.01751,1.02684 l 0,5.88565 6.49241,0 c 0.53676,0 1.01284,0.3734 1.01284,0.96149 l 0,0.3734 c 0,0.58343 -0.47608,0.95683 -1.01284,0.95683 l -6.49241,0 0,4.72812 8.42007,0 c 0.54142,0 1.01283,0.37806 1.01283,0.95682"
         id="path152"
         style="fill:#4b4b4d;fill-opacity:1;fill-rule:nonzero;stroke:none" /><path
         d="m 392.19972,640.48392 0,4.31739 c 0,0.3734 -0.30338,0.68145 -0.67678,0.68145 l -0.91482,0 c -0.36873,0 -0.67678,-0.30805 -0.67678,-0.68145 l 0,-4.31739 c 0,-0.37806 0.30805,-0.68144 0.67678,-0.68144 l 0.91482,0 c 0.3734,0 0.67678,0.30338 0.67678,0.68144 m -5.31155,0 0,4.31739 c 0,0.3734 -0.30339,0.68145 -0.67211,0.68145 l -0.91482,0 c -0.3734,0 -0.67678,-0.30805 -0.67678,-0.68145 l 0,-4.31739 c 0,-0.37806 0.30338,-0.68144 0.67678,-0.68144 l 0.91482,0 c 0.36872,0 0.67211,0.30338 0.67211,0.68144 m 8.05134,-19.00116 0,14.38039 c 0,0.57877 -0.47141,1.02684 -1.0175,1.02684 l -0.47141,0 c -0.5741,0 -1.01284,-0.44807 -1.01284,-1.02684 l 0,-10.8518 c 0,-1.12953 -0.91482,-2.05835 -2.03034,-2.05835 l -4.02334,0 c -1.11552,0 -2.03033,0.92882 -2.03033,2.05835 l 0,10.8518 c 0,0.57877 -0.47142,1.02684 -1.01284,1.02684 l -0.47608,0 c -0.56943,0 -1.01283,-0.44807 -1.01283,-1.02684 l 0,-11.26254 c 0,-2.53909 1.99299,-4.04201 4.36406,-4.04201 l 0.50875,0 c 2.59976,0 4.12135,1.50292 5.24154,1.50292 0.26604,0 0.47141,-0.0327 0.60677,-0.30338 l 0.33605,-0.61611 c 0.16803,-0.31271 0.50875,-0.48074 0.74213,-0.48074 l 0.57876,0 c 0.40607,0 0.70945,0.37806 0.70945,0.82147"
         id="path164"
         style="fill:#4b4b4d;fill-opacity:1;fill-rule:nonzero;stroke:none" /><path
         d="m 411.48933,621.7236 c 0,0.16803 -0.0653,0.37806 -0.13535,0.51342 l -2.80514,5.71762 c 1.52159,0.75145 2.30106,1.77829 2.30106,3.5986 l 0,1.6056 c 0,2.08634 -1.25088,3.83197 -4.09335,3.83197 l -0.40607,0 c -2.23104,0 -3.4119,-1.57293 -4.70012,-1.57293 -0.23337,0 -0.40607,0.1727 -0.50408,0.37806 l -0.3734,0.68612 c -0.10268,0.16803 -0.34072,0.41073 -0.63944,0.41073 l -0.4434,0 c -0.54143,0 -0.91482,-0.34072 -0.91482,-0.85881 l 0,-14.34305 c 0,-0.5881 0.43874,-1.02684 1.0175,-1.02684 l 0.47141,0 c 0.54142,0 1.01284,0.43874 1.01284,1.02684 l 0,5.88564 4.83547,0 3.17853,-6.47374 c 0.23804,-0.43874 0.74679,-0.71412 1.32089,-0.43874 l 0.37339,0.16803 c 0.33606,0.17269 0.50408,0.54609 0.50408,0.89148 m -3.14119,10.10035 c 0,-1.02684 -0.98016,-1.95566 -2.03033,-1.95566 l -5.04084,0 0,2.84714 c 0,1.05951 0.8448,1.88098 1.89498,1.88098 l 3.34656,0 c 1.0175,0 1.82963,-0.82147 1.82963,-1.88098 l 0,-0.89148 z"
         id="path168"
         style="fill:#4b4b4d;fill-opacity:1;fill-rule:nonzero;stroke:none" /><path
         d="m 424.72107,621.68906 0,14.17503 c 0,0.57876 -0.47608,1.02684 -1.0175,1.02684 l -0.47141,0 c -0.5741,0 -1.01284,-0.44808 -1.01284,-1.02684 l 0,-14.17503 c 0,-0.58343 0.43874,-1.02684 1.01284,-1.02684 l 0.47141,0 c 0.54142,0 1.0175,0.44341 1.0175,1.02684"
         id="path180"
         style="fill:#4b4b4d;fill-opacity:1;fill-rule:nonzero;stroke:none" /><path
         d="m 442.02422,621.58264 0,14.28238 c 0,0.57876 -0.47608,1.02684 -1.01283,1.02684 l -0.48075,0 c -0.56943,0 -1.01283,-0.44808 -1.01283,-1.02684 l 0,-10.88915 -7.67328,11.26255 c -0.20537,0.27538 -0.43874,0.65344 -1.05018,0.65344 l -0.57409,0 c -0.5741,0 -0.94749,-0.48075 -0.94749,-0.96149 l 0,-14.24038 c 0,-0.5881 0.43874,-1.02684 1.0175,-1.02684 l 0.47141,0 c 0.54142,0 1.01284,0.43874 1.01284,1.02684 l 0,10.7818 7.37456,-10.81914 c 0.27071,-0.41073 0.74212,-1.09685 1.45157,-1.09685 l 0.50876,0 c 0.54142,0 0.91481,0.44808 0.91481,1.02684"
         id="path184"
         style="fill:#4b4b4d;fill-opacity:1;fill-rule:nonzero;stroke:none" /><path
         d="m 457.80485,635.5537 0,0.37807 c 0,0.58343 -0.47607,0.96149 -1.01283,0.96149 l -9.979,0 c -0.54142,0 -0.94282,-0.41074 -0.94282,-0.92882 l 0,-14.27305 c 0,-0.5881 0.43874,-1.02684 1.01283,-1.02684 l 0.47142,0 c 0.54609,0 1.0175,0.43874 1.0175,1.02684 l 0,5.88565 6.49241,0 c 0.53676,0 1.00817,0.3734 1.00817,0.96149 l 0,0.3734 c 0,0.58343 -0.47141,0.95683 -1.00817,0.95683 l -6.49241,0 0,4.72812 8.42007,0 c 0.53676,0 1.01283,0.37806 1.01283,0.95682"
         id="path188"
         style="fill:#4b4b4d;fill-opacity:1;fill-rule:nonzero;stroke:none" /><path
         d="m 472.64126,624.49559 0,8.63011 c 0,2.08635 -1.7923,3.76663 -3.88798,3.76663 l -5.24154,0 c -2.10035,0 -3.88798,-1.68028 -3.88798,-3.76663 l 0,-8.63011 c 0,-2.09101 1.65694,-3.83197 3.75262,-3.83197 l 5.51226,0 c 2.06301,0 3.75262,1.74096 3.75262,3.83197 m -2.50175,0.34073 c 0,-1.05951 -0.84481,-1.88098 -1.86231,-1.88098 l -4.32672,0 c -1.01284,0 -1.82964,0.82147 -1.82964,1.88098 l 0,7.87864 c 0,1.02684 0.8168,1.88098 1.86698,1.88098 l 4.28938,0 c 1.0175,0 1.86231,-0.85414 1.86231,-1.88098 l 0,-7.87864 z"
         id="path200"
         style="fill:#4b4b4d;fill-opacity:1;fill-rule:nonzero;stroke:none" /><path
         d="m 489.19295,621.7236 c 0,0.16803 -0.0653,0.37806 -0.13069,0.51342 l -2.8098,5.71762 c 1.52159,0.75145 2.30105,1.77829 2.30105,3.5986 l 0,1.6056 c 0,2.08634 -1.25087,3.83197 -4.09335,3.83197 l -0.40606,0 c -2.23104,0 -3.41657,-1.57293 -4.70012,-1.57293 -0.23337,0 -0.40607,0.1727 -0.50408,0.37806 l -0.37807,0.68612 c -0.098,0.16803 -0.33605,0.41073 -0.63944,0.41073 l -0.43874,0 c -0.54142,0 -0.91482,-0.34072 -0.91482,-0.85881 l 0,-14.34305 c 0,-0.5881 0.44341,-1.02684 1.01751,-1.02684 l 0.47141,0 c 0.54142,0 1.01283,0.43874 1.01283,1.02684 l 0,5.88564 4.84014,0 3.17387,-6.47374 c 0.23804,-0.43874 0.74679,-0.71412 1.32088,-0.43874 l 0.3734,0.16803 c 0.33605,0.17269 0.50408,0.54609 0.50408,0.89148 m -3.14119,10.10035 c 0,-1.02684 -0.98016,-1.95566 -2.03034,-1.95566 l -5.04084,0 0,2.84714 c 0,1.05951 0.84948,1.88098 1.89965,1.88098 l 3.34656,0 c 1.01284,0 1.82497,-0.82147 1.82497,-1.88098 l 0,-0.89148 z"
         id="path204"
         style="fill:#4b4b4d;fill-opacity:1;fill-rule:nonzero;stroke:none" /><path
         d="m 506.18759,621.68906 0,14.24037 c 0,0.55076 -0.3734,0.9615 -0.94283,0.9615 l -0.6161,0 c -0.43407,0 -0.7748,-0.41074 -1.01284,-0.75146 l -4.56009,-6.47375 -4.53209,6.47375 c -0.23804,0.34072 -0.61143,0.75146 -1.04551,0.75146 l -0.6161,0 c -0.56943,0 -0.94282,-0.41074 -0.94282,-0.9615 l 0,-14.24037 c 0,-0.58343 0.43874,-1.02684 1.01283,-1.02684 l 0.47608,0 c 0.53676,0 1.01284,0.44341 1.01284,1.02684 l 0,10.81914 3.37923,-4.79347 c 0.30805,-0.41074 0.57876,-0.75146 1.08751,-0.75146 l 0.33139,0 c 0.50875,0 0.77946,0.34072 1.08752,0.75146 l 3.37922,4.79347 0,-10.81914 c 0,-0.58343 0.47608,-1.02684 1.01284,-1.02684 l 0.47608,0 c 0.5741,0 1.01284,0.44341 1.01284,1.02684"
         id="path216"
         style="fill:#4b4b4d;fill-opacity:1;fill-rule:nonzero;stroke:none" /><path
         d="m 524.19785,621.62231 c 0,0.16803 -0.0653,0.34073 -0.13535,0.51342 l -5.61494,13.66161 c -0.30338,0.75146 -0.84481,1.09219 -1.41423,1.09219 l -1.21821,0 c -0.57409,0 -1.12018,-0.34073 -1.42357,-1.09219 l -5.61493,-13.66161 c -0.0653,-0.17269 -0.13069,-0.34539 -0.13069,-0.51342 0,-0.34072 0.2007,-0.6161 0.60677,-0.79346 l 0.47608,-0.20537 c 0.13068,-0.0653 0.29871,-0.0653 0.43874,-0.0653 0.36872,0 0.60676,0.2427 0.77479,0.6161 l 1.7923,4.35006 7.36989,0 1.7923,-4.35006 c 0.1727,-0.3734 0.41074,-0.6161 0.77947,-0.6161 0.14002,0 0.30805,0 0.43874,0.0653 l 0.47141,0.20537 c 0.41073,0.17736 0.61143,0.45274 0.61143,0.79346 m -5.03617,6.1937 -5.47958,0 2.73979,6.71179 2.73979,-6.71179 z"
         id="path220"
         style="fill:#4b4b4d;fill-opacity:1;fill-rule:nonzero;stroke:none" /><path
         d="m 537.03799,635.5537 0,0.37807 c 0,0.58343 -0.47608,0.96149 -1.0455,0.96149 l -11.3979,0 c -0.54143,0 -1.01284,-0.37806 -1.01284,-0.96149 l 0,-0.37807 c 0,-0.57876 0.47141,-0.95682 1.04551,-0.95682 l 4.43407,0 0,-12.90549 c 0,-0.5881 0.43407,-1.02684 1.01284,-1.02684 l 0.47141,0 c 0.54142,0 1.01283,0.43874 1.01283,1.02684 l 0,12.90549 4.46675,0 c 0.53675,0 1.01283,0.37806 1.01283,0.95682"
         id="path224"
         style="fill:#4b4b4d;fill-opacity:1;fill-rule:nonzero;stroke:none" /><path
         d="m 542.37008,621.68906 0,14.17503 c 0,0.57876 -0.47141,1.02684 -1.01283,1.02684 l -0.47141,0 c -0.5741,0 -1.01751,-0.44808 -1.01751,-1.02684 l 0,-14.17503 c 0,-0.58343 0.44341,-1.02684 1.01751,-1.02684 l 0.47141,0 c 0.54142,0 1.01283,0.44341 1.01283,1.02684"
         id="path228"
         style="fill:#4b4b4d;fill-opacity:1;fill-rule:nonzero;stroke:none" /><path
         d="m 558.76028,621.92757 c 0,0.30805 -0.13535,0.54609 -0.23804,0.64877 l -7.10385,6.26838 6.66511,5.95566 c 0.27071,0.23804 0.43874,0.51342 0.43874,0.82147 0,0.21003 -0.0653,0.37806 -0.23337,0.58343 l -0.30805,0.37806 c -0.20537,0.23804 -0.50875,0.40607 -0.77947,0.40607 -0.23337,0 -0.47141,-0.098 -0.60676,-0.23804 l -7.1692,-6.40373 0,5.51691 c 0,0.57877 -0.47141,1.02684 -1.01283,1.02684 l -0.47142,0 c -0.57876,0 -1.0175,-0.44807 -1.0175,-1.02684 l 0,-14.17502 c 0,-0.58344 0.43874,-1.02684 1.0175,-1.02684 l 0.47142,0 c 0.54142,0 1.01283,0.4434 1.01283,1.02684 l 0,5.58226 7.20187,-6.33372 c 0,0 0.37339,-0.38273 0.68145,-0.38273 0.2007,0 0.46674,0.07 0.63944,0.20536 l 0.43874,0.38273 c 0.27071,0.23804 0.37339,0.50876 0.37339,0.78414"
         id="path232"
         style="fill:#4b4b4d;fill-opacity:1;fill-rule:nonzero;stroke:none" /><path
         d="m 321.30824,765.01508 0,-16.00467 -13.15753,0 -39.47258,0 -13.15752,0 0,16.00467 0,48.02334 0,16.00933 13.15752,0 39.47258,0 13.15753,0 0,-16.00933 0,-48.02334 z"
         id="path236"
         style="fill:#c6c7c9;fill-opacity:1;fill-rule:nonzero;stroke:none" /><path
         d="m 485.67743,765.01788 0,-16.00933 -2.90781,0 -8.73746,0 -2.90782,0 0,16.00933 0,48.02334 0,16.00467 2.90782,0 8.73746,0 2.90781,0 0,-16.00467 0,-48.02334 z"
         id="path240"
         style="fill:#111986;fill-opacity:1;fill-rule:nonzero;stroke:none" /><path
         d="m 392.31267,765.01508 0,-16.00467 -12.12602,0 -36.38273,0 -12.12602,0 0,16.00467 0,48.02334 0,16.00933 12.12602,0 36.38273,0 12.12602,0 0,-16.00933 0,-48.02334 z"
         id="path244"
         style="fill:#c6c7c9;fill-opacity:1;fill-rule:nonzero;stroke:none" /><path
         d="m 461.94628,765.01508 0,-16.00467 -12.11669,0 -36.34539,0 -12.11669,0 0,16.00467 0,48.02334 0,16.00933 12.11669,0 36.34539,0 12.11669,0 0,-16.00933 0,-48.02334 z"
         id="path248"
         style="fill:#c6c7c9;fill-opacity:1;fill-rule:nonzero;stroke:none" /><path
         d="m 559.43006,765.01648 0,-16.00933 -12.98016,0 -38.93116,0 -12.98016,0 0,16.00933 0,48.02334 0,16.00933 12.98016,0 38.93116,0 12.98016,0 0,-16.00933 0,-48.02334 z"
         id="path252"
         style="fill:#c6c7c9;fill-opacity:1;fill-rule:nonzero;stroke:none" /></g></g></svg>