solid stl_item0
  facet normal 0 0 -1
    outer loop
      vertex -9.9 -9.605 0
      vertex -9.43841 -9.57273 0
      vertex -9.76 -11.6 0
    endloop
  endfacet
  facet normal 0 0 -1
    outer loop
      vertex -9.43841 -9.57273 0
      vertex -7.88 -9.6 0
      vertex -9.76 -11.6 0
    endloop
  endfacet
  facet normal 0 0 -1
    outer loop
      vertex -1.78 -11.042 0
      vertex -9.76 -11.6 0
      vertex -7.88 -9.6 0
    endloop
  endfacet
  facet normal 0 0 1
    outer loop
      vertex 9.99828 -5.1 20
      vertex 7.99767 -5.1 20
      vertex 9.865 -9.5 20
    endloop
  endfacet
  facet normal 0 0 1
    outer loop
      vertex 9.92 -9.6 20
      vertex 9.99828 -5.1 20
      vertex 9.865 -9.5 20
    endloop
  endfacet
  facet normal 0 0 1
    outer loop
      vertex 9.92 -9.6 20
      vertex 9.865 -9.5 20
      vertex 9.86673 -9.59907 20
    endloop
  endfacet
  facet normal 0 0 -1
    outer loop
      vertex 7.92 -9.565 0
      vertex 7.99767 -5.1 0
      vertex 9.92 -9.6 0
    endloop
  endfacet
  facet normal 0 0 -1
    outer loop
      vertex 9.99828 -5.1 0
      vertex 9.92 -9.6 0
      vertex 7.99767 -5.1 0
    endloop
  endfacet
  facet normal 0 0 -1
    outer loop
      vertex -1.78 -11.042 0
      vertex -7.88 -9.6 0
      vertex -1.919 -9.047 0
    endloop
  endfacet
  facet normal 0 0 -1
    outer loop
      vertex -7.87763 -9.4636 0
      vertex -1.919 -9.047 0
      vertex -7.88 -9.6 0
    endloop
  endfacet
  facet normal 0.06975 -0.99756 0
    outer loop
      vertex -1.78 -11.042 20
      vertex -9.76 -11.6 20
      vertex -9.76 -11.6 0
    endloop
  endfacet
  facet normal 0.06975 -0.99756 0
    outer loop
      vertex -1.78 -11.042 20
      vertex -9.76 -11.6 0
      vertex -1.78 -11.042 0
    endloop
  endfacet
  facet normal -0.06975 0.99756 0
    outer loop
      vertex -9.43841 -9.57273 20
      vertex -9.43841 -9.57273 0
      vertex -9.9 -9.605 0
    endloop
  endfacet
  facet normal -0.06975 0.99756 0
    outer loop
      vertex -9.43841 -9.57273 20
      vertex -9.9 -9.605 0
      vertex -9.9 -9.605 20
    endloop
  endfacet
  facet normal 0 0 1
    outer loop
      vertex -1.919 -9.047 20
      vertex -7.87763 -9.4636 20
      vertex -7.88 -9.6 20
    endloop
  endfacet
  facet normal -0.0175 -0.99985 0
    outer loop
      vertex -9.88 -9.565 20
      vertex -9.88 -9.565 0
      vertex -9.43841 -9.57273 0
    endloop
  endfacet
  facet normal -0.0175 -0.99985 0
    outer loop
      vertex -9.88 -9.565 20
      vertex -9.43841 -9.57273 0
      vertex -9.43841 -9.57273 20
    endloop
  endfacet
  facet normal 0 0 -1
    outer loop
      vertex -7.88 -9.6 0
      vertex -9.43841 -9.57273 0
      vertex -7.87763 -9.4636 0
    endloop
  endfacet
  facet normal 0 0 -1
    outer loop
      vertex -9.43841 -9.57273 0
      vertex -9.80233 -5.1 0
      vertex -7.87763 -9.4636 0
    endloop
  endfacet
  facet normal 0 0 -1
    outer loop
      vertex -9.88 -9.565 0
      vertex -9.80233 -5.1 0
      vertex -9.43841 -9.57273 0
    endloop
  endfacet
  facet normal 0 0 -1
    outer loop
      vertex -7.80172 -5.1 0
      vertex -7.87763 -9.4636 0
      vertex -9.80233 -5.1 0
    endloop
  endfacet
  facet normal 0 0 -1
    outer loop
      vertex -9.9 -0.1 0
      vertex 10.1 -0.1 0
      vertex 7.99767 -5.1 0
    endloop
  endfacet
  facet normal 0 0 -1
    outer loop
      vertex -7.80172 -5.1 0
      vertex -9.9 -0.1 0
      vertex 7.99767 -5.1 0
    endloop
  endfacet
  facet normal 0 0 -1
    outer loop
      vertex 9.99828 -5.1 0
      vertex 7.99767 -5.1 0
      vertex 10.1 -0.1 0
    endloop
  endfacet
  facet normal 0 0 -1
    outer loop
      vertex 10.1 -5.1 0
      vertex 9.99828 -5.1 0
      vertex 10.1 -0.1 0
    endloop
  endfacet
  facet normal 0 0 1
    outer loop
      vertex -9.43841 -9.57273 20
      vertex -7.87763 -9.4636 20
      vertex -9.80233 -5.1 20
    endloop
  endfacet
  facet normal 0 0 1
    outer loop
      vertex -7.80172 -5.1 20
      vertex -9.80233 -5.1 20
      vertex -7.87763 -9.4636 20
    endloop
  endfacet
  facet normal 0 0 1
    outer loop
      vertex -9.88 -9.565 20
      vertex -9.43841 -9.57273 20
      vertex -9.80233 -5.1 20
    endloop
  endfacet
  facet normal 0 0 1
    outer loop
      vertex -7.88 -9.6 20
      vertex -7.87763 -9.4636 20
      vertex -9.43841 -9.57273 20
    endloop
  endfacet
  facet normal 0 0 -1
    outer loop
      vertex -9.9 -0.1 0
      vertex -7.80172 -5.1 0
      vertex -9.80233 -5.1 0
    endloop
  endfacet
  facet normal 0 0 -1
    outer loop
      vertex -9.9 -5.1 0
      vertex -9.9 -0.1 0
      vertex -9.80233 -5.1 0
    endloop
  endfacet
  facet normal 0.99985 -0.01739 0
    outer loop
      vertex -7.80172 -5.1 9.9059
      vertex -7.80698 -5.402 9.94115
      vertex -7.80172 -5.1 0
    endloop
  endfacet
  facet normal 0 0 1
    outer loop
      vertex 10.1 -0.1 20
      vertex -9.9 -0.1 20
      vertex 7.99767 -5.1 20
    endloop
  endfacet
  facet normal 0.99985 0.0175 0
    outer loop
      vertex 9.865 -9.5 20.1
      vertex 9.9 -11.5 20.1
      vertex 9.86673 -9.59907 20
    endloop
  endfacet
  facet normal 0.99985 0.0175 0
    outer loop
      vertex 9.865 -9.5 20.1
      vertex 9.86673 -9.59907 20
      vertex 9.865 -9.5 20
    endloop
  endfacet
  facet normal 0 0 1
    outer loop
      vertex -7.80172 -5.1 20
      vertex 7.99767 -5.1 20
      vertex -9.9 -0.1 20
    endloop
  endfacet
  facet normal 0.99985 -0.01739 0
    outer loop
      vertex -7.87763 -9.4636 0
      vertex -7.80172 -5.1 0
      vertex -7.80698 -5.402 9.94115
    endloop
  endfacet
  facet normal 0.99985 -0.01739 0
    outer loop
      vertex -7.80698 -5.402 10.55885
      vertex -7.87763 -9.4636 20
      vertex -7.80698 -5.402 9.94115
    endloop
  endfacet
  facet normal 0.99985 -0.01739 0
    outer loop
      vertex -7.80172 -5.1 10.5941
      vertex -7.80172 -5.1 20
      vertex -7.80698 -5.402 10.55885
    endloop
  endfacet
  facet normal 0.99985 -0.01739 0
    outer loop
      vertex -7.80698 -5.402 10.55885
      vertex -7.80172 -5.1 20
      vertex -7.87763 -9.4636 20
    endloop
  endfacet
  facet normal 0 0 1
    outer loop
      vertex 10.1 -0.1 20
      vertex 9.99828 -5.1 20
      vertex 10.1 -5.1 20
    endloop
  endfacet
  facet normal 0.99985 -0.01739 0
    outer loop
      vertex -7.87763 -9.4636 0
      vertex -7.80698 -5.402 9.94115
      vertex -7.87763 -9.4636 20
    endloop
  endfacet
  facet normal -0.0175 0.99985 0
    outer loop
      vertex 1.866 -9.64 0.1
      vertex 1.866 -9.64 20.1
      vertex 7.92054 -9.53403 20
    endloop
  endfacet
  facet normal -0.0175 0.99985 0
    outer loop
      vertex 1.866 -9.64 20.1
      vertex 9.865 -9.5 20.1
      vertex 7.92054 -9.53403 20
    endloop
  endfacet
  facet normal -0.0175 0.99985 0
    outer loop
      vertex 9.865 -9.5 20
      vertex 7.92054 -9.53403 20
      vertex 9.865 -9.5 20.1
    endloop
  endfacet
  facet normal 0 0 1
    outer loop
      vertex 10.1 -0.1 20
      vertex 7.99767 -5.1 20
      vertex 9.99828 -5.1 20
    endloop
  endfacet
  facet normal 0 0 1
    outer loop
      vertex 9.9 -11.5 20.1
      vertex 9.865 -9.5 20.1
      vertex 1.901 -11.639 20.1
    endloop
  endfacet
  facet normal 0 0 1
    outer loop
      vertex 1.866 -9.64 20.1
      vertex 1.901 -11.639 20.1
      vertex 9.865 -9.5 20.1
    endloop
  endfacet
  facet normal 0 0 1
    outer loop
      vertex -9.9 -5.1 20
      vertex -9.80233 -5.1 20
      vertex -9.9 -0.1 20
    endloop
  endfacet
  facet normal 0 0 1
    outer loop
      vertex -7.80172 -5.1 20
      vertex -9.9 -0.1 20
      vertex -9.80233 -5.1 20
    endloop
  endfacet
  facet normal 0 0 1
    outer loop
      vertex -1.919 -9.047 20
      vertex -7.88 -9.6 20
      vertex -1.78 -11.042 20
    endloop
  endfacet
  facet normal 0 0 1
    outer loop
      vertex -9.76 -11.6 20
      vertex -1.78 -11.042 20
      vertex -7.88 -9.6 20
    endloop
  endfacet
  facet normal 0 0 1
    outer loop
      vertex -9.76 -11.6 20
      vertex -7.88 -9.6 20
      vertex -9.43841 -9.57273 20
    endloop
  endfacet
  facet normal 0 0 1
    outer loop
      vertex -9.76 -11.6 20
      vertex -9.43841 -9.57273 20
      vertex -9.9 -9.605 20
    endloop
  endfacet
  facet normal 1 0 0
    outer loop
      vertex 10.1 -5.1 20
      vertex 10.1 -0.1 0
      vertex 10.1 -0.1 20
    endloop
  endfacet
  facet normal 1 0 0
    outer loop
      vertex 10.1 -0.1 0
      vertex 10.1 -5.1 20
      vertex 10.1 -5.1 0
    endloop
  endfacet
  facet normal -1 0 0
    outer loop
      vertex -9.9 -0.1 20
      vertex -9.9 -0.1 0
      vertex -9.9 -5.1 0
    endloop
  endfacet
  facet normal -1 0 0
    outer loop
      vertex -9.9 -0.1 20
      vertex -9.9 -5.1 0
      vertex -9.9 -5.1 20
    endloop
  endfacet
  facet normal -0.99755 -0.07 0
    outer loop
      vertex -9.9 -9.605 20
      vertex -9.9 -9.605 0
      vertex -9.76 -11.6 0
    endloop
  endfacet
  facet normal -0.99755 -0.07 0
    outer loop
      vertex -9.9 -9.605 20
      vertex -9.76 -11.6 0
      vertex -9.76 -11.6 20
    endloop
  endfacet
  facet normal -0.99985 -0.01751 0
    outer loop
      vertex 1.901 -11.639 0.1
      vertex 1.901 -11.639 20.1
      vertex 1.866 -9.64 0.1
    endloop
  endfacet
  facet normal -0.99985 -0.01751 0
    outer loop
      vertex 1.866 -9.64 20.1
      vertex 1.866 -9.64 0.1
      vertex 1.901 -11.639 20.1
    endloop
  endfacet
  facet normal -0.0175 -0.99985 0
    outer loop
      vertex 7.92 -9.565 0
      vertex 9.92 -9.6 0
      vertex 9.86673 -9.59907 0.1
    endloop
  endfacet
  facet normal -0.0175 -0.99985 0
    outer loop
      vertex 9.92 -9.6 0
      vertex 9.92 -9.6 20
      vertex 9.86673 -9.59907 0.1
    endloop
  endfacet
  facet normal -0.0175 -0.99985 0
    outer loop
      vertex 9.86673 -9.59907 20
      vertex 9.86673 -9.59907 0.1
      vertex 9.92 -9.6 20
    endloop
  endfacet
  facet normal 0.99985 -0.01739 0
    outer loop
      vertex 9.92 -9.6 20
      vertex 9.92 -9.6 0
      vertex 9.99828 -5.1 20
    endloop
  endfacet
  facet normal 0.99985 -0.01739 0
    outer loop
      vertex 9.99828 -5.1 0
      vertex 9.99828 -5.1 20
      vertex 9.92 -9.6 0
    endloop
  endfacet
  facet normal 0 -1 0
    outer loop
      vertex -7.80172 -5.1 10.5941
      vertex -7.473 -5.1 12.8
      vertex -7.80172 -5.1 20
    endloop
  endfacet
  facet normal 0.01737 -0.99985 0
    outer loop
      vertex 1.901 -11.639 0.1
      vertex 9.9 -11.5 0.1
      vertex 1.901 -11.639 20.1
    endloop
  endfacet
  facet normal 0.01737 -0.99985 0
    outer loop
      vertex 9.9 -11.5 20.1
      vertex 1.901 -11.639 20.1
      vertex 9.9 -11.5 0.1
    endloop
  endfacet
  facet normal 0.99985 0.0175 0
    outer loop
      vertex 9.86673 -9.59907 0.1
      vertex 9.86673 -9.59907 20
      vertex 9.9 -11.5 0.1
    endloop
  endfacet
  facet normal 0.99985 0.0175 0
    outer loop
      vertex 9.9 -11.5 20.1
      vertex 9.9 -11.5 0.1
      vertex 9.86673 -9.59907 20
    endloop
  endfacet
  facet normal 0 0 -1
    outer loop
      vertex 1.866 -9.64 0.1
      vertex 7.92 -9.565 0.1
      vertex 1.901 -11.639 0.1
    endloop
  endfacet
  facet normal 0 -1 0
    outer loop
      vertex -6.372 -5.1 15.101
      vertex -7.80172 -5.1 20
      vertex -7.473 -5.1 12.8
    endloop
  endfacet
  facet normal 0.98908 0 -0.14739
    outer loop
      vertex -7.473 -0.1 12.8
      vertex -7.473 -5.1 12.8
      vertex -7.80172 -5.1 10.5941
    endloop
  endfacet
  facet normal 0.98908 0 -0.14739
    outer loop
      vertex -7.853 -5.1 10.25
      vertex -7.853 -0.1 10.25
      vertex -7.80172 -5.1 10.5941
    endloop
  endfacet
  facet normal 0.98908 0 -0.14739
    outer loop
      vertex -7.473 -0.1 12.8
      vertex -7.80172 -5.1 10.5941
      vertex -7.853 -0.1 10.25
    endloop
  endfacet
  facet normal 0.99758 0.06951 0
    outer loop
      vertex -1.78 -11.042 20
      vertex -1.78 -11.042 0
      vertex -1.919 -9.047 20
    endloop
  endfacet
  facet normal -0.99985 0.01739 0
    outer loop
      vertex 7.92 -9.565 0
      vertex 7.92054 -9.53403 0.1
      vertex 7.99767 -5.1 0
    endloop
  endfacet
  facet normal -0.99985 0.01739 0
    outer loop
      vertex 7.92054 -9.53403 20
      vertex 7.99767 -5.1 20
      vertex 7.92054 -9.53403 0.1
    endloop
  endfacet
  facet normal -0.99985 0.01739 0
    outer loop
      vertex 7.99767 -5.1 0
      vertex 7.92054 -9.53403 0.1
      vertex 7.99767 -5.1 20
    endloop
  endfacet
  facet normal 0.90205 0 -0.43162
    outer loop
      vertex -6.372 -0.1 15.101
      vertex -6.372 -5.1 15.101
      vertex -7.473 -5.1 12.8
    endloop
  endfacet
  facet normal 0.90205 0 -0.43162
    outer loop
      vertex -6.372 -0.1 15.101
      vertex -7.473 -5.1 12.8
      vertex -7.473 -0.1 12.8
    endloop
  endfacet
  facet normal -0.0175 0.99985 0
    outer loop
      vertex 7.92054 -9.53403 20
      vertex 7.92054 -9.53403 0.1
      vertex 1.866 -9.64 0.1
    endloop
  endfacet
  facet normal -0.0175 -0.99985 0
    outer loop
      vertex 9.86673 -9.59907 0.1
      vertex 7.92 -9.565 0.1
      vertex 7.92 -9.565 0
    endloop
  endfacet
  facet normal -0.99985 0.01739 0
    outer loop
      vertex 7.92 -9.565 0.1
      vertex 7.92054 -9.53403 0.1
      vertex 7.92 -9.565 0
    endloop
  endfacet
  facet normal 0 0 -1
    outer loop
      vertex 9.86673 -9.59907 0.1
      vertex 9.9 -11.5 0.1
      vertex 7.92 -9.565 0.1
    endloop
  endfacet
  facet normal 0 0 -1
    outer loop
      vertex 9.9 -11.5 0.1
      vertex 1.901 -11.639 0.1
      vertex 7.92 -9.565 0.1
    endloop
  endfacet
  facet normal -0.90205 0 -0.43162
    outer loop
      vertex 6.172 -5.1 15.101
      vertex 6.172 -0.1 15.101
      vertex 7.273 -0.1 12.8
    endloop
  endfacet
  facet normal -0.90205 0 -0.43162
    outer loop
      vertex 6.172 -5.1 15.101
      vertex 7.273 -0.1 12.8
      vertex 7.273 -5.1 12.8
    endloop
  endfacet
  facet normal 0 0 -1
    outer loop
      vertex 7.92054 -9.53403 0.1
      vertex 7.92 -9.565 0.1
      vertex 1.866 -9.64 0.1
    endloop
  endfacet
  facet normal 0.99758 0.06951 0
    outer loop
      vertex -1.919 -9.047 20
      vertex -1.78 -11.042 0
      vertex -1.919 -9.047 0
    endloop
  endfacet
  facet normal -0.98913 0 -0.14701
    outer loop
      vertex 7.273 -5.1 12.8
      vertex 7.273 -0.1 12.8
      vertex 7.652 -0.1 10.25
    endloop
  endfacet
  facet normal -0.98913 0 -0.14701
    outer loop
      vertex 7.273 -5.1 12.8
      vertex 7.652 -0.1 10.25
      vertex 7.652 -5.1 10.25
    endloop
  endfacet
  facet normal -0.06975 0.99756 0
    outer loop
      vertex -1.919 -9.047 0
      vertex -7.87763 -9.4636 0
      vertex -7.87763 -9.4636 20
    endloop
  endfacet
  facet normal -0.06975 0.99756 0
    outer loop
      vertex -1.919 -9.047 0
      vertex -7.87763 -9.4636 20
      vertex -1.919 -9.047 20
    endloop
  endfacet
  facet normal 0 -1 0
    outer loop
      vertex 4.457 -5.1 3.574
      vertex 7.99767 -5.1 0
      vertex 6.172 -5.1 5.399
    endloop
  endfacet
  facet normal -0.98913 0 0.14701
    outer loop
      vertex 7.652 -5.1 10.25
      vertex 7.652 -0.1 10.25
      vertex 7.273 -0.1 7.7
    endloop
  endfacet
  facet normal -0.98913 0 0.14701
    outer loop
      vertex 7.652 -5.1 10.25
      vertex 7.273 -0.1 7.7
      vertex 7.273 -5.1 7.7
    endloop
  endfacet
  facet normal 0 1 0
    outer loop
      vertex -9.9 -0.1 20
      vertex -2.496 -0.1 18.099
      vertex -4.657 -0.1 16.926
    endloop
  endfacet
  facet normal 0 -1 0
    outer loop
      vertex -0.1 -5.1 1.998
      vertex 7.99767 -5.1 0
      vertex 2.296 -5.1 2.401
    endloop
  endfacet
  facet normal 0 -1 0
    outer loop
      vertex -6.372 -5.1 15.101
      vertex -4.657 -5.1 16.926
      vertex -7.80172 -5.1 20
    endloop
  endfacet
  facet normal 0 0 1
    outer loop
      vertex 7.92054 -9.53403 20
      vertex 9.865 -9.5 20
      vertex 7.99767 -5.1 20
    endloop
  endfacet
  facet normal 0 1 0
    outer loop
      vertex -0.1 -0.1 18.503
      vertex 10.1 -0.1 20
      vertex 2.296 -0.1 18.099
    endloop
  endfacet
  facet normal 0 1 0
    outer loop
      vertex 6.172 -0.1 15.101
      vertex 4.457 -0.1 16.926
      vertex 10.1 -0.1 20
    endloop
  endfacet
  facet normal 0 -1 0
    outer loop
      vertex -2.496 -5.1 18.099
      vertex -7.80172 -5.1 20
      vertex -4.657 -5.1 16.926
    endloop
  endfacet
  facet normal 0 1 0
    outer loop
      vertex 4.457 -0.1 16.926
      vertex 2.296 -0.1 18.099
      vertex 10.1 -0.1 20
    endloop
  endfacet
  facet normal 0 1 0
    outer loop
      vertex -9.9 -0.1 20
      vertex 10.1 -0.1 20
      vertex -0.1 -0.1 18.503
    endloop
  endfacet
  facet normal 0 1 0
    outer loop
      vertex -0.1 -0.1 18.503
      vertex -2.496 -0.1 18.099
      vertex -9.9 -0.1 20
    endloop
  endfacet
  facet normal 0 -1 0
    outer loop
      vertex 7.273 -5.1 12.8
      vertex 7.652 -5.1 10.25
      vertex 7.99767 -5.1 20
    endloop
  endfacet
  facet normal 0 -1 0
    outer loop
      vertex 7.273 -5.1 7.7
      vertex 7.99767 -5.1 0
      vertex 7.652 -5.1 10.25
    endloop
  endfacet
  facet normal 0 -1 0
    outer loop
      vertex 6.172 -5.1 5.399
      vertex 7.99767 -5.1 0
      vertex 7.273 -5.1 7.7
    endloop
  endfacet
  facet normal 0 -1 0
    outer loop
      vertex 7.99767 -5.1 20
      vertex 7.652 -5.1 10.25
      vertex 7.99767 -5.1 0
    endloop
  endfacet
  facet normal 0 -1 0
    outer loop
      vertex -0.1 -5.1 18.503
      vertex -7.80172 -5.1 20
      vertex -2.496 -5.1 18.099
    endloop
  endfacet
  facet normal 0 -1 0
    outer loop
      vertex 9.99828 -5.1 0
      vertex 10.1 -5.1 0
      vertex 9.99828 -5.1 20
    endloop
  endfacet
  facet normal 0 -1 0
    outer loop
      vertex 10.1 -5.1 20
      vertex 9.99828 -5.1 20
      vertex 10.1 -5.1 0
    endloop
  endfacet
  facet normal 0 1 0
    outer loop
      vertex 6.172 -0.1 5.399
      vertex 10.1 -0.1 0
      vertex 4.457 -0.1 3.574
    endloop
  endfacet
  facet normal 0 1 0
    outer loop
      vertex 2.296 -0.1 2.401
      vertex 4.457 -0.1 3.574
      vertex 10.1 -0.1 0
    endloop
  endfacet
  facet normal 0 1 0
    outer loop
      vertex 10.1 -0.1 0
      vertex 6.172 -0.1 5.399
      vertex 7.273 -0.1 7.7
    endloop
  endfacet
  facet normal 0 1 0
    outer loop
      vertex 10.1 -0.1 0
      vertex 7.273 -0.1 7.7
      vertex 7.652 -0.1 10.25
    endloop
  endfacet
  facet normal 0 1 0
    outer loop
      vertex 7.652 -0.1 10.25
      vertex 7.273 -0.1 12.8
      vertex 10.1 -0.1 20
    endloop
  endfacet
  facet normal 0 1 0
    outer loop
      vertex 10.1 -0.1 0
      vertex 7.652 -0.1 10.25
      vertex 10.1 -0.1 20
    endloop
  endfacet
  facet normal -0.99985 0.01739 0
    outer loop
      vertex -9.80233 -5.1 20
      vertex -9.80233 -5.1 0
      vertex -9.88 -9.565 0
    endloop
  endfacet
  facet normal -0.99985 0.01739 0
    outer loop
      vertex -9.80233 -5.1 20
      vertex -9.88 -9.565 0
      vertex -9.88 -9.565 20
    endloop
  endfacet
  facet normal 0 -1 0
    outer loop
      vertex -0.1 -5.1 18.503
      vertex 2.296 -5.1 18.099
      vertex 7.99767 -5.1 20
    endloop
  endfacet
  facet normal 0 -1 0
    outer loop
      vertex 4.457 -5.1 3.574
      vertex 2.296 -5.1 2.401
      vertex 7.99767 -5.1 0
    endloop
  endfacet
  facet normal 0 1 0
    outer loop
      vertex -7.473 -0.1 7.7
      vertex -6.372 -0.1 5.399
      vertex -9.9 -0.1 0
    endloop
  endfacet
  facet normal 0 1 0
    outer loop
      vertex -2.496 -0.1 2.401
      vertex -0.1 -0.1 1.998
      vertex -9.9 -0.1 0
    endloop
  endfacet
  facet normal 0 1 0
    outer loop
      vertex 10.1 -0.1 0
      vertex -9.9 -0.1 0
      vertex -0.1 -0.1 1.998
    endloop
  endfacet
  facet normal 0 1 0
    outer loop
      vertex -0.1 -0.1 1.998
      vertex 2.296 -0.1 2.401
      vertex 10.1 -0.1 0
    endloop
  endfacet
  facet normal 0 -1 0
    outer loop
      vertex 7.99767 -5.1 0
      vertex -0.1 -5.1 1.998
      vertex -7.80172 -5.1 0
    endloop
  endfacet
  facet normal 0.98908 0 0.14739
    outer loop
      vertex -7.80172 -5.1 9.9059
      vertex -7.853 -5.1 10.25
      vertex -7.80698 -5.402 9.94115
    endloop
  endfacet
  facet normal 0.98908 0 0.14739
    outer loop
      vertex -7.853 -5.402 10.25
      vertex -7.80698 -5.402 9.94115
      vertex -7.853 -5.1 10.25
    endloop
  endfacet
  facet normal 0 -1 0
    outer loop
      vertex 6.172 -5.1 15.101
      vertex 7.99767 -5.1 20
      vertex 4.457 -5.1 16.926
    endloop
  endfacet
  facet normal 0 -1 0
    outer loop
      vertex 7.273 -5.1 12.8
      vertex 7.99767 -5.1 20
      vertex 6.172 -5.1 15.101
    endloop
  endfacet
  facet normal 0 -1 0
    outer loop
      vertex 2.296 -5.1 18.099
      vertex 4.457 -5.1 16.926
      vertex 7.99767 -5.1 20
    endloop
  endfacet
  facet normal 0 1 0
    outer loop
      vertex -7.473 -0.1 12.8
      vertex -9.9 -0.1 20
      vertex -6.372 -0.1 15.101
    endloop
  endfacet
  facet normal 0 1 0
    outer loop
      vertex -4.657 -0.1 16.926
      vertex -6.372 -0.1 15.101
      vertex -9.9 -0.1 20
    endloop
  endfacet
  facet normal 0 1 0
    outer loop
      vertex -7.473 -0.1 7.7
      vertex -9.9 -0.1 0
      vertex -7.853 -0.1 10.25
    endloop
  endfacet
  facet normal 0 1 0
    outer loop
      vertex -7.473 -0.1 12.8
      vertex -7.853 -0.1 10.25
      vertex -9.9 -0.1 20
    endloop
  endfacet
  facet normal 0.98908 0 -0.14739
    outer loop
      vertex -7.80698 -5.402 10.55885
      vertex -7.853 -5.402 10.25
      vertex -7.853 -5.1 10.25
    endloop
  endfacet
  facet normal 0.98908 0 -0.14739
    outer loop
      vertex -7.80698 -5.402 10.55885
      vertex -7.853 -5.1 10.25
      vertex -7.80172 -5.1 10.5941
    endloop
  endfacet
  facet normal 0 -1 0
    outer loop
      vertex -9.80233 -5.1 0
      vertex -9.80233 -5.1 20
      vertex -9.9 -5.1 20
    endloop
  endfacet
  facet normal 0 -1 0
    outer loop
      vertex -9.80233 -5.1 0
      vertex -9.9 -5.1 20
      vertex -9.9 -5.1 0
    endloop
  endfacet
  facet normal 0 1 0
    outer loop
      vertex -7.80698 -5.402 9.94115
      vertex -7.853 -5.402 10.25
      vertex -7.80698 -5.402 10.55885
    endloop
  endfacet
  facet normal 0 -1 0
    outer loop
      vertex -7.80172 -5.1 20
      vertex -0.1 -5.1 18.503
      vertex 7.99767 -5.1 20
    endloop
  endfacet
  facet normal 0.16587 0 0.98615
    outer loop
      vertex -2.496 -0.1 2.401
      vertex -0.1 -5.1 1.998
      vertex -0.1 -0.1 1.998
    endloop
  endfacet
  facet normal 0.16587 0 0.98615
    outer loop
      vertex -2.496 -5.1 2.401
      vertex -0.1 -5.1 1.998
      vertex -2.496 -0.1 2.401
    endloop
  endfacet
  facet normal 0.47706 0 0.87887
    outer loop
      vertex -2.496 -5.1 2.401
      vertex -2.496 -0.1 2.401
      vertex -4.657 -0.1 3.574
    endloop
  endfacet
  facet normal 0.47706 0 0.87887
    outer loop
      vertex -2.496 -5.1 2.401
      vertex -4.657 -0.1 3.574
      vertex -4.657 -5.1 3.574
    endloop
  endfacet
  facet normal 0.72873 0 0.6848
    outer loop
      vertex -6.372 -0.1 5.399
      vertex -6.372 -5.1 5.399
      vertex -4.657 -5.1 3.574
    endloop
  endfacet
  facet normal 0.72873 0 0.6848
    outer loop
      vertex -6.372 -0.1 5.399
      vertex -4.657 -5.1 3.574
      vertex -4.657 -0.1 3.574
    endloop
  endfacet
  facet normal 0 1 0
    outer loop
      vertex -6.372 -0.1 5.399
      vertex -4.657 -0.1 3.574
      vertex -9.9 -0.1 0
    endloop
  endfacet
  facet normal 0 1 0
    outer loop
      vertex -2.496 -0.1 2.401
      vertex -9.9 -0.1 0
      vertex -4.657 -0.1 3.574
    endloop
  endfacet
  facet normal 0.90205 0 0.43162
    outer loop
      vertex -7.473 -0.1 7.7
      vertex -7.473 -5.1 7.7
      vertex -6.372 -5.1 5.399
    endloop
  endfacet
  facet normal 0.90205 0 0.43162
    outer loop
      vertex -7.473 -0.1 7.7
      vertex -6.372 -5.1 5.399
      vertex -6.372 -0.1 5.399
    endloop
  endfacet
  facet normal 0 -1 0
    outer loop
      vertex -7.80172 -5.1 0
      vertex -0.1 -5.1 1.998
      vertex -2.496 -5.1 2.401
    endloop
  endfacet
  facet normal 0 1 0
    outer loop
      vertex -9.9 -0.1 0
      vertex -9.9 -0.1 20
      vertex -7.853 -0.1 10.25
    endloop
  endfacet
  facet normal 0.98908 0 0.14739
    outer loop
      vertex -7.853 -0.1 10.25
      vertex -7.80172 -5.1 9.9059
      vertex -7.473 -0.1 7.7
    endloop
  endfacet
  facet normal 0.98908 0 0.14739
    outer loop
      vertex -7.853 -5.1 10.25
      vertex -7.80172 -5.1 9.9059
      vertex -7.853 -0.1 10.25
    endloop
  endfacet
  facet normal 0.98908 0 0.14739
    outer loop
      vertex -7.473 -5.1 7.7
      vertex -7.473 -0.1 7.7
      vertex -7.80172 -5.1 9.9059
    endloop
  endfacet
  facet normal 0 -1 0
    outer loop
      vertex -4.657 -5.1 3.574
      vertex -7.80172 -5.1 0
      vertex -2.496 -5.1 2.401
    endloop
  endfacet
  facet normal -0.90205 0 0.43162
    outer loop
      vertex 7.273 -5.1 7.7
      vertex 7.273 -0.1 7.7
      vertex 6.172 -0.1 5.399
    endloop
  endfacet
  facet normal -0.90205 0 0.43162
    outer loop
      vertex 7.273 -5.1 7.7
      vertex 6.172 -0.1 5.399
      vertex 6.172 -5.1 5.399
    endloop
  endfacet
  facet normal -0.72873 0 0.6848
    outer loop
      vertex 6.172 -5.1 5.399
      vertex 6.172 -0.1 5.399
      vertex 4.457 -0.1 3.574
    endloop
  endfacet
  facet normal -0.72873 0 0.6848
    outer loop
      vertex 6.172 -5.1 5.399
      vertex 4.457 -0.1 3.574
      vertex 4.457 -5.1 3.574
    endloop
  endfacet
  facet normal 0 -1 0
    outer loop
      vertex -6.372 -5.1 5.399
      vertex -7.80172 -5.1 0
      vertex -4.657 -5.1 3.574
    endloop
  endfacet
  facet normal 0 1 0
    outer loop
      vertex 6.172 -0.1 15.101
      vertex 10.1 -0.1 20
      vertex 7.273 -0.1 12.8
    endloop
  endfacet
  facet normal 0 -1 0
    outer loop
      vertex -7.80172 -5.1 0
      vertex -6.372 -5.1 5.399
      vertex -7.473 -5.1 7.7
    endloop
  endfacet
  facet normal 0 -1 0
    outer loop
      vertex -7.80172 -5.1 0
      vertex -7.473 -5.1 7.7
      vertex -7.80172 -5.1 9.9059
    endloop
  endfacet
  facet normal -0.47706 0 0.87887
    outer loop
      vertex 4.457 -5.1 3.574
      vertex 4.457 -0.1 3.574
      vertex 2.296 -0.1 2.401
    endloop
  endfacet
  facet normal -0.47706 0 0.87887
    outer loop
      vertex 4.457 -5.1 3.574
      vertex 2.296 -0.1 2.401
      vertex 2.296 -5.1 2.401
    endloop
  endfacet
  facet normal -0.16587 0 0.98615
    outer loop
      vertex 2.296 -5.1 2.401
      vertex 2.296 -0.1 2.401
      vertex -0.1 -0.1 1.998
    endloop
  endfacet
  facet normal -0.16587 0 0.98615
    outer loop
      vertex 2.296 -5.1 2.401
      vertex -0.1 -0.1 1.998
      vertex -0.1 -5.1 1.998
    endloop
  endfacet
  facet normal 0.72873 0 -0.6848
    outer loop
      vertex -6.372 -5.1 15.101
      vertex -6.372 -0.1 15.101
      vertex -4.657 -5.1 16.926
    endloop
  endfacet
  facet normal 0.72873 0 -0.6848
    outer loop
      vertex -4.657 -0.1 16.926
      vertex -4.657 -5.1 16.926
      vertex -6.372 -0.1 15.101
    endloop
  endfacet
  facet normal 0.47706 0 -0.87887
    outer loop
      vertex -2.496 -0.1 18.099
      vertex -2.496 -5.1 18.099
      vertex -4.657 -5.1 16.926
    endloop
  endfacet
  facet normal 0.47706 0 -0.87887
    outer loop
      vertex -2.496 -0.1 18.099
      vertex -4.657 -5.1 16.926
      vertex -4.657 -0.1 16.926
    endloop
  endfacet
  facet normal 0.16627 0 -0.98608
    outer loop
      vertex -0.1 -0.1 18.503
      vertex -0.1 -5.1 18.503
      vertex -2.496 -5.1 18.099
    endloop
  endfacet
  facet normal 0.16627 0 -0.98608
    outer loop
      vertex -0.1 -0.1 18.503
      vertex -2.496 -5.1 18.099
      vertex -2.496 -0.1 18.099
    endloop
  endfacet
  facet normal -0.16627 0 -0.98608
    outer loop
      vertex 2.296 -0.1 18.099
      vertex 2.296 -5.1 18.099
      vertex -0.1 -5.1 18.503
    endloop
  endfacet
  facet normal -0.16627 0 -0.98608
    outer loop
      vertex 2.296 -0.1 18.099
      vertex -0.1 -5.1 18.503
      vertex -0.1 -0.1 18.503
    endloop
  endfacet
  facet normal -0.47706 0 -0.87887
    outer loop
      vertex 4.457 -0.1 16.926
      vertex 4.457 -5.1 16.926
      vertex 2.296 -5.1 18.099
    endloop
  endfacet
  facet normal -0.47706 0 -0.87887
    outer loop
      vertex 4.457 -0.1 16.926
      vertex 2.296 -5.1 18.099
      vertex 2.296 -0.1 18.099
    endloop
  endfacet
  facet normal -0.72873 0 -0.6848
    outer loop
      vertex 4.457 -5.1 16.926
      vertex 4.457 -0.1 16.926
      vertex 6.172 -0.1 15.101
    endloop
  endfacet
  facet normal -0.72873 0 -0.6848
    outer loop
      vertex 4.457 -5.1 16.926
      vertex 6.172 -0.1 15.101
      vertex 6.172 -5.1 15.101
    endloop
  endfacet
endsolid stl_item0
